<?xml version="1.0" encoding="UTF-8"?>
<!-- Generator: Adobe Illustrator 26.3.1, SVG Export Plug-In . SVG Version: 6.00 Build 0)  -->
<svg version="1.1" baseProfile="tiny" id="Layer_1" xmlns="http://www.w3.org/2000/svg" xmlns:xlink="http://www.w3.org/1999/xlink" x="0px" y="0px" viewBox="0 0 811.4 403.5" overflow="visible" xml:space="preserve">
<path fill="#258DC7" d="M157.7,0l169.7,0v28.9H182.1C171.4,20,162.9,10.5,157.7,0z"/>
<path fill="#108C84" d="M204.8,45h78.7v28.9h-24C240.2,64.7,221.3,55.2,204.8,45z"/>
<path fill="#FFD80D" d="M423.5,51c0,6.9-2,14.8-5.3,22.9H282.8V45h140.4C423.4,46.9,423.5,48.9,423.5,51z"/>
<path fill="#E35361" d="M418.7,28.9h-95.1V0l72.3,0C406.1,8.9,414,18.4,418.7,28.9z"/>
<path fill="#258DC7" d="M367,134.8c-16.8-16.5-44.1-30.7-73.6-44.9h116.6C398.8,108.7,382.3,126.5,367,134.8z"/>
<path fill="#E35361" d="M190.9,215h171.9c-15.7-27.4-39.9-53.9-62.1-66C275.9,173.3,234.9,194.2,190.9,215z"/>
<path fill="#FFD80D" d="M379.6,266.1c0-8.7-2.2-18.5-6.1-28.6h-89.6v40.4h94.7C379.3,274,379.6,270.1,379.6,266.1z"/>
<path fill="#108C84" d="M68.8,277.8h222.9v-40.4H143.5C117,250.2,91.1,263.4,68.8,277.8z"/>
<path fill="#E35361" d="M6.7,340.7h132.8v-40.4h-101C24.3,312.7,13.3,326,6.7,340.7z"/>
<path fill="#258DC7" d="M371.3,300.3h-237v40.4h202.8C352.1,328.3,364,314.9,371.3,300.3z"/>
<path fill="#108C84" d="M305.6,363.1H195.6v40.4h33.5C256,390.6,282.5,377.4,305.6,363.1z"/>
<path fill="#FFD80D" d="M0,371.5c0,9.6,2.7,20.6,7.4,32h189.2v-40.4H0.5C0.2,365.8,0,368.6,0,371.5z"/>
<path fill="none" d="M423.5,51c0,6.9-2,14.8-5.3,22.9H282.8V45h140.4C423.4,46.9,423.5,48.9,423.5,51z"/>
<g>
	<path fill="#6F6F6E" d="M233.5,58c-2.5-3.6-9.4-9-15.5-7.4c-0.8,0.2-1.7,0.5-2.5,0.7c6.3,3.6,12.8,7.1,19.5,10.5   C234.8,60.5,234.3,59.2,233.5,58z"/>
	<path fill="#6F6F6E" d="M211.2,48.9c1.6-0.3,3.2-0.4,4.8-0.8c2-0.4,4.1-0.4,6-1.4c0.6-0.3,1.4-0.4,1.5-1.2c0-0.2,0-0.4-0.1-0.6   h-15.7c-0.4,0.3-0.9,0.6-1.3,1C208,47,209.6,47.9,211.2,48.9z"/>
	<path fill="#6F6F6E" d="M282.8,64c-2.4,0.1-3.9,1.6-4,4.2c-0.1,2.6,0.9,4.7,3.5,5.6c0.1,0,0.1,0,0.2,0.1h0.4V64z"/>
	<path fill="#6F6F6E" d="M270.2,69.3c-0.2-0.5-0.6-1-0.8-1.5c-2.9-5.8-1.9-7.9,4.2-8.5c3-0.3,6.1-0.5,9.1-0.7v-7.8   c-4.2-0.8-8.2-2.4-11.9-4.7c-2.1-1.3-4-1-5.7,0.3c-1.6,1.1-1,2.8-0.6,4.6c0.6,2.7,2.3,5.8-1.5,7.8c-0.3,0.2-0.4,1-0.4,1.5   c0.6,4.7,1.8,9.3,3.6,13.6h6.3C271.8,72.4,270.9,70.9,270.2,69.3z"/>
	<path fill="#6F6F6E" d="M261.3,73.9c0-0.1-0.1-0.2-0.1-0.3c-3.4-10.4-10-19-16.2-27.8c-0.2-0.3-0.4-0.6-0.6-0.9h-7.6   c0.8,0.6,1.6,1.2,2.3,2c3.9,4.5,6.9,9.5,9.5,14.8c0.1,0.2,0.2,0.3,0.4,0.5c0,0,0,0,0,0c1.3,2.8,2.6,5.6,3.9,8.4   c2.2,1.1,4.5,2.2,6.7,3.2H261.3z"/>
	<path fill="#6F6F6E" d="M244.6,66.6c-0.8-3.9-2.6-7.5-4.2-11.2c-1.4-3.1-3.7-5.9-7.2-7.2c-0.7-0.3-1.4-0.3-1.9,0.2   c-0.7,0.7,0.1,1.3,0.4,1.8c0.3,0.6,1,0.9,1.5,1.4c4,3.5,7,7.4,6.8,12.7C241.5,65.1,243,65.9,244.6,66.6z"/>
</g>
<g>
	<path fill="#6F6F6E" d="M301,72.7c4.4-4.7,8.6-9.9,15.2-11.9c2.9-0.9,4.6-7,2.7-9c-2.2-2.3-4.6-4.6-6.9-6.8h-12.8   c0.7,2.2,0.2,4.1-1.7,4.7c-2.4,0.8-4.9,1.6-7.6,1.7c-2.4,0.1-4.8-0.1-7.1-0.6v7.8c4.7-0.3,9.3-0.5,14-0.7c2-0.1,3.4-0.6,4.9-1.8   c1.3-1,2.4-2.6,4.6-2.5c1.6,0,1.3-1.7,1.4-3c0-1.2-1.4-2.6,0-3.4c1.2-0.7,2.3,0.7,3.5,1.5c2,1.2,3.3,3.4,5,5.2   c0.3,0.4,0.4,1.1,0.3,1.6c-0.2,0.7-0.9,0.6-1.4,0.4c-7.9-2.6-9.9,4.3-12.9,8.7c-2,2.9-4.3,4.6-7.3,5.6c-1.1,0.4-2.3,0.6-1.6-1.5   c0.6-1.9-0.5-3-2.3-3.8c-2.6-1.1-5.4-1.1-8.1-1c0,0,0,0,0,0v9.9h17.1C300.3,73.5,300.6,73.1,301,72.7z"/>
	<path fill="#6F6F6E" d="M322.1,49.7c1.6-2.2,0.2-3.5-1-4.7h-4.2C318.4,46.7,320,48.4,322.1,49.7z"/>
	<path fill="#6F6F6E" d="M311.7,67.7c-3.7,0.9-5.6,3-6.7,6.1h1.4C308.4,72.1,310.4,70.4,311.7,67.7z"/>
</g>
<g>
	<path fill="#108C84" d="M423.2,45.2c0-0.1,0-0.1,0-0.2h-4.5c0.9,0.7,2,0.5,3.1,0.4C422.2,45.3,422.7,45.2,423.2,45.2z"/>
	<path fill="#108C84" d="M411.9,46.2c0.4,2.3,2.2,3.1,4.1,3.9c0.6,0.3,1.3,0.6,1.9,0.9c1.8,1.1,3.7,2,5.6,2.8c0.1-1,0.1-1.9,0.1-2.8   c0-0.5,0-1,0-1.6c-0.2,0-0.4,0.1-0.7,0.2c-1.7,0.6-3.1-0.2-4.5-1c-0.6-0.3-1.2-0.7-1.8-0.9c-0.5-0.2-1-0.4-1.5-0.7   c-0.8-0.4-1.6-0.9-2.6-0.9L411.9,46.2z"/>
	<path fill="#108C84" d="M377,68.2c-0.8-0.1-1.3,0-1.7,0.3c-0.5,0.4-0.8,1.1-0.9,2.3c-0.1,1-0.2,2-0.4,3h3.1c0-0.9,0-1.9,0-2.8   L377,68.2z"/>
	<path fill="#108C84" d="M372.1,48.1c0.3,1.1,0.6,2.2,0.8,3.4c0.3,1.8,1,3.5,1.6,5.2c0.6,1.5,1.2,3,1.6,4.6c0.2,0.7,0.2,1.5,0.2,2.2   c0,1.5,0.1,2.9,1.2,4.1c1.4,0.3,1.7,1.6,1.8,2.5c0,0.1,0,0.3,0.1,0.4c0.2,1.1,0.4,2.3,0.6,3.4h2.3c-0.1-0.4-0.1-0.8,0-1.2   c0.7-4.9-0.6-9.5-1.9-14c-0.4-1.5-0.9-3-1.2-4.6c-0.2-1-0.5-2-2.1-2c-1.8-0.1-1.8-2-1.9-3.3c0-0.2,0-0.3,0-0.5   c-0.1-1.2-0.1-2.3-0.3-3.3h-3.5C371.5,46,371.8,47.1,372.1,48.1z"/>
	<path fill="#108C84" d="M418.5,73.2c-0.5-0.4-0.9-0.6-1.3-0.3c-0.3,0.3-0.3,0.5-0.1,1h1.2C418.3,73.7,418.4,73.4,418.5,73.2z"/>
	<path fill="#108C84" d="M402.5,66.4l-0.2-0.3c-0.5-0.2-0.7-0.1-0.7-0.1c-0.1,0.1-0.1,0.5,0,0.8c0,0.2,0.1,0.5,0,0.7   c-0.3,1.8,0.2,3.5,0.6,5.3c0.1,0.4,0.2,0.7,0.3,1.1h4.3C405,71.5,403.7,68.9,402.5,66.4z"/>
	<path fill="#108C84" d="M394.7,59.4c-0.3-0.4-0.6-0.8-0.5-1.3c0.1-0.4,0.6-0.6,1-0.8l0.1,0l0.1,0c3,0.5,4.9,2.5,6.7,4.4   c0.9,0.9,1.7,1.9,2.7,2.6c0.1,0.1,0.2,0.3,0.2,0.5c0,0.1-0.1,0.3-0.1,0.4l2.6,0.8l-0.4,0.4c-0.3,0.3-0.4,0.6-0.1,1l1.7,2.9   c0.7,1.2,1.4,2.4,2.2,3.6h3.1c-0.9-1.6-1.8-3.2-2.6-4.8c-0.8-1.7-1.2-3.4-1.7-5.2c-0.6-2.3-1.1-4.4-2.4-6.4   c-1.3-1.9-2.4-4.1-3.3-6.8l-0.2-0.5l0.5,0.1c1.8,0.2,2.6,1.3,3.3,2.4c0.4,0.6,0.8,1.1,1.3,1.5l0.1,0.1l0,0.1   c0.1,0.2,0.1,0.5,0.2,0.7c0.1,0.5,0.2,0.9,0.4,1.4c1.3,2.9,2.8,6.3,4.3,9.4c1.1,2.3,3,3.6,5.1,5c0.1,0,0.1,0.1,0.2,0.1   c0.3-0.9,0.7-1.9,1-2.8l0-0.2c-0.1-1-0.6-1.7-1.3-2.3l-0.1-0.1c-0.3-0.4-0.5-0.8-0.7-1.2c-0.8-1.4-1.6-2.6-2.9-3.5l-0.1,0l-0.7-1.2   l-0.7-2.2l0.3-0.1c1.3-0.5,2,0.2,2.7,0.9c0.1,0.1,0.2,0.2,0.3,0.3c1.6,1.5,3,3.4,4.3,5.1c0,0,0.1,0.1,0.1,0.1   c0.6-2.2,1-4.3,1.3-6.4c-1.1-0.9-2.3-1.7-3.6-2.3c-4.7-2.1-9.4-5.2-14.8-9.5c-0.3-0.2-0.6-0.5-0.9-0.7h-6c0.7,1.8,1.7,3.5,2.8,5.2   l0.5,0.8c1.5,2.5,2.9,5.1,4.3,7.7c0.6,1.1,1.2,2.3,1.9,3.4l0,0.1l0,0.1c0,0.2,0,0.5,0.1,0.7c0.1,0.6,0.2,1.3-0.4,2l-0.2,0.2   l-0.2-0.1c-1.1-0.5-1.7-1.5-2.2-2.4c-0.3-0.4-0.5-0.9-0.8-1.2c-0.2-0.3-0.5-0.6-0.7-1c-0.7-1.1-1.3-2-3-1.6c-1,0.3-1.5-0.6-1.9-1.2   c-0.2-0.4-0.5-0.8-0.8-1l-0.1-0.1l0-0.1c-1.1-2.6-2.8-4.9-4.3-7.2c-0.9-1.4-1.9-2.8-2.8-4.2h-5.6c0.2,0.7,0.7,1.2,1.9,1.4   c1.9,0.3,2.6,2,3.2,3.5c0.2,0.6,0.5,1.1,0.7,1.5c0.3,0.5,0.7,0.9,1.1,1.3c1.2,1.4,2.6,3,0.8,5.9c-0.8,1.3,1,4,2.9,5.9l0.1,0.1   l0,0.1c0,0.1,0,0.2,0.1,0.3c0.1,0.4,0.2,0.7,0.5,0.8l0.1,0l0.1,0.1c1,2.6,1.7,5.3,2.4,8h2.7C399.9,68.4,397.9,63.5,394.7,59.4z"/>
	<path fill="#108C84" d="M411.5,45.7l0.3,0l0,0.3c0,0.1,0,0.2,0,0.3l0.2-0.5c0.1-0.3,0.2-0.5,0.3-0.8h-3.1   C410,45.3,410.7,45.6,411.5,45.7z"/>
	<path fill="#108C84" d="M379.7,45.8c0.5,1,1.1,2.1,1.7,3.1c1.2,2.1,2.5,4.3,2.8,6.6c0.5,3.6,1.4,7.2,2.9,11   c0.2,0.5,0.4,0.9,0.6,1.4c0.5,1.1,1,2.3,1.3,3.6c0.2,0.8,0.5,1.6,0.8,2.4h5.2c-1.3-4.4-3.3-8.6-5.2-12.6l-0.4-0.9   c-0.6-1.3-0.9-2.7-1.1-4.1c-0.2-1.6-0.5-3-1.3-4.4c-0.3-0.4-0.4-0.9-0.6-1.3c-0.5-1.2-0.8-2.2-2.8-1.9c-1,0.1-1.6-1.1-2-2.3   c-0.2-0.4-0.3-0.8-0.5-1.2c0-0.1-0.1-0.2-0.1-0.3h-1.4C379.5,45.3,379.6,45.6,379.7,45.8z"/>
	<path fill="#108C84" d="M386,71.5c0-0.1-0.1-0.3-0.1-0.5c-0.1-0.6-0.2-0.8-0.5-0.8c0,0,0,0,0,0c-0.5,0-0.6,0.3-0.7,1   c0,0.1,0,0.3,0,0.4c-0.1,0.8-0.1,1.6,0.1,2.2h1.8C386.4,73.1,386.2,72.3,386,71.5z"/>
	<path fill="#108C84" d="M362.2,67.4c0.1-0.4,0.1-0.9-0.1-1.2c-0.1-0.1-0.2-0.2-0.5-0.2c-0.1,0-0.1,0-0.2,0c-0.4,0-0.5,0.3-0.6,1   c0,0.2,0,0.4-0.1,0.6c-0.4,1.9-0.8,3.9-1.2,5.9c0,0.1-0.1,0.3-0.1,0.4h2.9c0-0.3-0.1-0.6-0.1-1c-0.2-1.7-0.3-3.4-0.2-5.1   C362.2,67.7,362.2,67.6,362.2,67.4z"/>
	<path fill="#108C84" d="M347.2,67.6c-0.6,0.5-0.8,0.8-0.6,1.2C347,68.5,347.1,68.1,347.2,67.6z"/>
	<path fill="#108C84" d="M394.3,45h-0.2C394.2,45,394.3,45,394.3,45z"/>
	<path fill="#108C84" d="M357.3,67.7c-0.1-0.1-0.2-0.1-0.3,0c-0.2,0.1-0.4,0.3-0.6,0.6c-1.1,2.1-2.7,3.9-4.4,5.6h3.3   c0.8-1.6,1.5-3.2,1.9-4.9c0-0.1,0.1-0.3,0.1-0.4C357.6,68,357.6,67.9,357.3,67.7z"/>
	<path fill="#108C84" d="M355.2,64.2c0.5-1.1,1.1-2.1,1.7-3.1c1.4-2.5,2.8-4.8,3-7.7c0.1-0.7,0.1-1.5,0.2-2.4l0.1-1   c-5.1,4.5-8.6,9-11,14l-0.1,0.1c-1,1-1.5,2-1.6,3.1l0,0c0.8-0.4,1.1-1.1,1.5-1.8c0.1-0.3,0.3-0.6,0.5-0.9l0.1-0.2l0.2,0   c0.8,0.1,1.3,0.3,1.5,0.7c0.3,0.5,0,1.2-0.2,1.8c-0.1,0.2-0.1,0.3-0.2,0.4c-0.7,2-1.9,3.8-3,5.5c-0.2,0.3-0.4,0.7-0.6,1h1.9   C351.7,71.3,353.4,67.9,355.2,64.2z"/>
	<path fill="#108C84" d="M364.8,49.1c0.2,2.2-0.6,4.1-1.4,6c-0.6,1.5-1.3,3.1-1.4,4.8l0,0.1l-0.1,0.1c-0.8,0.9-1.4,1.6-1,2.7   c0.7-0.2,0.9-0.8,1.1-1.5l0-0.1l0.1-0.1c1.6-0.9,2.7-2.3,3.5-4.5l0.2-0.7l0.4,0.6c0.2,0.3,0.4,0.6,0.7,0.9c0.6,0.7,1.2,1.3,1,2.1   c-0.2,0.6-0.8,1.1-2.1,1.5c-0.8,0.3-0.9,1.5-1,2.6c0,0.2,0,0.3-0.1,0.5c-0.2,2.1,0,4.3,0.3,6.4c0.1,1.1,0.3,2.2,0.3,3.4h3.9   c0.2-0.6,0.3-1.2,0.6-1.8c0.7-1.7,1.2-3.6,1.7-5.4c0.2-0.7,0.4-1.4,0.6-2.2c0.8-2.8,0-5.5-0.7-8.1c-0.1-0.5-0.3-0.9-0.4-1.4   c-0.4-1.4-0.8-2.8-1.3-4.2c-0.6-1.9-1.2-3.9-1.7-5.9h-2C365,45.9,364.6,47.2,364.8,49.1z"/>
</g>
<g>
	<path fill="none" d="M377.5,15.4c-0.1-1.2-0.8-2.2-1.4-3.1c-1-1.5-1.8-2.7-0.9-4.4l0-0.1c0.1-0.8-0.1-1.4-0.4-1.8   c-0.3-0.3-0.7-0.4-1.2-0.3c-0.8,0.1-1.5,0.5-1.9,1.1c-0.3,0.4-0.4,0.9-0.2,1.5c0.3,1.4,0,2.3-1.3,3.2c-0.4,0.3-0.6,0.6-0.6,1   c0,0.6,0.6,1.1,1.1,1.4c0.3,0.2,0.8,0.2,1.3,0.1l0.2,0c1.1-0.1,1.7,0.1,1.9,0.8c0.2,0.6-0.2,0.9-0.8,1.3c-0.1,0.1-0.2,0.2-0.3,0.2   c-0.7,0.6-1.2,1.3-1.7,2.3c-0.5,1-0.1,2,0.9,2.5c0.2,0.1,0.4,0.2,0.6,0.2c0.2,0,0.3,0,0.5-0.1c0.4-0.2,0.8-0.6,0.9-1.2   c0.3-0.9,0.7-1.3,1.7-1.5c1.9-0.4,1.7-1.5,1.5-2.8L377.5,15.4z"/>
	<path fill="#FFD80D" d="M412.9,18.6c-0.4,0.3-1,0.4-1.6,0.1c-0.7-0.3-1.4-0.6-1.8-0.3c-0.3,0.2-0.4,0.7-0.5,1.5   c0,1.3-1.1,2.2-2.7,2.3c-0.9,0.1-1.5,0.3-1.7,0.6c-0.3,0.3-0.3,0.8-0.2,1.4c0.1,0.9-0.3,1.7-1.3,2.2c-0.6,0.3-1.3,0.1-1.9-0.5   c-0.8-0.8-0.6-1.6-0.4-2.3c0.2-0.5,0.3-1,0.4-1.4c0.1-0.7,0-1.2-0.5-1.3c-0.7-0.2-1.2,0-1.6,0.5c-0.9,1.1-0.8,2.4-0.4,3.9   c0.4,1.7,0.7,2.6,0.3,3.1c-0.1,0.2-0.3,0.3-0.6,0.4h2.9c0-0.5,0.1-1,0.3-1.2c0.6-0.9,1.6-0.6,2.1-0.5c0.3,0.1,0.6,0.2,0.8,0.4   c0.2,0.1,0.4,0.2,0.6,0.3c0.6,0.2,1.1,0.9,1.5,1h0.3c0.1,0,0.1-0.1,0.2-0.2c0.4-0.5,0.4-1.1-0.1-1.8c-0.5-0.7-0.6-1.4-0.4-2   c0.1-0.3,0.5-0.8,1.3-1c1.4-0.3,2.4-0.9,3-2.1c0.6-1,1.5-0.9,2.3-0.7l0.1,0c0.5,0.1,1.1,0.4,1.3,1.4c0.1,0.9-0.2,1.6-1,2.1   c-0.2,0.2-0.5,0.3-0.7,0.4c-0.1,0.1-0.3,0.1-0.4,0.2c-1.6,0.9-2.4,2.1-2.2,3.6h2.4c0.4-1.1,1.3-1.7,2.2-2.3   c0.2-0.2,0.5-0.4,0.7-0.5c0.6-0.4,1-0.8,1.3-1.2C415.6,22.8,414.3,20.7,412.9,18.6z"/>
	<path fill="#FFD80D" d="M408.9,14.8c0.3-0.2,0.5-0.6,0.5-0.9c-0.8-1-1.6-2-2.4-2.9c-0.8,0.7-1.3,1.3-1.2,1.9   c0.1,0.6,0.6,1.2,1.7,1.8C408.1,15,408.6,15,408.9,14.8z"/>
	<path fill="#FFD80D" d="M391.6,27.6c0.1-0.5,0.4-1,0.8-1.3c0.4-0.3,1-0.3,1.5-0.1c0.7,0.3,1.2,0.1,1.7-0.5c0.2-0.3,0.3-0.8-0.1-1.2   c-0.6-0.6-1.1-0.8-1.9-0.7c-1.3,0.2-2.1,0.2-2.5-0.2c-0.4-0.4-0.5-1.1-0.5-2.4l0-0.1l0.1-0.1c0.3-0.3,0.3-0.7,0.3-1.2   c0-0.3,0-0.5,0-0.8l0-0.1l0.1-0.1c0.3-0.4,0.3-0.8,0.3-1.3c0-0.4,0-0.8,0.1-1.2l0-0.1c0.5-0.7,0.3-1.4,0-2.1l0-0.1l0-0.1   c0.3-1.1-0.3-1.9-1-2.8l-0.2-0.2c-0.7-0.8-0.9-1.5-0.6-2.1c0.2-0.5,0.8-0.9,1.7-1c1.5-0.2,2.5-0.7,2.7-2.5c0.1-1,0.4-1.9,0.6-2.8   c0.2-0.8,0.4-1.6,0.5-2.4h-2.3c-0.1,0.4-0.1,0.9-0.1,1.3c0,1.8-0.4,4.3-3.3,5.1c-0.5,0.1-1,0.5-1.3,1.1c-1,1.7-2.6,3-4.9,4   c-0.6,0.3-1,0.6-1.1,1c-0.1,0.3,0,0.7,0.3,1.2c0.4,0.7,0.8,1.6-0.1,2.5c-0.5,0.5-1,0.6-1.7,0.3c-1-0.4-1.5-1.1-1.5-2.2   c0-0.2,0-0.5,0-0.7c0-0.7,0-1.3-0.4-1.8c-1.8-2.1-1.9-4.7-2-7.1c0-0.4,0-0.8-0.1-1.1c-0.1-1.6,0.1-2.5,0.7-2.9   c0.7-0.5,1.7-0.2,3.1,0.3c1.9,0.7,3.5,0.4,4.2-0.7h-10.1c0.2,1.1,0.1,1.9-0.2,2.6c-0.5,0.9-1.5,1.5-3.3,2c-1.8,0.5-2.6,1.5-2.4,3.1   c0.2,1.6-0.2,3-1.1,4.2c-0.4,0.6-0.6,1.2-0.5,1.7c0.1,0.4,0.4,0.8,0.8,1.1c0.9,0.6,1.4,1.2,1.5,1.8c0.1,0.7-0.1,1.5-0.9,2.5   c-0.5,0.7-0.7,1.3-0.6,1.8c0.2,0.5,0.7,0.8,1.6,1.1c1.6,0.4,1.6,1.4,1.5,2.4l0,0.2l-0.2,0c-0.7,0.1-1.4,0.1-2.1,0   c-1-0.1-2-0.1-3,0.4l-0.1,0c-0.5,0.1-1,0.3-1.5,0.4c-1.2,0.3-2.4,0.7-3.7,0.5c-0.3,0-0.5,0-0.6,0.1c0,0,0,0.1,0.1,0.2   c0.2,0.2,0.3,0.4,0.5,0.6c0.7,0.9,1.3,1.6,2.7,0.9c2.1-0.9,4.2-1.3,6.2-1.1c1.3,0.1,2.2,0.5,2.6,1.1c0.2,0.4,0.3,0.8,0.2,1.3h2.4   c0.3-1.4,0-2.4-1.1-3.2c-0.8-0.6-0.8-1.1-0.7-1.4c0.1-0.4,0.6-0.7,1.3-0.8c1.3-0.1,1.9-0.6,2-1.7c0.1-0.8,0.5-1.3,1.3-1.4   c0.9-0.2,1.5,0.6,1.7,0.9c0.8,1.1,0.8,2.3,0.1,3.3c-0.7,1-1.5,2.2-1.8,3.5c-0.1,0.3-0.1,0.6-0.1,0.8h3.6c0.2-0.2,0.3-0.5,0.3-0.9   c0-0.8,0.2-1.7,0.5-2.6c0.5-1.9,1-3.7-1.2-5.2c-0.3-0.2-0.5-0.5-0.5-0.8c0-0.4,0.2-0.9,0.5-1.3c0.9-0.9,1.7-0.3,2.1,0   c0.6,0.4,1,0.9,1.2,1.4c0.3,0.8,0.7,1,1.3,0.8c0.6-0.2,0.7-0.6,0.7-1.4l0-0.1c0.1-1.1-0.2-2-0.6-3c-0.1-0.2-0.1-0.4-0.2-0.6   c-0.4-1.1,0.1-2.2,1.2-3.2c0.7-0.6,1.7-0.6,2.4-0.1c1,0.8,0.8,2.1,0.5,2.9c-0.3,1-0.3,2-0.2,3c0,0.2,0,0.5,0,0.7   c0,0.8,0,1.7-0.6,2.4c-0.5,0.6-0.7,1.1-0.6,1.6c0.1,0.5,0.5,0.9,1.2,1.3c0.3,0.2,1.3,0.7,1,1.9c-0.2,0.7-0.7,1.2-1.4,1.4   c-0.8,0.2-1.2-0.4-1.5-0.8c-0.1-0.1-0.2-0.2-0.2-0.3c-0.1-0.1-0.2-0.2-0.3-0.3c-0.5-0.7-0.9-1-1.5-0.8c-0.6,0.2-0.6,0.6-0.5,1.3   c0,0.2,0,0.4,0,0.5c0,0.9,0,1.6-0.1,2.2h1.9c0.1-0.4,0.2-0.7,0.4-0.9c0.3-0.3,0.6-0.4,1.1-0.4c0.5,0,0.9,0.1,1.2,0.5   c0.1,0.2,0.2,0.5,0.3,0.9h2C391.5,28.5,391.6,28,391.6,27.6z M376,18.6c-1,0.2-1.5,0.6-1.7,1.5c-0.2,0.6-0.5,1-0.9,1.2   c-0.1,0.1-0.3,0.1-0.5,0.1c-0.2,0-0.4,0-0.6-0.2c-1-0.5-1.4-1.5-0.9-2.5c0.5-1,1-1.8,1.7-2.3c0.1-0.1,0.2-0.1,0.3-0.2   c0.6-0.5,1-0.8,0.8-1.3c-0.2-0.6-0.8-0.9-1.9-0.8l-0.2,0c-0.4,0-0.9,0.1-1.3-0.1c-0.5-0.3-1.1-0.8-1.1-1.4c0-0.4,0.2-0.7,0.6-1   c1.3-0.9,1.6-1.7,1.3-3.2c-0.1-0.5-0.1-1,0.2-1.5c0.4-0.5,1-0.9,1.9-1.1c0.5-0.1,0.9,0,1.2,0.3c0.4,0.3,0.5,0.9,0.4,1.8l0,0.1   c-0.9,1.7-0.1,3,0.9,4.4c0.6,1,1.3,2,1.4,3.1l0,0.3C377.7,17.1,377.9,18.2,376,18.6z"/>
	<path fill="#FFD80D" d="M399.3,11.5c0.4,1,0.8,2,1.3,2.9c0.6,1.3,1.3,2.6,1.7,4.1c0.2,0.5,0.7,0.8,1.7,1c1.1,0.1,2-0.4,2.3-1.3   c0.1-0.3,0-0.5-0.1-0.8c-0.2-0.4-0.7-0.6-1.3-0.7l-0.1,0l-1-0.5l0-0.1c-0.1-0.3-0.3-0.6-0.4-0.9c-0.4-1-0.8-2-1.6-2.8   c-0.5-0.5-0.7-1-0.6-1.5c0.1-0.5,0.5-1,1.2-1.3c0.2-0.1,0.3-0.2,0.5-0.2c0.6-0.3,1.2-0.5,1.5-1c-0.5-0.5-1-1.1-1.6-1.6c0,0,0,0,0,0   c-0.6,0.8-1.5,1.3-2.2,1.3c-0.6,0-1-0.3-1.2-0.7c-0.2-0.4-0.2-1,0-1.5c0.3-0.6,0.5-1.2,0.7-1.8c-0.6-0.6-1.3-1.2-2-1.9   c-0.2,1.2-0.6,2.4-1.1,3.5c-0.4,0.9-0.3,1.6,0.4,2.3c0.8,0.9,1.1,1.9,1.5,2.9C399.1,11,399.2,11.3,399.3,11.5z"/>
	<path fill="#FFD80D" d="M370.1,1.8c0.2,0.2,0.4,0.3,0.6,0.3c0.2,0,0.5,0,0.7-0.2c0.1-0.2,0.2-0.4,0.2-0.7l0-0.5   c0-0.2,0.1-0.5,0.1-0.7h-1.9c0,0.4,0,0.7,0,1.1C369.8,1.3,369.9,1.6,370.1,1.8z"/>
	<path fill="#FFD80D" d="M354.9,4.7c-0.1,0.5,0.2,1.1,0.7,1.5c0.4,0.3,0.7,0.2,1.2-0.2c0.6-0.6,1-1,0.7-1.7   c-0.1-0.2-0.1-0.4-0.2-0.6c-0.1-0.2-0.1-0.4-0.2-0.6c-0.5-0.9-0.2-1.7,0.7-2.2c0.5-0.3,1.3-0.5,2.2,0.6c1.5,1.8,1.4,3.6-0.4,5.1   c-1.1,1-1.5,1.9-1.4,3.1c0.1,0.5,0,1.3-0.4,1.9c-0.3,0.3-0.7,0.5-1.2,0.6c-1.1,0.1-1.3-0.9-1.4-1.5c0-0.1,0-0.3-0.1-0.4l0-0.1   c-0.1-0.6-0.3-0.9-0.7-0.9c0,0-0.1,0-0.1,0c-0.8,0.1-1.2,0.5-1.2,1.3c0,0.6,0,1.2,0.3,1.7c0.5,0.7,0.6,1.6,0.5,2.7   c-0.2,2.4,1,4,2.2,5.8c0.5,0.7,1,1.3,1.4,2.1c0.6-2.7,0.8-4.6-1.1-6.4c-0.5-0.5-0.6-0.9-0.5-1.3c0.2-0.8,1.3-1,1.8-1.1   c1-0.2,1.6-0.5,2-1c0.4-0.5,0.5-1.3,0.3-2.3c-0.1-0.8-0.1-1.4,0.2-1.8c0.2-0.4,0.6-0.6,1.1-0.7c0.5-0.1,0.9,0,1.2,0.3   c0.3,0.3,0.5,0.8,0.5,1.5c0,0.8,0.5,1.1,1,1.3c0.5,0.2,0.8-0.2,1.2-0.7l0.1-0.1c0.5-0.5,0.6-1.1,0.5-1.6c-0.1-0.5-0.5-1-1.2-1.4   c-0.1-0.1-0.3-0.1-0.4-0.2c-0.6-0.3-1.4-0.6-1.2-1.7c0.2-1.1,1.1-1.1,1.7-1.1h0.1c0.1,0,0.3,0,0.4,0c0.7-0.1,1.3-0.3,1.5-0.7   c0.3-0.4,0.3-1,0.1-1.9l0,0l0,0c0-0.3,0-0.7,0-1c0-0.3,0-0.6,0-0.9h-1.9c0,0.2,0,0.4,0.1,0.7c0,0.3,0.1,0.6,0.1,0.9l0,0.1l-0.1,0.1   c-0.5,0.8-1.1,1.1-1.6,1.1c-0.5,0-1-0.5-1.4-1.3c-0.2-0.5-0.3-1-0.3-1.6h-7.7C354.8,1.4,355.5,2.9,354.9,4.7z"/>
	<path fill="#FFD80D" d="M397.6,15.2c-0.3-0.3-0.3-0.8-0.3-1.3c0-0.3,0-0.5,0-0.7c-0.4-1.7-1-2.7-2.2-3.1c-0.7,0.1-1.1,0.2-1.2,0.5   c-0.2,0.3,0.1,0.7,0.3,1c1.7,2.6,1.8,5.1,0.2,7.6c-0.2,0.4-0.3,0.8-0.3,1.1c0.1,0.2,0.2,0.4,0.5,0.6c0.7,0.4,1.4,0,1.8-0.5   c0.2-0.3,0.5-0.6,0.7-0.9C398.2,18.2,399.3,17.1,397.6,15.2z"/>
	<path fill="#FFD80D" d="M381.7,4.3c-0.2-0.2-0.4-0.3-0.6-0.4l-0.1,0c-0.3-0.1-0.5-0.2-0.7-0.2c-0.1,0-0.2,0-0.3,0.1   c-0.4,0.5-0.5,0.7-0.3,1.2c0.3,0.5,0.4,1.2,0.5,1.8c0,0.3,0.1,0.5,0.2,0.8c0.2,0.9,0.5,1.4,0.8,1.5c0.4,0.1,0.9-0.1,1.6-0.7   c0.6-0.5,1.2-1,1.7-1.5c1.4-1.2,2.8-2.5,4.4-3.5c0.3-0.2,0.7-0.8,0.7-1.2c0.1-0.7,0.2-1.3,0.3-2h-2c0,0.2,0,0.3-0.1,0.5   c-0.2,1.6-1.7,2.5-3.1,3.4c-0.4,0.2-0.7,0.5-1.1,0.7C382.9,5.2,382.2,4.7,381.7,4.3z"/>
	<path fill="#FFD80D" d="M349.7,1.1c0.2,2.6,0.4,5.2,1.2,7.8c1.4-2.3,1.6-6.4,0.4-8.3c-0.2-0.3-0.3-0.5-0.5-0.6h-1   c-0.1,0.2-0.2,0.4-0.1,1L349.7,1.1z"/>
	<path fill="#FFD80D" d="M362.2,20.2c-0.1,0-0.3,0.1-0.4,0.1c-1,0.4-1.5,0.7-1.4,1.4c0.1,0.7,0.6,0.9,1.7,0.8c0,0,0,0,0.1,0   c1.3,0,2.4-0.6,3.1-1.7c0.9-1.3,0.9-3.2,0.1-4.9c-0.6-1.2-1.2-1.8-1.8-2c-0.6-0.1-1.4,0.2-2.4,1.1c-0.5,0.5-0.7,0.8-0.6,1.2   c0.1,0.5,0.6,0.7,1,0.7c0.5,0,2.1,0,2.3,1.5C363.9,19.8,362.9,20,362.2,20.2z"/>
</g>
<g>
	<path fill="none" d="M375.2,99.3c0.1,0,0.3,0,0.4,0l0.1,0c2.4-1.4,2.1-3.6,1.7-5.7l-0.1-0.4l-0.4,0.1c-1.5,0.6-1.8,1.8-2,2.8   c-0.1,0.6-0.2,1.2-0.6,1.7l-0.1,0.1l0,0.1c-0.1,0.5-0.1,0.9,0.2,1.1C374.7,99.2,374.9,99.3,375.2,99.3z"/>
	<path fill="none" d="M362.9,111.2c0.3,0,0.5,0,0.7-0.2c0.2-0.3,0.6-0.6,0.9-0.9c0.8-0.7,1.7-1.6,1.6-3c0-0.3-0.2-0.6-0.4-0.7   c-0.2-0.1-0.5-0.1-0.8,0.1c-1.5,1-2.1,2.5-2.8,4.2l-0.2,0.6l0.5,0C362.5,111.2,362.7,111.2,362.9,111.2z"/>
	<path fill="#E35361" d="M374.2,130l0.2-0.6l-0.1,0.1l-0.1,0c-2,0.3-2.9,1.6-3.5,3c1.1-0.7,2.3-1.5,3.4-2.3   C374.1,130.2,374.2,130.1,374.2,130z"/>
	<path fill="#E35361" d="M380.9,117.8c-0.1-1.4,0.1-2.8,0.5-4.5c0.4-1.7,0.7-3.4-1-4.7l-0.3-0.2l0.2-0.3c1.2-1.3,1.4-2.9,1.6-4.7   c0-0.4,0.1-0.7,0.1-1.1c0.1-0.8,0.1-1.3-0.6-1.5c-0.6-0.2-1,0-1.3,0.8c-0.8,1.8-2,3.6-3.1,5.2c-1.8,2.7-3.7,5.5-4.2,9   c-0.3,2.3-1.7,4-4,5.3c-1.6,0.9-2.9,2.6-4.1,4.3c-0.4,0.6-0.8,1.2-1.3,1.7c-0.7,0.9-1.3,1.9-1.8,2.8c1.7,1.5,3.4,3,4.9,4.5   c1-1.6,2.2-3.1,3.4-4.5c2.3-2.8,4.6-5.8,5.6-9.4c0.1-0.5,0.3-1,0.4-1.5c0.5-1.5,0.9-3,1-4.6c0.1-2.4,1-4.2,2.7-5.1l0.8-0.4   l-0.3,0.8c-0.9,2.4-1.3,5.1-1.7,7.6c-0.7,4.1-1.3,8.4-4,12l0.2,0c0.2,0,0.4,0,0.6,0.1c1.6-1.2,3.2-2.5,4.8-3.8   C380.7,123.1,381.1,120.5,380.9,117.8z"/>
	<path fill="#E35361" d="M355.2,124.8c2-3.4,4.7-6.2,7.4-8.8c1.4-1.4,2.9-2.9,4.2-4.4c0.9-1.1,2.1-2,3.2-2.9c1.2-1,2.5-2,3.5-3.2   c1-1.2,2.1-2.2,3.2-3.3c2.9-2.8,5.6-5.4,6.1-9.7l0-0.1l0-0.1c0.6-0.9,0.7-1.6,0.6-2.3H382c-0.1,0.4-0.1,0.8,0,1.3   c0.1,0.5,0.1,1.3-0.4,1.9c-0.4,0.5-1.1,0.7-2.1,0.8l-0.3,0v-4h-5.3c-2.1,4.8-4.8,9.7-8.2,15.3l-0.4,0.7l-0.2-0.8   c-0.7-3.1,0.6-5.3,1.7-7.1c0.3-0.5,0.5-0.9,0.8-1.4c0.4-0.7,0.7-1.5,1-2.3c0.6-1.5,1.3-3,2.3-4.4h-2.5c-0.1,0.2-0.2,0.3-0.3,0.5   c-3.3,4.6-5.1,8.7-5.6,12.8c-0.1,0.9-0.6,1.7-1.1,2.4c-0.3,0.4-0.6,0.9-0.8,1.4c-0.4,0.8-0.9,1.6-1.4,2.3c-1.1,1.7-2.2,3.3-1.6,5.7   c0.1,0.6,0,1.1-0.3,1.7c-0.5,0.8-1.7,1.5-2.8,1.7c-1,0.2-1.8,0.6-2.6,1.1c-0.5,0.3-1,0.6-1.6,0.8c-0.3,0.1-0.5,0.3-0.6,0.4   c0.7,0.5,1.4,1,2.1,1.5c0,0,0,0,0,0c0.2-0.1,0.5-0.3,0.7-0.6c0.4-0.4,0.8-0.8,1.5-0.9l0.2,0l0.1,0.2c0.5,1.1-0.1,1.9-0.7,2.6   C354.1,123.9,354.7,124.4,355.2,124.8z M374.3,97.9L374.3,97.9l0.1-0.1c0.4-0.4,0.5-1,0.6-1.7c0.2-1.1,0.4-2.3,2-2.8l0.4-0.1   l0.1,0.4c0.4,2.1,0.7,4.3-1.7,5.7l-0.1,0c-0.1,0-0.3,0-0.4,0c-0.3,0-0.5-0.1-0.7-0.3C374.3,98.8,374.2,98.4,374.3,97.9z M362,110.7   c0.7-1.7,1.3-3.2,2.8-4.2c0.2-0.2,0.5-0.2,0.8-0.1c0.2,0.1,0.4,0.4,0.4,0.7c0.1,1.4-0.8,2.3-1.6,3c-0.3,0.3-0.6,0.6-0.9,0.9   c-0.1,0.2-0.4,0.2-0.7,0.2c-0.1,0-0.3,0-0.6,0l-0.5,0L362,110.7z"/>
	<path fill="#E35361" d="M359.3,126.9c0.3-0.3,0.6-0.6,0.9-0.9c0.9-0.8,1.7-1.5,2.1-2.6c0.1-0.3,0.4-0.5,0.6-0.7   c0.2-0.2,0.4-0.4,0.4-0.5c0-0.1-0.1-0.2-0.3-0.4c-0.1-0.1-0.3-0.2-0.4-0.2c-0.3,0-0.6,0.2-1,0.7c-0.1,0.1-0.2,0.2-0.4,0.4   c-0.5,0.4-0.9,0.9-1.4,1.3c-0.8,0.9-1.7,1.7-2.7,2.4c0.5,0.4,1,0.8,1.5,1.2C358.9,127.3,359.1,127.1,359.3,126.9z"/>
	<path fill="#E35361" d="M410.1,90h-2.3c0.4,0.6,0.8,1.2,1.1,1.8C409.3,91.2,409.7,90.6,410.1,90z"/>
	<path fill="#E35361" d="M401.5,97.9l0.6,0.8c0.4,0.6,0.7,1.2,1,1.8c1.5-2.1,3-4.3,4.4-6.4c-0.2-0.4-0.4-0.9-0.7-1.2   c-0.2-0.2-0.3-0.6-0.4-0.9c-0.2-0.7-0.3-0.8-0.7-0.8c-0.5,0.1-0.6,0.5-0.6,1.5l0,0.3c0,0.4,0.1,0.8,0.2,1.2c0,0.2,0.1,0.4,0.1,0.5   c0.1,0.2,0.2,0.6-0.1,1c-0.3,0.3-0.8,0.2-1,0.2l-0.2,0l-0.1-0.2c-0.1-0.3-0.2-0.6-0.3-0.9c-0.2-0.6-0.4-1.3-0.5-1.9   c-0.2-0.9-0.4-1.9-0.6-3H395c0.1,0.3,0.2,0.6,0.2,1c0.3,2.1,0,4.2-0.3,6.2c-0.2,1.3-0.4,2.6-0.4,3.9c0,3.2,0.2,6.4,0.6,9.6   c2.2-2.6,4.3-5.2,6.3-7.9L401.5,97.9z"/>
	<path fill="#E35361" d="M386.1,104.5c0.2,2.1-0.4,4.1-0.9,6c-0.3,1.2-0.7,2.4-0.8,3.7c-0.1,1-0.2,1.7,0.5,2.3   c0.4,0.4,0.6,0.2,1-0.1c0.1-0.1,0.2-0.2,0.3-0.3c0-0.8,0.1-1.9,1.4-2.7l0.4-0.3l0.1,0.5c0,0.1,0,0.3,0,0.4c0.1,0.9,0.2,1.7-0.7,2.4   c-0.3,1-0.8,1.9-1.2,2.9c-0.2,0.5-0.5,1-0.7,1.5c1.9-1.8,3.7-3.7,5.5-5.6c-0.1-2.1-0.5-4.2-1.1-6.3c-0.3-1.1,0-2,0.3-2.9   c0.1-0.4,0.3-0.9,0.3-1.3c0.5-3.6,0.4-6.8-0.4-10.2c-0.3-1.5-0.5-3-0.5-4.5h-3.2C386,94.7,385.7,99.7,386.1,104.5z"/>
	<path fill="#E35361" d="M353.7,98.9l-2.6,3.2c-2,2.5-4,5-6,7.5c-0.9,1.1-0.5,2,0,3.4c0.3,0.6,0.5,1.2,0.7,2   c1.3-1.9,2.4-3.7,3.5-5.6c2.1-3.5,4.1-6.9,7-9.5l0.1-0.1l0.1,0c4.6-0.9,5.8-4.5,7-8.3c0.1-0.3,0.2-0.7,0.3-1   c0.1-0.2,0.1-0.4,0.1-0.5h-8.1C355.3,92.9,354.7,96,353.7,98.9z"/>
	<path fill="#E35361" d="M358.9,101.9c-0.1,0-0.2-0.1-0.3-0.1c-0.3,0-0.7,0.3-1.2,0.8c-1.3,1.4-2.1,3.2-2.8,5   c-0.6,1.4-1.2,2.8-2.1,4.1c-0.2,0.3-0.4,0.6-0.5,0.9c-0.1,0.2-0.2,0.3-0.2,0.4l-2,2l-0.1,0c-0.1,0.1-0.2,0.1-0.2,0.2   c-0.2,0.1-0.4,0.3-0.6,0.4h0c-0.5,0.2-1.6,0.7-1.7,1.3c-0.1,0.3,0,0.6,0.3,1c0.2,0.3,0.5,0.5,0.7,0.6c0.4,0.1,0.9-0.4,1.4-0.8   c0.2-0.2,0.4-0.3,0.6-0.5c0.3-0.2,0.5-0.3,0.8-0.5c0.9-0.5,1.8-1,2.2-2l0.1-0.1c1.8-1.9,2.9-4.3,3.9-6.6c0.6-1.5,1.3-3,2.2-4.4   c0.2-0.3,0.3-0.7,0.2-1.1C359.5,102.4,359.3,102.1,358.9,101.9z"/>
	<path fill="#E35361" d="M345.4,103.9c1.7-2.1,3.3-4.1,4.6-6.2c0.5-0.8,0.7-1.7,0.9-2.7c0.3-1.5,0.6-3,2-4.2   c0.1-0.1,0.1-0.1,0.1-0.1c0-0.1-0.2-0.2-0.3-0.3c-0.1-0.1-0.1-0.1-0.2-0.2c-0.2-0.2-0.4-0.3-1,0.1l-0.2,0.2   c-1.7,1.2-3.4,2.5-3.9,4.5c-0.5,2-1.5,3.3-2.7,4.5c-2.5,2.6-2.6,2.7-1.3,6.8C344.1,105.4,344.7,104.6,345.4,103.9z"/>
	<path fill="#E35361" d="M342.7,97.5c-0.3,0.2-0.6,0.6-0.8,1.2c0,0.1,0.1,0.2,0.1,0.3c0.4,0,0.6-0.3,0.9-0.8   c0.1-0.2,0.3-0.5,0.5-0.7C343.2,97.4,342.9,97.4,342.7,97.5z"/>
	<path fill="#E35361" d="M345.8,91.1c0.5-0.4,1.1-0.8,1.6-1.1h-5.7c-0.3,1.3-0.3,2.6,0.1,4.2C343,93,344.4,92,345.8,91.1z"/>
	<path fill="#E35361" d="M369.8,113.9c0,0-0.1,0-0.1,0c-0.2,0.1-0.4,0.3-0.6,0.6c-0.2,0.4-0.5,0.8-0.8,1.2c-0.5,0.7-1,1.4-1.1,2.3   l0,0.1l-0.1,0.1c-0.1,0.1-0.1,0.2-0.2,0.3c-0.7,0.8-0.9,1.2-0.4,1.7c0.3,0.2,0.5,0.3,0.7,0.3c0.2,0,0.6-0.2,1-1l0.1-0.1   c0.9-0.8,1.3-2,1.7-3.1c0.1-0.3,0.2-0.6,0.3-0.9c0.3-0.8,0.2-1.1-0.2-1.3C370,114,369.9,113.9,369.8,113.9z"/>
</g>
<g>
	<path fill="none" d="M323.9,209.3c-1.9,2.3-0.3,3.2,1.6,3.9c1-0.4,2-0.7,1.7-2.1C326.7,209.3,325.4,209.2,323.9,209.3z"/>
	<path fill="none" d="M204,211.9l-0.5,0c-2-0.1-4.1-0.2-6.4,0.4l-0.6,0.1l0.4,0.4c1.9,1.6,3.8,1.5,5.7,1.4c0.6,0,1.2-0.1,1.8-0.1   c0.3,0,0.6-0.1,0.8-0.4c0.2-0.2,0.3-0.6,0.2-0.9C205.4,212.4,204.8,212,204,211.9z"/>
	<path fill="#868686" d="M301.2,213.3c-0.9-0.2-1.6,0.4-1.7,1.2c0,0.2,0,0.4,0,0.5h3.1c0-0.1,0-0.1,0-0.2   C302.6,213.9,302,213.4,301.2,213.3z"/>
	<path fill="#868686" d="M337.2,199.3c0.6,0.4,0.9,0.7,1.2,0.9c1,0.5,1.8,0,1.5-0.9C339.8,198.7,338.6,198.8,337.2,199.3z"/>
	<path fill="#868686" d="M341.8,202.4c-0.2,0.7,0.6,1.1,1.2,1.1c0.9,0.1,1.4-0.4,1.5-1.3c-0.1-0.6,0-1.4-0.8-1.5   C342.5,200.6,342,201.5,341.8,202.4z"/>
	<path fill="#868686" d="M353,212.4c0.4-0.3,0.7-0.7,1.1-1c0.8-0.7,1.8-1.4,0.7-2.5c-1.1-1.2-1.9,0.1-2.6,0.6   c-1.1,0.7-0.4,1.9-0.4,2.9c-0.7,0.8-1.7,1.4-1.1,2.6h2.5C353.5,214.2,353,213.3,353,212.4z"/>
	<path fill="#868686" d="M356.6,207.6c0.3-0.1,0.7-0.6,0.7-0.8c-0.5-1.2-1.3-1.8-2.9-1.2C354.8,206.8,355.3,207.8,356.6,207.6z"/>
	<path fill="#868686" d="M359.6,209.8c0.4,2.8-1.1,3-3.3,2.5c-0.6-0.1-1.4,0.6-2.7,1.2c1,0.5,1.9,1,2.8,1.4h5.1   c0.2-0.3,0.5-0.6,0.9-0.8c-0.9-1.6-1.9-3.2-2.8-4.7C359.5,209.6,359.5,209.7,359.6,209.8z"/>
	<path fill="#868686" d="M334.3,204.5c0.5,0,1.1,0.1,1.2-0.8c-0.2-0.2-0.5-0.6-0.8-0.6c-0.7,0-1.3,0.3-1.4,1   C333.3,204.3,334,204.5,334.3,204.5z"/>
	<path fill="#868686" d="M285.4,215h6.5c-0.9-0.6-1.7-1-2.5-0.9C287.9,214.2,286.5,214.5,285.4,215z"/>
	<path fill="#868686" d="M278.4,213.5c-1.7-0.6-3,0.2-4.2,1.5h4.6C279.1,214.4,278.9,213.6,278.4,213.5z"/>
	<path fill="#868686" d="M295,206.3c0.6-0.3,1.2-0.6,1.9-1c-0.9-0.3-1.5-0.9-2.1-1.3C295,204.8,295,205.5,295,206.3z"/>
	<path fill="#868686" d="M283.9,209.9c0.2,0.1,0.5,0.1,0.7,0.1c0.7,0,1.4,0,1.2-1c-0.1-0.7-0.3-1.3-1.5-1.3c-0.2,0.2-0.7,0.4-1,0.6   C283.6,208.8,283.8,209.2,283.9,209.9C283.9,209.9,283.9,209.9,283.9,209.9z"/>
	<path fill="#868686" d="M315.5,197.6c-1.5-0.3-3-0.7-4.1,0.8C312.8,198.8,314.4,199.9,315.5,197.6z"/>
	<path fill="#868686" d="M329.4,198.3c-1-1.2-2-1.2-3.4-0.2C327.3,199.2,328.2,199.3,329.4,198.3z"/>
	<path fill="#868686" d="M334.4,200.2c-0.4-0.8-0.8-1.7-1.9-1.5c-0.8,0.1-1.6,0.6-1.2,1.6c0.3,0.9,1,1.6,2.1,1.4   C334.1,201.5,334.6,201.1,334.4,200.2z"/>
	<path fill="#868686" d="M298.1,207.7c-0.9,1.3-2.9,1.1-4,2.4c-0.2,0.3,0.9,2.1,1.7,1.2c1.2-1.4,4.1,1.1,4.3-2   C300.2,208.2,299.7,207.5,298.1,207.7z"/>
	<path fill="#868686" d="M311.3,198.4C311.3,198.4,311.4,198.4,311.3,198.4C311.3,198.4,311.3,198.4,311.3,198.4   C311.3,198.4,311.3,198.4,311.3,198.4c-0.1,0-0.1,0-0.1,0C311.2,198.4,311.3,198.4,311.3,198.4L311.3,198.4z"/>
	<path fill="#868686" d="M340.6,212c-1.4,0.7-2.7,1.4-4.1,2.2c-1,0.1-2.1,0.1-3.1,0.2c0,0.2-0.1,0.4-0.1,0.6h10.8   c0.2-0.3,0.3-0.8,0-1.5C343.6,212.2,342.3,211.2,340.6,212z"/>
	<path fill="#868686" d="M324.3,203.8c-0.5,0.7-0.8,1.7-2,1.5c-0.4-1.6-0.2-2.9,1.2-4.2c0.9-0.8,0.6-2.3-0.2-3.3   c-0.3-0.4-1.2-0.6-1.8-0.5c-2,0.1-0.6,1.6-0.7,2.3c-0.1,1.2-1.1,1.7-1.7,2.6c-1.7,0-3.3,0.1-5-0.1c-1.5-0.1-3.1-0.4-3.4,1.4   c-0.2,1.7,1.3,2.3,2.8,2.5c-0.2-2.5,0.9-3.4,3.3-2.5c2.7,0.2,2.4,2.2,2.4,4.1c0.5,0.3,1.1,0.5,1.6,0.8c0.2,1.1,0.5,2.3-0.7,3.1   c-0.5-0.8-0.9-1.6-1.4-2.4c-0.1,0.1-0.2,0.1-0.2,0.2c-2.6,0.6-3.9-0.3-3.8-3c-1.4,1.2-1.9,2.4,0.1,3.6c1.5,0.8,3,1.6,4.5,2.5   c0.7,0.8,1.4,1.7,1.5,2.7h1.9c0.5-0.8,1.6-1.1,2.9-1c0.3,0.3,0.5,0.7,0.6,1h3.4c-0.5-1.4-1.3-2.8,0.5-4.2c0.4-0.3,0.5-1.2,1.3-1   c0.8,0.3,0.8,0.9,0.5,1.6c-0.7,1.6,0.2,2.4,1.6,2.9c-0.5-3,3.1-2.1,3.6-3.6c1.1-3.3,3-2,4.9-1.4c2.1,0.7,4.7,0.9,4.6,4.2   c0,0.5,0.6,1.2,1.4,1.1c0.6-0.1,1.1-0.6,0.9-1c-1.8-3.5,0.6-5.7,2.7-8c-3.4-1.2-3.9,2.5-6.2,2.9c-1.3-2.5-3.4-2.6-5.8-2.4   c-4.3,0.3-8.4,2.8-12.9,1.4c-1.8-1.8-0.9-2.6,1.1-2.9c1,0.7,2.1,1.2,3,0.2c0.4-0.5-0.6-0.9-1.2-1.1   C327.7,201.4,326,201.2,324.3,203.8z M327.2,211.1c0.3,1.4-0.7,1.7-1.7,2.1c-1.9-0.8-3.4-1.6-1.6-3.9   C325.4,209.2,326.7,209.3,327.2,211.1z"/>
	<path fill="#868686" d="M301.3,203.7c-1.6,2.1-0.3,4,1.1,5.8c1.7,2.2,4.1,3.4,6.9,3.3c1.7-0.1,2.2,0.4,1.7,1.9   c-0.1,0.1-0.1,0.3-0.1,0.4h7.1c-2.7-2.2-5.8-3.7-9.3-4.4c-1.3-0.3-2.5-1.5-1.4-3.3c0.5-0.8,1.4-1.8,0-2.6c-1.4-0.8-1.6,0.8-2.3,1.4   c-2.6-0.5-2.1-2.2-1.6-4c2.6,1,2.7-2.4,4.7-2.5c1.1-0.4,2.2-0.8,3.3-1.2c-1.7-0.3-3.3-0.7-4.8,0.5c-1.6,0.5-3.1,0.9-4.7,1.4   c-0.3,0-0.5,0.1-0.8,0.2C299.9,201.7,302.4,202.2,301.3,203.7z"/>
	<path fill="#868686" d="M274.5,170.8c0.9,0.8,1.1,1.9,1.3,3c0.2,1.2,0.4,2.3,1.6,3l0.9,0.5c3.1,1.7,6.1,3.3,9.6,3.7   c-2.5-4.3-5-7.8-7.5-10.9l-0.8,0.2l-0.1-0.1c-0.8-0.6-1.4-1.4-2-2.2c-1.1,0.8-2.3,1.6-3.4,2.3C274.1,170.5,274.3,170.7,274.5,170.8   z"/>
	<path fill="#868686" d="M271.7,179.1c0.5,0.4,0.9,1,1.4,1.5c1.3,1.5,2.5,2.9,4.7,2.6l-0.1-0.5c-0.3-0.9-0.9-1.5-1.5-2.1   c-0.4-0.4-0.7-0.7-1.1-1.2c-0.4-0.5-0.9-1-1.4-1.4c-1.1-1.1-2.3-2.1-2.2-3.9c0-0.8-0.1-1.4-0.4-1.9c-1.2,0.8-2.5,1.6-3.8,2.4   C268.7,176.2,270.2,177.7,271.7,179.1z"/>
	<path fill="#868686" d="M250,186.2c0.1,0,0.2,0.1,0.3,0.1c0.9,0.3,1.3,0.3,1.5-0.2c0.2-0.6-0.5-1-1.2-1.4c0,0,0,0,0,0   c-0.7,0.4-1.3,0.7-2,1.1C249,185.9,249.5,186.1,250,186.2z"/>
	<path fill="#868686" d="M285.6,193.1c-0.1-0.1-0.2-0.1-0.3-0.2c-1.5-1.1-3.1-2.1-4.9-3.3c-5.6-3.6-9.7-7.1-13.1-10.8   c-0.8-0.9-1.8-1.7-2.9-2.5c-1.7,1.1-3.4,2.1-5.1,3.1c1.9,0.6,3.8,1.3,5.5,2.3c0.1,0.1,0.3,0.1,0.4,0.2c0.8,0.4,1.7,0.9,1.6,2.2   l0,0.3l-2.2,0l-1.3-0.3l-0.1,0c-1.2-1-2.6-1.3-4.1-1.6c-0.4-0.1-0.9-0.2-1.3-0.3l-0.1,0c-0.7-0.4-1.4-0.6-2.2-0.5   c-1,0.6-1.9,1.1-2.9,1.7c0.1,0.1,0.2,0.2,0.3,0.2c1.9,1.5,3.7,2.9,6.1,3.2c3.4,0.5,6.9,0.8,9.9,1.2c0.4,0,0.9,0,1.4,0   c0.2,0,0.5,0,0.7,0l0.1,0l0.1,0.1c0.5,0.4,1.1,0.6,1.7,0.8c1.2,0.3,2.5,0.7,3.2,2.4l0.2,0.4l-0.5,0c-2.8-0.1-5.1-0.4-7.3-1   c-2.2-0.7-4.3-0.5-6.6-0.3c-1.7,0.1-3.5,0.3-5.2,0c-4-0.6-7.9-1.6-11.7-2.6c-1.1,0.6-2.3,1.3-3.4,1.9c0.4,0.1,0.7,0.2,1.1,0.3   c4.6,1,9.2,2.2,13.7,3.2l3.1,0.8c0.5,0.1,0.7,0,0.9-0.4l0.2-0.4l1.5,2.2c0.1-0.1,0.2-0.2,0.3-0.2c0.2-0.1,0.3,0,0.5,0   c1,0.7,2.1,1.2,3.2,1.7c2.3,1.1,4.7,2.2,6,4.8l0,0.1l0,0.1c0,0.5-0.1,0.9-0.4,1.2c-0.4,0.2-0.9,0.1-1.3-0.1   c-5.6-2.1-11.9-2.3-18.2-0.6c-5.4,1.4-10.7,2.1-15.2,2.5c-0.6,0.1-1.3,0.1-1.9,0.1c-0.3,0-0.6,0-0.9,0l-0.2,0l-0.1-0.2   c-0.1-0.1-0.4-0.6-0.1-1c0.2-0.4,0.7-0.4,0.9-0.4c0.1,0,0.3,0,0.5-0.1c0.4,0,0.8-0.1,1.2-0.2l0.3-0.1c0.9-0.3,1.3-0.5,1.2-1   c-0.1-0.4-0.2-0.4-0.9-0.4c-0.3,0-0.6,0-0.9-0.1c-0.5-0.2-1.1-0.3-1.7-0.3c-1.2-0.1-2.5-0.2-3.5-1.6l-0.3-0.4l0.5-0.1   c3-0.6,5.5,0.1,8.3,0.9c0.5-0.1,0.9,0.2,1.3,0.4c0.2,0.1,0.3,0.2,0.5,0.2c3.2,0.9,6.5,1.5,9.6,0.1c1.7-0.8,3.4-0.8,5.2-0.9   c1.8-0.1,3.5-0.2,5-1c0.2-0.1,0.4-0.1,0.7-0.2c0.3-0.1,0.6-0.1,0.7-0.3c0,0,0-0.2-0.3-0.6l-0.3-0.1c-3.7-0.6-7.5-1.2-10.9-2.9   c-3.8-0.5-7.4-2-10.8-3.5c-0.3-0.1-0.7-0.3-1-0.4c-1.6,0.9-3.2,1.7-4.8,2.6c0.7,0,1.3-0.1,2-0.1c0.8,0,1.6-0.1,2.5-0.1l0.1,0l0.1,0   c1.7,0.9,3.6,1.2,5.5,1.6c1.3,0.3,2.7,0.5,4,1l0.5,0.2l-0.4,0.4c-1.7,1.4-3.6,1.2-5.5,1c-0.4,0-0.9-0.1-1.3-0.1   c-1.1-0.1-2.1-0.2-3.2-0.3c-2.9-0.3-6-0.7-9,0.3l0,0l0,0c-0.1,0-0.2,0-0.2,0.3l0,0.3l-0.3,0c-1.1,0-2.1-0.1-3.2-0.1   c-3.3,1.7-6.6,3.4-10,5c1.9,0.1,3.8-0.3,5.7-0.7c1.8-0.4,3.8-0.8,5.7-0.7c0.2,0,0.5,0,0.7-0.1c0.6-0.1,1.3-0.2,1.8,0.2   c0.3,0.2,0.4,0.5,0.5,0.9c0.1,0.5,0,0.8-0.3,1.1c-0.4,0.6-1.3,0.7-2,0.7c-0.2,0-0.4,0-0.5,0.1c-5.3,1-10.2,1.4-15,1.2   c-0.5,0-1,0.1-1.6,0.2c-0.2,0-0.4,0.1-0.6,0.1c-0.1,0.2-0.1,0.4,0,0.6c0.1,0.2,0.2,0.3,0.4,0.3c1.4,0.1,2.8,0.5,4.1,0.9   c2.5,0.7,4.8,1.3,7.4,0.5c3.6-1.1,6.8-1.8,10.3-0.7l0.9,0.3L220,212l-0.1,0c-1.3-0.3-2.5-0.1-3.8,0.2c-0.3,0.1-0.5,0.1-0.8,0.2   l-0.2,0c-0.6,0.1-1.3,0.3-1.7-0.2c-0.2-0.2-0.3-0.6-0.2-1c0.1-0.4,0-0.7-0.1-0.9c-0.1-0.2-0.5-0.2-0.8-0.2c-0.2,0-0.3,0-0.5,0   c-0.7-0.1-1.4-0.2-2.1-0.3c-1.9-0.3-3.9-0.6-5.8-0.5c-0.3,0-0.7,0-1,0c-3.8,1.8-7.5,3.6-11.3,5.4c0.8,0.1,1.5,0.2,2.3,0.3h11.2   c0-0.1,0-0.2,0-0.3c0.1-0.4,0.5-0.6,1-0.7c0.2-0.1,0.5-0.2,0.7-0.3l0.1-0.1l0.1,0c0.3,0,0.5,0,0.8,0c1.4-0.1,2.9-0.2,4,1.4h21.1   c1.1-0.4,2.2-0.9,3.2-1.4c1.7-0.8,3.6-1.7,5.6-2c0.5-0.1,1-0.1,1.6-0.1c1.1,0,2.2-0.1,3.1-0.8c3.1-2.6,6.5-1.4,8.7-0.3   c2.2,1.1,4.2,1.5,6.3,1.3c1.3-0.1,2.5,0,3.7,0.1c0.5,0,1,0.1,1.5,0.1c3.9,0.2,7.5,0,10.9-0.6c2.2-0.4,4.6,0.1,6.9,0.6   c1.1,0.2,2.2,0.5,3.3,0.6c0.6,0.1,1.6,0,1.7-0.6c0-0.2,0-0.3-0.1-0.4c-0.1-0.2-0.6-0.2-0.9-0.2c-0.2,0-0.4,0-0.6-0.1   c-0.4-0.1-0.8-0.1-1.2-0.1c-1.1-0.1-2.4-0.2-2.7-1.1c0,0,0,0,0-0.1c-0.1-0.7-0.3-1.1-0.6-1.4c-0.5-0.5-1.2-0.6-2-0.6   c-0.5,0-0.9,0-1.4-0.2c-1.5-0.4-2.9-0.2-4.4,0.1c-1.3,0.2-2.7,0.4-4.1,0.2l-1-0.1c-4.6-0.7-9.4-1.3-14.2-1.1c-0.3,0-0.7,0.1-1,0.1   c-1.9,0.2-4.3,0.4-6.6-1.5l-0.6-0.5l1.6-0.2c5.4-0.7,10-1.3,14.9-1l0.1,0l0.1,0.1c0.2,0.3,0.4,0.2,0.8,0.2c0.1,0,0.2,0,0.3,0l0.1,0   l0.1,0c2.3,1.1,5.4,2,6.3,0.9c2.1-2.5,4-1.7,5.6-1c0.5,0.2,1,0.5,1.6,0.6c0.5,0.1,1,0.2,1.6,0.2c1.5,0.1,3.3,0.3,4.1,1.9   c0.8,1.5,1.7,1.5,2.9,1.1c1.6-0.5,3.2-0.3,4.7,0l0.3,0.1c0.2,0,0.4,0.1,0.6,0.2c0.7,0.2,0.8,0.2,0.9-0.1c0.2-0.5,0.3-1.1,0.4-1.7   c0.1-0.7,0-1.5-0.2-2.2c0-0.2-0.1-0.4-0.1-0.6c0,0,0-0.1,0-0.1c-0.1-0.2-0.2-0.4-0.3-0.4c-0.3-0.2-0.9,0.1-1.3,0.2l-0.1,0   c-2.2,0.9-4.3,0.5-6.5,0l-0.6-0.1c-1.7-0.4-3.4-0.9-5.1-1.4c-2.6-0.8-5.2-1.6-7.9-1.9l-0.1,0l-0.1-0.1c-0.3-0.3-0.8-0.9-1.3-1   c-0.7-0.1-1.5-0.4-1.5-0.8c-0.2-1.7-1.1-2-2.3-2.3c-0.4-0.1-0.7-0.2-1.1-0.3c-0.4-0.2-0.9-0.3-1.4-0.4c-1-0.2-2.1-0.4-2.9-1.3   l-0.2-0.2l0.1-0.2c0.5-0.7,1.2-0.8,1.8-0.9c0.2,0,0.5-0.1,0.7-0.2l0.1,0l0.1,0c1.2,0.2,2.4,0.5,3.7,0.7c2.7,0.5,5.6,1.1,8.3,1.7   l0.8,0.2c3.8,0.9,7.3,1.8,11.1,0.2c0.7-0.3,1.7-0.1,2.6,0.7c0.6,0.5,1.3,0.9,2.1,1.4c0.2,0.1,0.4,0.3,0.6,0.4   c-0.8-2.5-2.5-4-4.2-5.5c-1.3-1.1-2.5-2.2-3.3-3.7l-0.1-0.2l0.2-0.2c1.6-1.5,3.1-0.6,4.6,0.5c0-0.2-0.1-0.4-0.1-0.6   c-0.1-0.5-0.3-1.3-0.5-1.3c-1.4-0.5-2.6-1.3-3.8-2.1c-1.6-1.1-3.4-2.2-5.5-2.5c-1.5-0.2-2.1,0.3-3,1.1l-0.4,0.3c0.1,0,0.2,0,0.3,0   l0.2,0l0.1,0.2c0.7,1.7,2.1,2.7,3.8,3.7c1.9,1.2,3.5,2.5,4.8,4c0.4,0.4,1.2,1.4,0.2,2.3C286.6,193.9,286,193.4,285.6,193.1z    M205.3,213.8c-0.2,0.2-0.5,0.4-0.8,0.4c-0.6,0-1.2,0-1.8,0.1c-1.9,0.1-3.8,0.3-5.7-1.4l-0.4-0.4l0.6-0.1c2.3-0.6,4.4-0.5,6.4-0.4   l0.5,0c0.8,0,1.3,0.4,1.5,1C205.6,213.3,205.5,213.6,205.3,213.8z"/>
	<path fill="#868686" d="M263.5,214.5c-0.1-0.3-0.2-0.3-0.8-0.2c-0.2,0-0.3,0.1-0.4,0.1c-1.3,0-2.6-0.7-3.9-0.4   c-1.6,0.3-1.9-0.1-1.9-0.1c-1.3-1.3-2.8-1.6-4.7-0.9c-1,0.3-2,0.7-2.9,1.1c-0.7,0.3-1.5,0.6-2.2,1h16.8   C263.5,214.9,263.6,214.7,263.5,214.5C263.5,214.5,263.5,214.5,263.5,214.5z"/>
	<path fill="#868686" d="M292.9,199.7c-1.1-1.4-5.7-2.6-7.6-1.9c-0.1,0.1-0.3,0.1-0.4,0.1c-0.5,0.2-0.7,0.3-0.8,0.6   c0,0.3,0,0.6,0.2,0.8c0.2,0.2,0.4,0.3,0.7,0.4c1,0.2,2,0.4,2.9,0.7c1.5,0.4,2.9,0.8,4.4,0.8c0.8,0,1.1-0.1,1.2-0.5   C293.6,200.5,293.2,200,292.9,199.7L292.9,199.7z"/>
</g>
<g>
	<path fill="none" d="M353.2,274.1c0,0-0.1,0-0.1,0c0,0,0,0.1,0,0.1C353,274.2,353.2,274.1,353.2,274.1z"/>
	<path fill="none" d="M267.5,252.8c-1.2-0.4-2.4-1.5-3.6-0.3c-0.9,0.9-0.3,1.9,0.5,2.7C265.9,255,267.7,255.1,267.5,252.8z"/>
	<path fill="none" d="M290.8,273.8C290.8,273.8,290.8,273.8,290.8,273.8c0.1,0,0.1-0.1,0.1-0.1C290.9,273.7,290.8,273.8,290.8,273.8   z"/>
	<path fill="none" d="M258,251.2c-1.1,0.2-1.8,1.3-1.6,2.4c0.3,1.9,1.8,1.9,3.3,1.6c0.3-0.5,0.7-1.1,1-1.6   C260.7,251.8,259.8,250.9,258,251.2z"/>
	<path fill="none" d="M280.1,260.5c-2.2-3-2.8,0.1-4,0.9c-0.2,2.5,2.1,2.3,3.4,3.2c2.7-0.1,4.1-1.1,3.1-4   C281.8,260.6,280.5,260.9,280.1,260.5z"/>
	<path fill="none" d="M280.9,268.6c-1.2,0-2,0.4-2.2,1.7c-0.1,1.2,0.4,2.1,1.6,2.2c1.4,0.2,2.2-0.6,2.3-1.3   C282.8,269.2,282.2,268.6,280.9,268.6z"/>
	<path fill="none" d="M336.9,254.4c1.7-2,1.8-4,1.2-6.3l-3.2-1.8c-1,0.4-2.1,0.7-3.1,1.1c-0.4,1.3-1.7,2.3-1.6,3.8   c1.2,1.6,2.7,2.9,4.7,3.4C335.6,254.5,336.1,255.3,336.9,254.4z"/>
	<path fill="none" d="M352.1,268.5c-1-0.3-2.2-0.2-2.7,0.9c-0.7,1.6,0.3,2.7,1.2,3.8c0.6,0.7,1.5,0.8,2.4,0.8   c0.1-0.7,0.2-1.5,0.2-2.2C353.2,270.6,353.9,269.1,352.1,268.5z"/>
	<path fill="none" d="M261.3,245c0.2,0.2,0.4,0.2,0.6,0.3C261.7,245.2,261.5,245.1,261.3,245z"/>
	<path fill="none" d="M289,249.5c-0.1,0.2-0.2,0.3-0.3,0.4C288.8,249.9,288.9,249.7,289,249.5z"/>
	<path fill="none" d="M292.2,255.5c1.4-1.1,0.4-2.3-0.1-3.4c-1.9,0.1-4.2-0.8-4.7,2.2C289.2,254.3,290.2,257.2,292.2,255.5z"/>
	<path fill="none" d="M359.8,268.5c1.1-0.5,2.4-0.9,2.3-2.4c-0.1-1-0.7-1.7-1.8-1.6c-1.3,0.1-2.4,0.7-2.5,2.1   C357.8,267.6,358.9,268.2,359.8,268.5z"/>
	<path fill="none" d="M335,258.3c-0.1,0.3-0.1,0.5-0.2,0.8c0.4,0.7,1,0.9,1.8,0.9c0.1-0.2,0.3-0.3,0.5-0.3c0-0.2,0-0.3,0-0.5   C336.5,258.6,335.9,258.1,335,258.3z"/>
	<path fill="none" d="M341.3,263.9c-0.2-2.8-1.9-2.6-3.9-2c-0.8,0.9-0.3,1.8-0.1,2.7C339,265.7,340.2,265.1,341.3,263.9z"/>
	<path fill="#258DC7" d="M270.1,257.4c0.1,0.9,0.7,1.7,1.8,1.6c1.2-0.1,1.8-0.8,1.9-2c-0.3-1.1-1-1.6-2-1.4   C270.9,255.8,270,256.4,270.1,257.4z"/>
	<path fill="#258DC7" d="M319.3,249.5c-0.2,1,0.6,1.4,1.4,1.5c1.2,0.2,1.9-0.5,2.3-1.5c0.1-1.1-0.5-1.4-1.4-1.5   C320.4,247.9,319.5,248.3,319.3,249.5z"/>
	<path fill="#258DC7" d="M295.9,269.4c1.8-0.8,0.8-2.9,1.7-4.3c0.4-0.7-0.2-1.7-1.6-2c-1.6,1.1-0.7,3.3-1.6,4.8   C293.9,268.9,295.1,269.8,295.9,269.4z"/>
	<path fill="#258DC7" d="M272.5,245.7c-0.9,0.1-1.4,0.7-1.5,1.5c-0.2,1.1,0.6,1.7,1.5,1.8c1.2,0.2,1.5-0.7,1.6-1.7   C274,246.3,273.6,245.7,272.5,245.7z"/>
	<path fill="#258DC7" d="M318.8,237.4h-2.7c0.2,0.5,0.6,0.9,1.5,0.6C318.1,237.9,318.5,237.8,318.8,237.4z"/>
	<path fill="#258DC7" d="M315.2,242.4c0.8,0.7,1.7,1,2.4,0.2c0.7-0.8-0.3-1.3-0.8-1.7c-0.7-1.5-2.2-2.5-3.3-1.1   C312.2,241.2,314.2,241.7,315.2,242.4z"/>
	<path fill="#258DC7" d="M308,255.1c1-0.3,1.6-1,1.7-1.9c0-1-0.6-1.8-1.7-1.8c-1.1,0-1.6,0.9-1.6,1.8   C306.5,254,306.9,254.9,308,255.1z"/>
	<path fill="#258DC7" d="M285.8,240.8c0.8,0.5,2,0.1,3.1,0.2c0.5,0.9,2.3,1.2,0.9,2.8c-0.9,1-1.7,1.3-3,0.5   c-1.1-0.6-2.7-1.2-2.3,1.3c0.2,0.9-0.2,1.2-1.1,1.1c-0.9-0.1-2-0.7-2.1,0.8c-0.1,1.1,1.2,1.1,2,1.5c0.7,0.4,1.2,1,1.8,1.5   c-0.1,0.9,0,1.8,0.7,2.5c-0.1,1.2,0.8,1.9,1.4,2.8c0,0.1,0.1,0.3,0.2,0.4c-0.2,1.4,0.1,2.6,1.8,2.3c1.8-0.4,2.4,0,2.3,1.8   c-0.1,1.2,0.3,2.2,1.7,2c1.6-0.2,1.1-1.3,1.2-2.4c0-1.6-0.5-4,2.5-3.2c-1.2-2.4-0.7-4.3,1.8-5.5c-0.9-0.6-1.7-1.2-2.6-1.7   c-1.4,0.3-2,2.6-3.9,1.7c-0.6-1.5,1.3-1.3,1.5-2.3c-1.8-1.1-3.6-2.2-4.8,0.7c-0.1,0.2-0.2,0.3-0.3,0.4c0.1-0.1,0.2-0.3,0.3-0.4   c-0.5,0-1.1,0.1-1.6,0.1c-0.8-1-1.3-2.5,0.2-2.8c2.2-0.4,3.8-2.2,6.1-2c0.4,0.3,0.9,0.8,1.1,0.8c0.9-0.6,0.1-1.4,0.2-2.1   c0-0.1,0-0.1,0.1-0.2c-0.2-1.5-1.5-0.9-2.1-0.7c-2.2,0.8-1.5-0.7-1.6-1.7c1.3-0.4,2.3-1.8,3.8-1.6c2,0.2,2.5-0.6,2.5-1.9h-5.3   c-1.1,2.3-4.4-0.1-6.1,0.9c-0.3,0.2-0.8-0.6-1.2-0.9h-0.6c-0.1,0.1-0.3,0.3-0.4,0.7C283.8,238.8,285,240.3,285.8,240.8z M292.2,252   c0.5,1.1,1.5,2.3,0.1,3.4c-2.1,1.7-3.1-1.2-4.8-1.2C288,251.3,290.3,252.2,292.2,252z"/>
	<path fill="#258DC7" d="M278.7,247c0.6,0.1,0.9-0.3,1.1-1.1c-0.2-0.2-0.5-0.7-0.9-0.8c-0.6-0.2-1,0.1-1,0.8   C277.9,246.4,278.1,246.9,278.7,247z"/>
	<path fill="#258DC7" d="M302.5,239.1c1,0,1.5-0.8,1.7-1.7h-4C300.5,238.5,301.4,239.1,302.5,239.1z"/>
	<path fill="#258DC7" d="M301.2,247.8c1.5,0.1,2.3-1,2.6-2.5c-0.4-1.3-0.4-2.9-2.4-2.8c-1.8,0-2.7,1-2.8,2.6   C298.5,246.8,299.7,247.7,301.2,247.8z"/>
	<path fill="#258DC7" d="M276.3,250.2c-1.3-1.4-2.1,0.3-2.7,0.9c-0.6,0.6-1.5,1.5-0.9,2.4c0.9,1.4,1.7-0.2,2.6-0.3   c0.9-0.2,1.8-0.2,2.7-0.3c1.4,1.6,3,1.1,3.8-0.4c0.6-1.1-0.3-2.8-1.2-3.3c-1.1-0.6-1.6,0.8-1.8,1.8   C277.6,251.3,277,250.9,276.3,250.2z"/>
	<path fill="#258DC7" d="M323.2,238.5c-0.4-0.6-1.1-0.7-1.7-0.2c-2.1,2,0.8,3.4,0.7,5.3C323.8,242,324.6,240.4,323.2,238.5z"/>
	<path fill="#258DC7" d="M325.5,246.5c0.6,0.8,1.6,0.6,2.3-0.3c1.1-1.6,0-2.5-1.3-3.5C325.9,244.1,324.4,245,325.5,246.5z"/>
	<path fill="#258DC7" d="M303.3,252.2c0,0.5,0.1,1.1,0.8,1c0.7-0.1,1-0.7,1.2-1.3c0-0.6-0.4-1-0.9-0.9   C303.7,250.9,303.3,251.4,303.3,252.2z"/>
	<path fill="#258DC7" d="M348.6,277.4c-0.5,0-0.8,0.2-1,0.5h2C349.5,277.6,349.1,277.4,348.6,277.4z"/>
	<path fill="#258DC7" d="M265.2,263.6c0-0.7-0.2-1.2-1-1.3c-0.7,0-1.2,0.3-1.3,1c-0.1,0.8,0.2,1.2,1,1.2   C264.7,264.7,265.2,264.4,265.2,263.6z"/>
	<path fill="#258DC7" d="M297,277.8h0.8c0-0.4-0.1-0.8-0.1-1.2C297.3,277,297.1,277.4,297,277.8z"/>
	<path fill="#258DC7" d="M341.3,271.8c1.7,0.1,2.5-0.7,2.3-2.3c-0.9,0.7-1.9,1.1-3.1,0.5c-0.1-1-0.4-2.3,0.8-2.6   c1.4-0.4,1.6,1.2,2.2,1.9c1-0.9,4.1-1.3,0.7-3.2c-1.6-0.9,0.8-2,0-3l-1.5,0c-0.8-1.4-0.5-2.5,0.8-2.9c-0.7,0.2-1.4,0.2-2.3,0.1   c-1.2,0-2.4,0.3-3.5-0.5c-1.2-4,0.6-7.6,2.2-11.1c0.7-1.5,1.6-3.2,2.8-4.6c-1.5-0.1-1.1-2.3-2.7-2.5c-0.8,1.1-0.5,2.1,0.1,3.1   c0.7,1.4,0.2,2.2-1.3,2.5c-1-1.5-2.4-2.8-1.2-4.8c0.6-1.1-0.2-1.8-1-2.1c-1.1-0.3-2.1,0.4-2.3,1.5c-0.1,0.9,0.3,2,0.5,3   c-1.3,0.7-3.4-0.7-4,1.6c-1.9,0.2-2.9,1.1-2.2,3.2c0,1.1-0.2,2.3,0.7,3.2c-1.4,1.4-3.3,1-4.7,0.6c-2-0.7-3.7-0.8-5.6,0.2   c-2-1.3-4.8-2.4-2.4-5.6c0.8-0.7,1.5-1.7,0.2-2.3c-0.8-0.4-1,0.8-0.9,1.6c-1.7,1.7-3-0.2-4.5-0.6c-1.4-0.3-2.8,0.2-3-2.1   c-0.1-2.9,2.3-1.3,3.5-1.9c-1.8-2.3-2.1-2.6-2.3-5.2h-3c-0.1,0.3-0.2,0.7-0.2,1.1c0,2.4,0.8,4.8,0.5,7.1c-0.3,2.2,0.3,3,2.5,3.4   c3.5,0.7,4,2.5,1.7,5.2c-0.7,0.9-1.7,1.5-2.6,2.3c-0.7,0.2-1.6,0.2-2.2,0.5c-3.5,2-4.1,1.7-4.2-2.4c0-1.5-1.1-1.9-2.3-2.1   c0.4,2.4-0.4,4-3.1,4.1c0.5,2,1.7,3.7,3.3,5c0.6,0.5,1.5,1.1,0.7,1.8c-1.6,1.5-1.2,3.7-2,5.4c-0.8,1.9-1,3.7-4,2.2   c-1.5-0.8-4.4-1-4.2,2.4c-1.1-0.1-2.2-0.1-3.4-0.2c-2-2-0.6-2.9,1-4.1c1.7-1.3,3.9-2.7,2-5.5c-0.1-0.9-0.7-1.6-1.4-1.3   c-0.8,0.4,0,1.3,0.1,2c-0.4,0.6-0.8,1.3-1.3,1.9c-0.6,0.7-0.5,2.8-2.3,1.6c-1.1-0.7-1.9-1.8-1.2-3.3c0.2-0.5,0.5-0.9,0.7-1.3   c0.9-2,0.5-3.3-1.9-3.5c-1-1.3-0.1-2.1,0.7-3c0.7-0.8,0.7-2.2-0.5-2c-2.6,0.4-5.2,0.9-7.5,2.1c-1.3,0.7-0.3,2.9-0.3,4.5   c-0.5,0.4-0.9,0.9-1.4,1.3c-1.3,1-4.3,1.5-2.8,3.6c1.1,1.5,3.5,0,5-1.1c0.2-0.1,0.4-0.4,0.6-0.5c1.1,2.4,0.3,3.8-2.3,4.1   c-2.7,0.4-1.4,3-2,4.4c-0.8,1.7,1.9,0.5,2.9,1.2c-0.1,0.2-0.1,0.3-0.1,0.5c0,0,0,0,0,0c0,0,0,0,0,0c-0.2,0.4-0.5,0.9-0.7,1.3   c-2.1-0.1-4.4-1.3-6.2,1c-0.3,0.2-0.4,0.3-0.5,0.5h13.1c0.2-0.9,1.1-1.8,0.8-2.8c-0.2-0.8,0.7-1,1.4-0.8c1.5,0.3,0.6,1.8,1.1,2.6   c0.1,0.1,0.4,0.1,0.7,0.2c0.4-1.2,1-2.4,2.2-3c1.4,0.5,1.1,1.5,1.4,2.7c0.1,0.3,0.2,0.7,0.2,1.1h3.5c-0.8-1.3-2.3-2.2-1.8-4   c0,0,0,0-0.1,0c0,0,0.1-0.1,0.1-0.1c0,0,0,0.1,0,0.1c2.1,0.1,4.4-0.1,6,1.9c0.4-1.4,1.6-1.3,1.6-0.2c-0.1,1,0.3,1.7,0.8,2.4h3   c-1.7-7.5,0.8-13.7,6.7-18.7c3.1-2.2,6.6-3.3,10.3-4c5.4,0.2,10.1,2.1,14.1,5.6c1.1,1.6,2.2,3.2,3.3,4.7c0.3,2.1,1.5,3.8,1.7,6   c0.3,2.3,0.1,4.4-0.3,6.4h5.9C344.5,275.2,342.1,273.8,341.3,271.8z M282.6,271.2c-0.1,0.7-0.9,1.5-2.3,1.3c-1.2-0.1-1.8-1-1.6-2.2   c0.1-1.3,1-1.8,2.2-1.7C282.2,268.6,282.8,269.2,282.6,271.2z M279.6,264.6c-1.3-0.8-3.7-0.6-3.4-3.2c1.2-0.8,1.8-3.9,4-0.9   c0.3,0.4,1.7,0.1,2.6,0.1C283.7,263.5,282.3,264.5,279.6,264.6z M330.3,251.1c-0.1-1.5,1.1-2.5,1.6-3.8c1-0.4,2.1-0.7,3.1-1.1   l3.2,1.8c0.6,2.3,0.5,4.4-1.2,6.3c-0.8,1-1.3,0.2-1.9,0.2C332.9,254,331.5,252.7,330.3,251.1z M336.6,260c-0.7,0-1.4-0.2-1.8-0.9   c0.1-0.3,0.1-0.5,0.2-0.8c0.9-0.3,1.5,0.2,2,0.9c0,0.2,0,0.3,0,0.5C336.8,259.7,336.7,259.8,336.6,260z M337.4,264.6   c-0.2-0.9-0.7-1.9,0.1-2.7c1.9-0.6,3.7-0.8,3.9,2C340.2,265.1,339,265.7,337.4,264.6z"/>
	<path fill="#258DC7" d="M364,241.9c0.1-2-3.4-0.3-3.6-2.7c-0.1-0.8-0.4-1.4-0.8-1.7h-4c-1.6,0.6-2.5,1.9-3,3.5   c-0.6,2.3,0.6,4,2.7,5c2.1,1,4,0.8,4.9-1.5C360.9,242.5,363.9,243.8,364,241.9z"/>
	<path fill="#258DC7" d="M355.2,258.7c-1.5,0.2-1.9,1.5-2.1,2.8c-0.1,0.9,0.2,1.7,1.2,1.6c1.6-0.1,2.1-1.3,2.1-2.7   C356.4,259.5,356.1,258.6,355.2,258.7z"/>
	<path fill="#258DC7" d="M362.1,250.4c1.2,0.1,1.6-0.5,1.9-1.9c-0.2-0.4-0.2-1.2-1.3-1.3c-1.3-0.1-2,0.5-2.1,1.7   C360.5,249.8,361.2,250.3,362.1,250.4z"/>
	<path fill="#258DC7" d="M365.8,246.1c-0.1,1.6,0.8,2.6,2.2,2.5c1.5-0.1,2.6-1,2.7-2.8c-0.3-1.6-1.3-2.7-2.9-2.6   C366.3,243.4,365.9,244.7,365.8,246.1z"/>
	<path fill="#258DC7" d="M365,237.4c0.3,0.6,0.7,1.2,1,1.9c0.5,0.9,0.9,2.1,2.2,1.2c1.7-1.2,3.8-0.8,5.6-1.4c0.2,0,0.3,0.1,0.4,0.1   c-0.2-0.6-0.4-1.2-0.6-1.8h-0.6c-0.1,0.5-0.2,1-0.9,0.9c-0.6-0.1-0.7-0.5-0.7-0.9H365z"/>
	<path fill="#258DC7" d="M375.8,243.9c-0.2-0.5-0.3-1-0.5-1.5c-0.3,0.5-0.6,1-0.8,1.5C374.9,244,375.4,244,375.8,243.9z"/>
	<path fill="#258DC7" d="M360.2,252.4c0.1-1.2-0.9-1.5-1.8-1.7c-0.8-0.2-1.6-0.1-2.3-0.2c-6.1-1-9.2-7.3-6.1-12.7   c0.1-0.1,0.1-0.2,0.2-0.3h-4.7c-0.4,0.6-1.2,1-2.6,1.3c-1.6,0.2-1,1.8,0.4,2.3c1.6,0.5,2.6,1.2,1.8,3c1.4,2.8,1.8,6.4,5.8,7.1   c0.8,1.2,0.3,1.9-0.9,2.4c-1.1,0.4-2.2,0.9-2.9,1.8c-0.5,0.4-1.2,0.8-1.2,1.5c0,1.9-0.7,2.8-1.8,3.1c1.4-0.3,2,0.7,2.1,2   c1.6,0.5,2.8,0,3.4-1.5c0.8-1.9-0.5-2-1.8-2.5c-1.8-0.7-0.1-1.9-0.2-2.9c0.9-0.6,1.9-0.9,3-0.7c0.4,1.3,0.2,3,2.2,3.2   c2,0.1,1.7-1.4,2-2.7c0.5-1.9,1.9-1.3,3.2-1.1C359.1,254,360.1,253.8,360.2,252.4z"/>
	<path fill="#258DC7" d="M366.9,277.2c-0.6-3.3-3.8-4.7-6.6-2.9c-1.4-0.7-3.2-1.6-2.5-3.3c0.8-1.7,2.5-0.6,3.8-0.1   c1.4,0.5,2.9-0.4,2.8-1.2c-0.3-2.4,0.5-5.4-2.4-7c-2.1-1.2-3.8-1.7-5,1.1c-1.2,3.1-3.1,3.6-5.6,1.3c-0.8-0.7-2-0.9-2.4,0   c-1.2,2.7-2.5,5.5-2.9,8.4c-0.4,2.6,3,1.3,4,2.8c0.7,1,2.1,1.5,3.2,0.9c1.4-0.8-0.8-1.9-0.3-2.9c2.3-0.4,3.9,2.3,6.4,1.6   c1.1,1.1,2.7,1.3,3.9,2.1h3.4C366.9,277.6,366.9,277.4,366.9,277.2z M360.3,264.4c1.1-0.1,1.7,0.6,1.8,1.6c0.1,1.5-1.1,1.9-2.3,2.4   c-1-0.3-2-0.9-2-2C357.9,265.1,359,264.5,360.3,264.4z M353.2,271.8c0,0.7-0.1,1.5-0.2,2.2c0,0,0.1,0,0.1,0c0,0-0.1,0.1-0.1,0.1   c0,0,0-0.1,0-0.1c-0.9,0-1.8,0-2.4-0.8c-0.9-1.1-1.9-2.3-1.2-3.8c0.5-1.2,1.7-1.3,2.7-0.9C353.9,269.1,353.2,270.6,353.2,271.8z"/>
	<path fill="#258DC7" d="M315,273.5c0.1-3.2,2-4.8,5-4.9c3.1-0.1,5.1,2.1,5,5.3c0,1.7-0.7,3.1-1.8,3.9h10.4c0.2-1.3,0.2-2.6,0.3-3.8   c0.9-7.5-5.7-14.3-13.5-14.9c-6.5-0.5-14,5.9-14.8,12.7c-0.3,2.5-0.3,5,2.2,5.9h8.9C315.6,276.9,315,275.4,315,273.5z"/>
	<path fill="#258DC7" d="M262.1,269c1,1.4,2.6,2.3,4,3.4c0.4,0.3,1-0.2,1.2-0.7c0.2-0.7-3.1-4.8-3.8-4.8   C262.3,267.1,261.4,268,262.1,269z"/>
	<path fill="#258DC7" d="M365.7,254.5c4,1.1,6.3-1.2,8.9-3.3h0c0.8,0.3,1.5,1,2.5,0.1c0.2-0.2,0.4-0.4,0.6-0.6   c-0.3-1.4-0.7-2.7-1.1-4.1c-0.6,1.1-1.1,2.3-2,3.1c-3.4,1.7-6.8,3.4-10.9,3.3c-1.3,0-3.2,0.7-2.4,3c0.1,1.4-0.6,3.2,1.5,3.7   c1.4,0.5,3.1,0.5,3.2,2.6c0,1.5-0.9,3.6,0.2,4.4c1.6,1.1,2.2-1.7,3.7-1.9c0.3,0,0.5-0.1,0.7-0.2c1.7,0.9,3.4,1.7,0.6,3.4   c-0.7,0.4-1,1.4-1.5,2.2c-0.7,0.4-2.3,0.1-2,1.2c0.2,0.9,1.4,0.7,2.1-0.2c2.8-0.7,3.7-3.4,5.5-5.1c0.7-0.3,1.2-0.9,0.9-1.5   c-0.5-1-1.6-0.4-2.4-0.5c-0.8-0.4-1.6-0.8-2.4-1.2c-0.3,0.2-0.6,0.4-1,0.6c-3,1.2-3.5,0.8-3.1-2.8c2.1-2.1,3.3,0.4,4.8,1   c3.1-0.8,1-4.2,3.8-5.7c-5-0.3-7.8,3.3-11.6,3.2c-0.5-0.6-1.6-0.6-1.7-1.6C364.2,257,363.7,254,365.7,254.5z"/>
	<path fill="#258DC7" d="M379.3,260.3c-0.1-1.3-0.3-2.6-0.5-3.9c-0.1,0.1-0.1,0.3-0.2,0.5c-0.4,1.4-2.6,2.8-1.1,4.1   C378.4,261.7,378.8,261,379.3,260.3z"/>
	<path fill="#258DC7" d="M379.6,267.8c0-0.6,0-1.1,0-1.7c0-0.5,0-0.9,0-1.4c-0.1,0-0.3,0-0.4,0c-0.9,0.1-1.4,0.7-1.3,1.6   C378,267.3,378.7,267.7,379.6,267.8z"/>
	<path fill="#258DC7" d="M252.6,259.3c-0.1,1,0.5,1.4,1.5,1.3c0.9-0.1,1.3-0.8,1.4-1.5c-0.1-0.8-0.4-1.5-1.1-1.5   C253.3,257.6,252.7,258.3,252.6,259.3z"/>
	<path fill="#258DC7" d="M264,241c-0.4-2.4-2.9-1.2-4.1-2.2c-0.1-0.1-0.4,0.1-1.3,0.4c1.5,1.7,2.9,2.6,4.8,2.6   C263.6,241.8,264,241.2,264,241z"/>
	<path fill="#258DC7" d="M267.4,241.6c-2.1,1.1-3.1,4-6.1,3.4c0.2,0.1,0.4,0.2,0.6,0.3c-0.2,0-0.5-0.1-0.6-0.3   c-1.7,0.2-2.5-1.6-4.1-1.7c-0.3-0.8-0.6-1.5-1-2.5c-0.8,1.4-1.4,2.5,0.4,3.2c0.4,2,4.4,2.5,2.3,5.6c-0.5,0-1.3,0.2-1.5-0.1   c-3.7-4.1-4.2-2-4.1,1.9c0,0.7-0.6,1.4-0.9,2.1c-0.6,1.1-0.8,2,0.8,2.3c3.4,0.5,4.8,2.7,5.1,5.9c0.1,0.7,0.2,1.4,1,1.4   c0.8,0,1.5-0.4,2-1.1c0.5-0.7,0.2-1.3-0.4-1.7c-2.3-1.4-0.9-2.5,0.3-3.6c0.7-0.2,1.4-0.4,2.1-0.6c3.6,2.4,3.7,2.3,5.9-2.5   c1.3-0.8-0.1-1.6,0.1-2.3c0.5-2.8,1.2-5.3-2.5-1.6c-1.4,1.4-3.4,0.6-4.4-0.9c-1.2-1.9,1.1-1.8,2-2.4c3.2,0.2,4.1-2.2,5-4.5   c6.4,2.5,6.4,2.5,8.6-3c1.6-0.3,1.7,0.9,1.9,1.9c0.6,2.4,1.8,2.3,4,1.1c-1.7-1-2.1-2.6-2.6-4.2h-6c0.5,0.3,0.8,0.9,1,1.6   c-0.4,1.3-1.1,2.3-2.5,2.6c-1.6,0.3-2-0.8-2.2-2.1c-0.1-0.9,0.1-1.7,0.6-2.1h-2C269.1,238.6,268.2,240,267.4,241.6z M259.7,255.2   c-1.5,0.4-3,0.4-3.3-1.6c-0.2-1.1,0.5-2.1,1.6-2.4c1.8-0.4,2.7,0.5,2.7,2.3C260.4,254.1,260,254.6,259.7,255.2z M264,252.5   c1.2-1.2,2.4-0.1,3.6,0.3c0.1,2.3-1.6,2.2-3.1,2.4C263.6,254.4,263.1,253.4,264,252.5z"/>
	<path fill="#258DC7" d="M264.9,238.2c0-0.3,0.1-0.5,0.1-0.7h-1.1C264.2,237.6,264.5,237.9,264.9,238.2z"/>
	<path fill="#258DC7" d="M327.3,239.3c0.7,0.8,1.3,1.6,2,2.3c1.4,1.5,3.2,1.1,3.1-0.7c-0.1-2.6-2.9-1-3.8-2.4   c-0.2-0.4-0.4-0.7-0.6-1.1h-2.3C326.3,238,326.9,238.6,327.3,239.3z"/>
	<path fill="#258DC7" d="M252,262.4c-0.6-0.1-1,0.2-1,0.8c0,0.4,0.2,0.7,0.3,1.1c0.4-0.3,0.8-0.6,1.3-1   C252.3,262.9,252.2,262.4,252,262.4z"/>
	<path fill="#258DC7" d="M263.2,277.6c0.3-0.7,2.3-0.9,1.8-2c-0.7-1.5-1.8-0.1-2.6,0.3c-1.1,0.6-2.6,1.3-2.8-0.4   c-0.4-3.7-1.9-3.9-4.7-2.2c-0.3,0.2-1.1-0.5-1.7-0.7c-0.7-0.2-1.7,0-1.6,0.6c0.2,1.6-0.6,3.1-0.6,4.6h12   C263.1,277.7,263.2,277.7,263.2,277.6z"/>
	<path fill="#258DC7" d="M253.2,270.9c1.8-0.4,2.7-2,3.1-3.6c0.3-1.1-0.7-1.1-1.8-1.1c-0.7,1.6-3.7,0-3.9,2.5   C250.6,269.9,251.6,271.2,253.2,270.9z"/>
</g>
<g>
	<path fill="none" d="M232.7,247.8l0.1,0.5l0.5-0.4c1.4-1.2,2.6-2.2,3.1-3.9c0.1-0.3,0-0.5-0.2-0.7c-0.2-0.2-0.5-0.3-0.7-0.2   c-1.3,0.3-1.9,1.4-2.3,2.4c-0.2,0.4-0.4,0.8-0.6,1.1c-0.1,0.2-0.1,0.4,0,0.7C232.6,247.4,232.6,247.6,232.7,247.8z"/>
	<path fill="#FFD80D" d="M105.9,257.2c-3,0.9-2.8,2.4-2.1,4c0.1,0.2,0.6,0.3,1,0.4C105.1,260.4,105.4,259.2,105.9,257.2z"/>
	<path fill="#FFD80D" d="M74,277.8c0-0.3-0.1-0.7-0.1-1c0.4-1,0.8-2,1.2-3c-1,0.6-2,1.2-3,1.9c0.1,0.8,0,1.5,0,2.1H74z"/>
	<path fill="#FFD80D" d="M117.2,264.8c-0.2,1.2,1.4,1.5,2.7,1.6c1.2-0.3,2.6-0.7,2.6-2.3c0-1.2-0.9-2.2-2.2-2.1   C118.6,262.1,117.3,263.4,117.2,264.8z"/>
	<path fill="#FFD80D" d="M104.5,269.8c-2.5,2.1-5.9,1.9-8.8,3.2c-4.9,2.1-7.8,0.6-10.4-5.3c-1.6,0.9-3.2,1.9-4.7,2.8   c-0.1,0.3-0.3,0.6-0.4,1c-1,2.3-1.1,4.5,3.1,4.4c5.3-0.2,11-1.3,15.7,2h11.9c0.4-2.4,0.2-4.9-1.6-7.1   C107.9,269,106.5,268.2,104.5,269.8z"/>
	<path fill="#FFD80D" d="M129.1,273.3c-0.9,1.9-2,3.2-2.9,4.5h3.1C129.5,276.6,129.4,275.1,129.1,273.3z"/>
	<path fill="#FFD80D" d="M138.6,257.7c-1-0.4-6.9,6.3-7,7.8c-0.1,2.4,5.2,5.8,8.8,5.6c3.3-0.2,4.1-2.3,4-4.6   C144.4,261.8,142.1,259.3,138.6,257.7z"/>
	<path fill="#FFD80D" d="M124,256.4c0.4,1.5,1,2.9,2.9,2.2c1.5-0.5,0.2-1.4-0.1-2c-2.1-2.9-4.1-2.3-6.5-0.2   C121.9,257.4,122.9,256.5,124,256.4z"/>
	<path fill="#FFD80D" d="M117.5,273.3c0.2,1.5,1.6,1.3,2.7,1.3c2.7,0,4-2.1,5.2-4.2c-2,0.2-3.9,0.5-5.9,0.8   C118.2,271.3,117.3,272,117.5,273.3z"/>
	<path fill="#FFD80D" d="M143,244.3c-0.9-1.3-2.3-0.1-4,0.9c1.3,0.5,1.8,0.8,2.3,0.9C142.6,246.2,143.9,245.7,143,244.3z"/>
	<path fill="#FFD80D" d="M214.6,273c-3.1-1.5-5.2-0.7-7.5,1.7C210.4,276.4,212.5,275.6,214.6,273z"/>
	<path fill="#FFD80D" d="M209.7,261c0.5-2.4,0.1-2.7-6.9-5.8c4.9,6.1,0.2,9.3-2.1,12.9C207.8,270.2,208.8,265.6,209.7,261z"/>
	<path fill="#FFD80D" d="M100.3,264.2c0-1.8-0.6-3.1-1.3-4.2c-0.9,0.5-1.8,1-2.7,1.5C97.3,262.7,98.5,263.7,100.3,264.2z"/>
	<path fill="#FFD80D" d="M169.9,276.8c0.1-0.3-0.5-0.9-0.8-1c-1.6-0.4-2.1,1-2.8,2c0,0,0,0,0,0h2.7   C169.3,277.7,169.7,277.5,169.9,276.8z"/>
	<path fill="#FFD80D" d="M169.8,237.7c-1.9,1.5-1.9,3.5-1.3,5.6c0.2,0.8,0.9,1.3,1.7,1.1c2.7-0.7,1.2-3.2,2-4.7   c0.3-0.6,0.8-1.4,0.7-2.2h-2.7C170,237.5,169.9,237.6,169.8,237.7z"/>
	<path fill="#FFD80D" d="M162.1,277.8h0.1c1.5-4.1,4.9-5.8,3.4-10.1C163.1,270.1,160.6,272.3,162.1,277.8z"/>
	<path fill="#FFD80D" d="M96.1,268.9c-1.2-1.9-2.5-3.5-4.1-4.9c-1.2,0.7-2.4,1.4-3.6,2C89.8,268.4,92.2,269.4,96.1,268.9z"/>
	<path fill="#FFD80D" d="M162.5,241.1c1.6,0.2,1.4-1.3,1.4-2.4c0-0.5-0.1-0.9-0.2-1.3h-5.5C158.8,239.5,160.4,240.8,162.5,241.1z"/>
	<path fill="#FFD80D" d="M138.5,274.9c-1.2,0.8-1.9,1.9-2.3,2.9h3.2C139.3,276.9,139.1,276,138.5,274.9z"/>
	<path fill="#FFD80D" d="M114.2,253c1.7,1.9,5.7,1.2,5.8-1.5c0-0.9,0.2-1.8,0.5-2.8c-2.3,1.2-4.7,2.4-7,3.6   C113.8,252.5,114,252.8,114.2,253z"/>
	<path fill="#FFD80D" d="M167.9,248.5c-2.2,0.7-6.3,0.4-6,3.1c0.4,3.8,0,8.4,4,11.3c3.2,2.3,3.8-2,6.1-2.2c3.1-0.2,5-2.3,5.5-5.6   C177.7,252.2,171.3,247.5,167.9,248.5z"/>
	<path fill="#FFD80D" d="M177.7,239.8c-0.4,1.2,0.6,2.2,1.8,2.3c1.4,0.2,1.5-1.4,2.1-2.3c0.1-1.3-0.8-2.1-1.6-2.4h-1.4   C177.9,237.9,177.9,239.1,177.7,239.8z"/>
	<path fill="#FFD80D" d="M183.9,252.8c4.1,1.8,3.6,4.2,1.4,6.8c-1.4,1.6,0.1,2.3,0.9,3.3c0.8,0.9,1.7,1.6,3,1.2c1.5-0.5,1.2-2,1-2.9   c-0.9-3.4,2-5.4,3.2-8.1C190.2,251.9,187.4,252.7,183.9,252.8z"/>
	<path fill="#FFD80D" d="M182,268.6c0.2,0.1,1.1-0.5,1.1-0.8c-0.1-2.6-2.1-3-4.4-3.6C178.4,267.3,180.3,267.9,182,268.6z"/>
	<path fill="#FFD80D" d="M148.2,243.9c-2,3.6-3,6.2,0.3,8.6c2.3,1.7,4.4,3.5,7.5,0C150.9,252.2,149.1,248.8,148.2,243.9z"/>
	<path fill="#FFD80D" d="M156.3,246.4c1.1,1.2,2.3,2.8,4.4,1.3c-0.3-0.5-0.5-1-0.9-1.4c-2.9-2.9-6.5-5.4-8.2-8.9h-7.4   C148.7,239.6,152.9,242.5,156.3,246.4z"/>
	<path fill="#FFD80D" d="M134.7,245.3c1.2,0,2.4,0.1,2.6-1.5c0.1-0.7,0.1-1.7-0.3-2.1c-1.1-1.1-2,0.1-2.9,0.6   c-1.4,0.7-2.8,1.4-4.5,2.2C131.4,246.1,133.1,245.3,134.7,245.3z"/>
	<path fill="#FFD80D" d="M155.5,274c0.3-2,1.2-3.8-1-5c-0.4-0.2-1.8,0.2-1.9,0.5C152.5,271.5,154,272.6,155.5,274z"/>
	<path fill="#FFD80D" d="M149.8,264.6c2.5-1.5,4.1-2.5,5.8-3.5C153,260.7,150.4,260.3,149.8,264.6z"/>
	<path fill="#FFD80D" d="M173.2,267.8c-2.1-0.1-2.2,1.7-2.1,3.2c0,1.5,0.2,3.1,2.3,3.1c1.4-0.7,3.2-1.1,3.1-2.9   C176.2,269.4,175,267.9,173.2,267.8z"/>
	<path fill="#FFD80D" d="M153.2,276.7c-0.7,0.1-1.4,0.1-2.1,0.2c-0.7-0.5-1.5-1-2.2-1.5c-0.6-0.8-1.1-2.5-2.3-1.3   c-0.8,0.8,0.3,2.1,1.1,2.9c0.4,0.1,0.8,0.6,1.2,1h3.7C152.9,277.7,153.2,277.5,153.2,276.7z"/>
	<path fill="#FFD80D" d="M128.8,251.2c-0.1,1.4,1.1,1.7,2.1,2.1c0.1,0,0.7-0.7,0.7-1c0-1-0.6-1.6-1.8-1.9   C129.5,250.6,128.8,250.9,128.8,251.2z"/>
	<path fill="#868686" d="M211.9,242.4c-1.5,1.1-3,2.2-4.2,3.7l-0.1,0.1l-0.1,0c-1.6,0.7-3.5,1.5-5.5,1.8c-0.1,0-0.2,0-0.2,0   c-0.3,0-0.8,0.1-0.9,0.3c-0.1,0.1,0,0.4,0.1,0.7c0.6,1.2,1.5,2,2.6,2.1c1,0.2,2.1-0.3,3-1.2c0.3-0.4,0.7-0.7,1-1l0.4-0.5   c0.5-0.5,1-0.9,1.5-1.3c1.6-1.3,3.1-2.5,2.7-4.9l0-0.1l0.1-0.1L211.9,242.4z"/>
	<path fill="#868686" d="M215.3,254.1c0.8-0.9,1.7-1.8,2.4-2.8c0.4-0.6,0.8-1.1,1.2-1.7c1.2-1.6,2.4-3.3,2.8-5.1   c0.5-2.5,1.7-4.3,3.7-5.2c1.1-0.5,2-1.2,2.8-1.9h-6.8c-0.4,0.3-0.8,0.6-1.2,0.8c-3,2-5,5-7,7.9c-1.7,2.5-3.4,5.1-5.7,7   c-0.3,0.3-0.4,0.5-0.4,0.5c0,0.1,0.1,0.2,0.2,0.2c0.5,0.3,0.9,0.6,1.4,1c1.4,1,2.8,1.9,4.3,2.4c0.6,0.2,0.8-0.2,1.2-1.3   c0.2-0.5,0.4-1.1,0.7-1.5L215.3,254.1z"/>
	<path fill="#868686" d="M217.3,237.4h-5.9c-0.8,0.5-1.6,1.1-2.4,1.6c-0.7,0.5-1.4,1-2.1,1.5c-0.1,0.1-0.3,0.2-0.4,0.3   c-0.9,0.6-1.9,1.2-2.1,2.5c1.9,0,3.5-0.6,4.9-1.8l0.1-0.1c0.6-0.5,1.2-1.1,1.8-0.9c0.4,0.1,0.8,0.5,1.1,1.3l0.1,0.2   C213.8,240,215.5,238.6,217.3,237.4z"/>
	<path fill="#868686" d="M230.6,253.3c2.4-0.2,3.5-1.6,4.8-3.2c0.5-0.7,1.1-1.4,1.7-1.9c0.4-0.3,0.7-0.7,1-1.1   c0.6-0.7,1.1-1.4,1.9-1.7c3.3-1.6,6.3-4.1,9.3-7.9H246c-0.5,0.4-1,0.9-1.4,1.3c-0.4,0.4-0.7,0.7-1,1.1c-1.4,1.6-3,3.4-6.1,3.7   l-0.8,0.1l0.5-0.6c1.7-2,3.3-3.9,4.9-5.6h-8.4c-0.4,0.8-0.7,1.6-1,2.4c-0.5,1.3-1.1,2.7-1.8,3.8c-1,1.7-1.9,3.4-2.8,5.2   c-1.7,3.3-3.5,6.8-6.1,9.7c-0.1,0.1-0.2,0.2-0.3,0.3c-0.2,0.3-0.5,0.6-0.8,0.6c-0.4,0.1-0.6,0-0.8-0.2c-0.3-0.3-0.2-0.7-0.2-1   c0-0.1,0-0.1,0-0.2c0.1-1.7,0.8-3.1,1.6-4.4c0.3-0.5,0.6-1.1,0.8-1.6c0.1-0.1,0.1-0.3,0.2-0.4c0.3-0.5,0.4-0.8,0.3-1.1   c0-0.1-0.1-0.2-0.3-0.3c-0.2-0.1-0.4-0.2-0.4-0.2c-0.1,0-0.2,0.3-0.4,0.5c-0.1,0.3-0.3,0.6-0.5,0.8c-0.9,0.7-1.3,1.6-1.8,2.7   c-0.2,0.4-0.3,0.8-0.5,1.1c-1.1,2.1-1.8,3.4-1.5,4.1c0.3,0.7,1.5,1.1,4,1.9c1.1,0.3,1.5-0.3,2.1-1.3c0.5-0.9,1.1-1.8,2.4-1.7l0.2,0   l0,0.2c0.2,0.7-0.1,1.2-0.4,1.6c-0.2,0.3-0.3,0.5-0.3,0.8c0,0.2-0.1,0.5-0.2,0.7c-0.1,0.3-0.2,0.6-0.1,0.7c0.1,0.1,0.3,0.3,0.7,0.3   c0.7,0.2,1.2,0.2,1.4,0c0.2-0.1,0.3-0.4,0.4-0.9c0-0.6,0.2-1.2,0.3-1.7c0.2-0.9,0.4-1.8,0.2-2.7c-0.2-1.1,0.1-2.3,0.7-3.1   C229.5,253.6,230,253.3,230.6,253.3z M232.5,246.6c0.2-0.3,0.4-0.7,0.6-1.1c0.5-0.9,1-2,2.3-2.4c0.3-0.1,0.6,0,0.7,0.2   c0.2,0.2,0.2,0.4,0.2,0.7c-0.5,1.7-1.7,2.7-3.1,3.9l-0.5,0.4l-0.1-0.5c-0.1-0.2-0.1-0.4-0.2-0.5C232.4,247,232.4,246.8,232.5,246.6   z"/>
	<path fill="#868686" d="M196.3,244c0.4,0.5,0.9,0.9,1.3,1.4c0.1,0,0.3,0,0.4,0c0.7-0.8,1.5-1.5,2.4-2.1c1.3-1,2.5-1.9,3.2-3.4   l0.1-0.1l0.6-0.6c0.6-0.6,1.1-1.1,1.7-1.7h-2.6l-1.3,1.5c-0.9,0.6-1.8,1.1-2.7,1.6c-0.7,0.4-1.4,0.7-2,1.1   c-0.5,0.3-0.9,0.5-1.2,0.3c-0.1-0.1-0.1-0.1-0.2-0.2c-0.1-0.2,0-0.5,0.1-0.8c0-0.2,0.1-0.4,0.1-0.5l-0.2-0.3l0.3-0.1   c0.6-0.3,1.1-0.7,1.6-1.1c0.7-0.5,1.3-1,2.1-1.4h-4.1c-0.4,0.6-0.6,1.2-0.8,2l0,0.2l-0.2,0.1c-0.5,0.2-1.1,0.5-1,0.8   C194.3,241.9,195.3,242.9,196.3,244z"/>
	<path fill="#868686" d="M261.9,238.5c-0.5,0.3-1.1,0.5-1.7,0.8c-0.9,0.4-1.8,0.7-2.6,1.5c-0.5,0.6-1.3,0.8-2.3,0.6   c-0.6-0.1-1.2-0.4-1.7-0.8c-1-0.6-1.6-0.9-2.3-0.4c-0.3,0.2-0.6,0.4-0.8,0.6c-3.1,2.3-6.1,4.4-5.5,8.9l0,0.1l0,0.1   c-1.6,3.5-4.1,6.3-6.7,9.3c-1.4,1.5-2.8,3.1-4.1,4.9c0.7,0,1.4,0,2,0.1c1.4,0.1,2.3,0.2,3.1-1c1.7-2.6,3.4-5.1,5.1-7.7l2.2-3.3   c2.5-1.8,5.3-3.4,8-4.9c1.8-1,3.7-2.1,5.5-3.2c2.6-1.7,5.5-3.2,8.2-4.8c1-0.6,2.1-1.1,3.1-1.7h-7.1   C263.4,237.7,262.6,238,261.9,238.5z"/>
	<path fill="#868686" d="M232.7,260.5L232.7,260.5l1.3-2.5c0.1-0.1,0.2-0.2,0.3-0.4c0.2-0.2,0.5-0.5,0.7-0.7c0.9-1.2,2-2.2,3.1-3.1   c1.4-1.2,2.8-2.4,3.7-4c0.4-0.6,0.5-1.1,0.4-1.4c0-0.1-0.1-0.2-0.1-0.2c-0.3-0.3-0.6-0.3-0.8-0.3c-0.4,0-0.7,0.2-1,0.5   c-1,1.2-2.2,2.3-3.4,3.3c-1.8,1.6-3.7,3.3-4.9,5.6l-0.1,0.1c-0.8,0.7-1,1.6-1.2,2.6c-0.1,0.3-0.1,0.6-0.2,0.9   c-0.1,0.2-0.2,0.4-0.3,0.6c-0.2,0.6-0.5,1.1-0.3,1.5c0.1,0.2,0.3,0.4,0.7,0.5c0.4,0.1,0.8,0.1,1,0c0.5-0.3,0.6-1.4,0.7-2l0,0   c0-0.2,0.1-0.5,0.2-0.7C232.7,260.7,232.7,260.6,232.7,260.5z"/>
	<path fill="#868686" d="M276.2,249.7c0.5,0.1,0.7-0.2,1-0.9C276.8,249,276.4,249.3,276.2,249.7z"/>
	<path fill="#868686" d="M254.9,251.8l0.1-0.3c0.2-0.7,0-0.8-0.2-0.9c-0.1,0-0.1-0.1-0.2-0.1c-0.1-0.1-0.3-0.2-0.3-0.1   c0,0,0,0-0.1,0.1c-0.7,1.6-2,2.3-3.2,3.1c-0.8,0.5-1.6,0.9-2.2,1.6c-1.6,1.8-2.9,3.9-4.4,6.1c-0.5,0.8-1.1,1.6-1.6,2.5   c4.2-0.1,4.2-0.2,5.9-3.2c0.7-1.4,1.6-2.8,3.3-3.8C253.6,255.7,254.3,253.7,254.9,251.8z"/>
	<path fill="#868686" d="M249.9,262.8c0.1,0,0.3,0.1,0.3,0c0.5-0.3,0.8-0.7,0.8-1.1c0-0.2,0-0.5-0.2-0.8c-0.1,0.3-0.3,0.5-0.5,0.7   C250,262.1,249.8,262.4,249.9,262.8z"/>
	<path fill="#868686" d="M261.9,257.2c0.6-0.7,1.3-1.4,2-2.1c2.4-2.1,3.9-4.9,5.3-7.6c1.3-2.4,2.6-5,4.6-7c0.2-0.2,0.4-0.5,0.4-0.7   c0-0.1,0-0.2-0.1-0.2c-0.2-0.2-0.4-0.2-0.8,0.2c-0.1,0.1-0.2,0.2-0.4,0.2c-1.6,0.9-2.9,2.2-4.2,3.4c-2.2,2.1-4.5,4.2-7.8,4.8   c0,0-0.1,0.2-0.2,0.3c-0.1,0.2-0.2,0.4-0.4,0.6c-2.4,2.1-3.3,5-4.3,8c-0.5,1.5-1,3.1-1.7,4.5C258,261.5,259.9,259.4,261.9,257.2z"/>
	<path fill="#868686" d="M280.8,237.4c-0.2,0.2-0.4,0.4-0.5,0.6c-0.7,0.8-1.5,1.7-2.3,2.4c-3.8,3.6-7,6.9-8.3,11.7l0,0.1   c-0.3,0.5-0.7,0.9-1.1,1.4c-0.8,0.9-1.5,1.9-2.1,3.1c2.2-0.6,2.9-2.3,3.5-4.2l0.1-0.1c0.7-0.8,1.4-1.7,2.1-2.5   c1.2-1.5,2.5-3.1,4.2-4.4c0.1-0.1,0.2-0.2,0.4-0.3c0.5-0.4,1-0.9,1.6-0.7c0.4,0.1,0.8,0.5,1.1,1.1l0.1,0.2l-0.1,0.2   c-0.2,0.2-0.4,0.5-0.7,0.7c-0.6,0.6-1.1,1.1-1.2,1.9l0,0c1-0.4,1.8-1.2,2.4-2.4l0.1-0.1c2.6-2.4,4.7-5.2,6.7-8.6H280.8z"/>
	<path fill="#868686" d="M226.6,241.6c-0.2,0.2-0.5,0.4-0.7,0.6c-1,0.7-1.9,1.4-2.4,2.5l-0.1,0.1c-0.6,0.6-0.7,1-0.7,1.2   c0,0.2,0.2,0.4,0.5,0.5c0.6,0.3,0.9,0,1.4-0.9c0.1-0.1,0.1-0.2,0.2-0.3l0.1-0.1l0.1,0c0.8-0.3,1.3-1,1.8-1.7   c0.3-0.4,0.5-0.7,0.8-1.1c0.2-0.3,0.4-0.5,0.4-0.7c0,0,0-0.1,0-0.1c0-0.1-0.1-0.2-0.2-0.3C227.5,241.1,227.2,241.1,226.6,241.6z"/>
	<path fill="#868686" d="M191.4,237.4c0.2,0.3,0.4,0.7,0.6,0.7c0.1,0,0.1,0,0.3-0.1c0.4-0.2,0.8-0.5,1.1-0.7H191.4z"/>
</g>
<g>
	<path fill="#FFD80D" d="M77.4,313.8c0.1-0.1-0.3-1.5-0.8-1.8c-2.9-1.8-4.7,0.5-6.8,2.2C72.4,315,75,315.6,77.4,313.8z"/>
	<path fill="#FFD80D" d="M120.3,330c0,0.4,0.4,0.8,0.6,1.2c0.3-0.4,0.8-0.7,0.8-1.1c0.1-0.4-0.3-0.9-0.6-1.7   C120.7,329.2,120.3,329.6,120.3,330z"/>
	<path fill="#FFD80D" d="M120.4,337.1c0.5-0.2,0.9-0.6,1.3-1c-0.3-0.2-0.6-0.3-1.3-0.7c-0.2,0.3-0.5,0.8-0.7,1.3   C119.6,336.7,120.2,337.2,120.4,337.1z"/>
	<path fill="#FFD80D" d="M129.8,300.3h-9.8c1,2,2.6,3.5,4.9,3.8C127.7,304.5,129,302.7,129.8,300.3z"/>
	<path fill="#FFD80D" d="M121.2,305.3c-4.2,3.2-7.3,6.3-5.3,12.1C119.6,314.2,120.8,310.3,121.2,305.3z"/>
	<path fill="#FFD80D" d="M84.4,300.8c0.1,0.2,0.6,0.4,0.9,0.3c0.2,0,0.3-0.5,0.4-0.7c-0.1-0.1-0.1-0.1-0.2-0.2h-1.2   C84.3,300.4,84.3,300.6,84.4,300.8z"/>
	<path fill="#FFD80D" d="M83.8,335.5c-2.4-2.1-5.4-3.3-8.1-0.6c-1.7,1.7-2.1,3.7-1.6,5.8H87C87,338.5,85.5,337,83.8,335.5z"/>
	<path fill="#FFD80D" d="M134.3,313v-3.9c-0.9-0.9-2-1.7-3.1-2.4C130.8,310.7,131.5,312.4,134.3,313z"/>
	<path fill="#FFD80D" d="M124.4,319.7c1.8-0.9,5,0.5,5.2-3.3c-0.9-1.3-1-4.2-3.3-3.7c-2.2,0.5-3.3,3-3.8,5.3   C122.2,319.2,122.9,320.5,124.4,319.7z"/>
	<path fill="#FFD80D" d="M122.7,339.2c-0.7,0.1-1.1,0.7-0.9,1.5h3.7C124.9,339.9,124.1,339.3,122.7,339.2z"/>
	<path fill="#FFD80D" d="M134.3,336.2v-5.1c-2.9,0.7-6-0.5-8.1,0.2c-5.6,1.9,3.5,4.4,0.9,7.5c-0.3,0.3-0.1,1.1,0.2,1.6   c0,0.1,0.1,0.2,0.2,0.3h2.4C129.6,336.8,131.8,336.4,134.3,336.2z"/>
	<path fill="#FFD80D" d="M118.2,328.3c1.7-3.6-2.7-5.7-3.7-8.8c-0.1-0.4-3.8-1.5-4.8,0.9c-1.3,2.9-3.1,5.5-4.6,8.3   c-2.5,4.6-0.9,6.5,4.7,6.7c0.8,1.5,1.7,2.9,3.5,3.4c0.8,0.3,1.1,1.1,1.4,1.8h2.6C115.7,336.5,116.2,332.5,118.2,328.3z"/>
	<path fill="#FFD80D" d="M126.4,327.4c2.9,0.2,5.4-0.9,8-2.7v-0.7c-2.7,0-5.3,0-8,0c-1.4,0-2.8,0.5-2.7,2.2   C123.8,327.8,125.3,327.3,126.4,327.4z"/>
	<path fill="#FFD80D" d="M67.3,340.3c-1.5-0.2-2.9-0.3-4.4-0.5c-0.1-0.4-0.3-0.7-0.5-1c3-2.9,4.3-5.9,0.3-9c-2.7-2.9-3.6-1-3.5,1.6   c0,2,0.8,4.1,1.3,6.1c-1.4,1-2.8,2.1-4.6,0.8c-2.6-2-5.2-1.4-7.7,0c0.4,0.9,0.9,1.7,1.5,2.4h18.6C67.9,340.5,67.7,340.3,67.3,340.3   z"/>
	<path fill="#FFD80D" d="M101.1,340.7h1.6c-0.1-0.3-0.1-0.7-0.2-1.1C102,339.9,101.5,340.3,101.1,340.7z"/>
	<path fill="#FFD80D" d="M131.3,302.8c1,0.5,2,1,3,1.4v-2.5C133.4,301.5,132.4,301.5,131.3,302.8z"/>
	<path fill="#FFD80D" d="M92.7,331c1.4-0.4,2.2-1.5,2.1-3.1c0.1-1.1-0.5-1.8-1.6-1.6c-1.7,0.2-2.1,1.4-1.9,3   C91.4,330.1,91.3,331.4,92.7,331z"/>
	<path fill="#FFD80D" d="M100.4,334c-4.3,0.6-6.9,1.7-9.6,4.5C95.1,339.3,97.5,337.8,100.4,334z"/>
	<path fill="#FFD80D" d="M84.5,323.7c-2.2,1.9-2,4.1-0.9,7.5c1.8-2.8,3.3-4.7,2.8-7.3C86.4,323.4,85.3,323.1,84.5,323.7z"/>
	<path fill="#FFD80D" d="M66,300.3h-3c-0.1,0.2-0.3,0.4-0.5,0.6c-1.3,1-1.2,2.6-1.5,4c-0.2,0.7,0.1,1.6,1.1,1.1   c0.3-0.1,0.4-0.9,0.6-1.4c0.8-0.8,1.8-1.5,2.3-2.4C65.2,301.6,65.8,300.9,66,300.3z"/>
	<path fill="#FFD80D" d="M106.5,310.1c-0.2,1.5,1.2,1.7,2.3,1.7c2.6,0,3.3-2.3,4.1-4c0.6-1.4-0.9-1.7-2.5-2.3   C109.1,306.8,106.9,307.7,106.5,310.1z"/>
	<path fill="#FFD80D" d="M74.5,304.8c0-1.2-0.4-2.2-1.8-2.4c-1.7-0.1-2.2,1.1-2.6,2.4c-0.5,1.6,0.5,1.9,1.8,2   C73.3,306.8,74.6,306.7,74.5,304.8z"/>
	<path fill="#FFD80D" d="M101.8,302.6c-0.1,0.1-0.1,0.4-0.1,0.5c-5.3-1.1-10,0.9-15,2c-5.3,1.2-4.1,4.1-3,6.9c0.8,2,2.8,3.5,4.2,5.2   c1.8,2.8,3.2,1.5,4.5-0.5c3.4-4,3.6-10.4,9.3-12.7c0.5-0.2,1.1-0.5,1.6-0.5c3.1-0.4,5.9-1.2,8.1-3.2h-7.5   C103.1,300.9,102.5,301.7,101.8,302.6z"/>
	<path fill="#FFD80D" d="M46.2,333.2c2.1,0,3.1-1.3,3.6-3.3c-2.5-0.8-3.7,0.1-4.4,2.1C45.4,332.3,46,333.2,46.2,333.2z"/>
	<path fill="#FFD80D" d="M57,323.7c2.7,0.3,6.2-1.2,7.3-4.4c-0.9-3.7-1.3-7.3-5.1-8.7c-1.4-0.5-9.9,5.3-9.9,6.5   C49.4,322.2,53.7,323.4,57,323.7z"/>
	<path fill="#FFD80D" d="M37.3,317.8c-0.2,1,0,1.8,1.1,2.2c1,0.3,1.7-0.2,2.2-1.1c0.3-1.1-0.2-1.8-1.2-2   C38.5,316.6,37.6,316.7,37.3,317.8z"/>
	<path fill="#FFD80D" d="M77,325.1c3.4-1,1.2-3.5,1.7-6.3c-2.3,1.8-5.5,1-5.3,4.1C73.6,324,75.5,325.5,77,325.1z"/>
	<path fill="#FFD80D" d="M66.7,326.7c1.4,2.7,3.2,4.3,6.8,4.8C72.2,327.9,71.2,325.2,66.7,326.7z"/>
	<path fill="#FFD80D" d="M44.1,300.3h-5.6c-1.4,1.2-2.7,2.4-4,3.6c0.3,0.1,0.6,0.1,1,0.1C38.1,304.1,42.8,304.1,44.1,300.3z"/>
</g>
<g>
	<path fill="none" d="M264.8,304.5c-6,1.1-13.9,11-13.9,17.1c0.1,6.9,2.3,9.8,10.7,13.8c6.6,3.2,10.5,1.4,12.4-5.8   c1-3.8,1.4-8,3.1-11.4C280.8,311,272,303.2,264.8,304.5z"/>
	<path fill="none" d="M292.5,314.4c-2.7-0.8-4.7,0.4-6,2.9c-2.5,4.8-5.2,9.5-7.8,14.2c-0.9,1.7-1.4,3.4,0.2,4.9c0.9,1,1.9,0.9,3,0.3   c6.7-3.5,10.1-9.7,12.8-16.2C295.6,318.4,295.8,315.3,292.5,314.4z"/>
	<path fill="none" d="M198.5,301.7c-9.5,1-19,2.6-27.3,7.9c-2.5,1.6-4.1,4-3.7,7c1,7.4,10,14.9,17.7,14.9c3.6-0.2,7.3-0.3,10.9-0.5   c3.8-0.2,6.4-1.9,7.2-6c0.9-4.5,2.2-8.9,3.2-13.4C207.8,305.2,204.9,301.1,198.5,301.7z"/>
	<path fill="none" d="M244.2,314.7c-7.4-6.2-16.1-9.4-25.5-11c-1.8-0.3-3.4,0.7-4.3,2.1c-4.4,7.1-5,13,5.3,15.9   c6.3,1.8,12.9,0.6,19.3,1.1c4.7,0.4,6.4-1.6,5.9-6C244.9,316,244.5,315.3,244.2,314.7z"/>
	<path fill="#868686" d="M134.3,336.2v4.5h7.4C138.9,339.8,136.2,338.3,134.3,336.2z"/>
	<path fill="#868686" d="M289.4,303.7c-5.6-0.8-11.3-1.5-16.6-3.5h-12.5c-0.1,0.1-0.2,0.3-0.3,0.4c-8,8.7-20,10-28.7,2.5   c-1-0.9-1.7-1.8-2.1-2.9h-51.6c-0.6,0.1-1.1,0.3-1.7,0.4c-1-0.1-2-0.2-3-0.4h-16.1c-0.1,1.1-0.4,2.3-0.9,3.4   c-0.8,1.7-2.1,2.4-4,2.3c-4.5-0.2-9-0.1-13.4,0.7c-1.3,0.2-3.1-0.3-4.1,0.6v17.8c0.3-0.1,0.5-0.3,0.8-0.4   c6.4-2.7,12.7-5.5,19.1-8.2c1.7-0.5,3.3-0.5,5-0.1c5,1.3,5,5.2,3.7,8.7c-1.7,4.8-3.9,9.5-7.7,13.1c-1.2,1.1-2.6,1.9-4.2,2.5h10   c0,0,0.1-0.1,0.1-0.1c1.4-1.5,3.5-2.4,5.4-3.4c5.6-3,8.3-2.1,8.7,3.5h7.8c0.9-1.9,3.6-2.1,9.7-2.1c0.5,0.1,2.5,0.1,4.4,0.6   c1.4,0.3,2.6,0.8,3.6,1.5h8.6c-0.3-0.8-0.6-1.7-0.7-2.7c-0.7-5.2,1.1-7.6,6.4-8.5c2.3-0.4,4.6-0.5,7-0.8c2.7,0.3,6.3-1.2,7.7,2.5   c1.3,3.5-0.6,6.2-3.1,8.8c-0.3,0.3-0.5,0.5-0.8,0.8h8.4c0.7-0.8,1.6-1.4,2.3-2.1c1.6-1.4,3.3-2.6,4.9-4.1c2.6-2.5,5.7-4.1,8.6-1.2   c2.1,2,3.3,4.6,2.9,7.4h37c0.9-1.4,2-2.6,3.3-3.7c2.2-1.9,4.1-5,7.6-2.7c2.4,1.7,4.9,3.4,5,6.3h2.7c0-4.6-0.6-9.3-1-13.9   c-0.2-2.6-0.8-5.7-3.7-7.2c-5.6-2.8-6.1-7.6-4.2-12.6c1-2.6,0.7-4.7-0.4-6.8h-3.1C294.4,302.2,292.6,304.2,289.4,303.7z    M206.4,311.5c-1,4.5-2.3,8.9-3.2,13.4c-0.8,4.1-3.3,5.8-7.2,6c-3.6,0.2-7.2,0.3-10.9,0.5c-7.7,0-16.7-7.5-17.7-14.9   c-0.4-2.9,1.2-5.4,3.7-7c8.3-5.3,17.8-6.9,27.3-7.9C204.9,301.1,207.8,305.2,206.4,311.5z M239,322.7c-6.4-0.5-12.9,0.7-19.3-1.1   c-10.3-2.9-9.7-8.8-5.3-15.9c0.9-1.4,2.5-2.4,4.3-2.1c9.4,1.6,18.1,4.8,25.5,11c0.3,0.6,0.7,1.3,0.6,2   C245.4,321.1,243.7,323.1,239,322.7z M274,329.7c-1.9,7.2-5.8,9-12.4,5.8c-8.3-4-10.6-6.9-10.7-13.8c-0.1-6.2,7.9-16.1,13.9-17.1   c7.2-1.3,16,6.5,12.3,13.8C275.4,321.7,275.1,325.8,274,329.7z M294.7,320.5c-2.7,6.5-6.1,12.7-12.8,16.2c-1.1,0.7-2.1,0.7-3-0.3   c-1.6-1.6-1.2-3.2-0.2-4.9c2.6-4.7,5.3-9.4,7.8-14.2c1.3-2.5,3.3-3.7,6-2.9C295.8,315.3,295.6,318.4,294.7,320.5z"/>
</g>
<g>
	<path fill="#868686" d="M173.2,403.5h6.4c0.2-3.3,1.3-6.8,2.9-9c4.7-6.2,8.3-6.8,14-2.2v-4.7c-0.5-0.4-1.1-0.7-1.6-1.1   c-3.2-2.3-3.4-4.7-0.4-7.7c0.6-0.6,1.3-1.2,2-1.8v-6c-2.2,1.4-4.6,2.4-7.3,2.9c-2.3,0.5-5.6,0.4-6.6-2.2c-0.9-2.5,1.5-4.2,3.5-5.8   c1.3-1.1,2.7-2,4.2-2.8H173c0,0.1-0.1,0.2-0.1,0.3c-2.2,7-5.5,7.7-10.9,2.7c-1-0.9-1.9-1.9-2.8-2.9H140c-0.4,0.3-0.7,0.6-1.1,0.9   c-1.9,1.7-5.9,1.2-6,4c-0.2,2.4,1.5,5,2.6,7.4c0.5,1.1,0.5,2.7,2.1,3c0.8-1.6,1.4-3.3,2.4-4.8c1-1.5,2.5-2.7,3.4-4.3   c2.3-4.4,5.8-3.9,9.4-2.3c7.4,3.3,8.3,7.7,3.3,13.7c-0.8,1-1.8,2-2.4,3.1c-2.4,4.3-5.4,7.2-11.6,4.1c4.5,5.8,7.9,11.2,13.3,15.5   h0.3c0.9-8.6,6.5-14.8,9.3-22.3c0.9-2.5,2.4-4.8,5.3-4.3c3,0.5,4.8,3,5.1,6c0.3,2.6,0.3,5.4-0.2,7.9   C174.3,394.9,174.6,399.6,173.2,403.5z"/>
	<path fill="#108C84" d="M10.6,370.2c2.1-0.9,4.1-1.8,5.1-3.7c0,0-0.1,0-0.1,0c0,0-0.7-1.5-0.8-1.4l-0.8-0.1c0,0,0,0,0,0   c-0.7,0.2-1.4,0.6-2,0.9c-0.7,0.3-1.3,0.7-2.1,1c-0.9,0.3-1.7,0.8-2.6,1.2c-1.9,1.1-4,2.2-6.3,1.4c-0.3-0.1-0.7-0.2-1-0.3   c0,0.7,0,1.4,0,2.2c0,1.3,0.1,2.6,0.1,3.9c2.7-1.2,5.3-2.5,7.8-4C8.8,371,9.7,370.6,10.6,370.2z"/>
	<path fill="#108C84" d="M67.4,396c-0.5-0.4-1.3-0.6-2.4-0.5l0,4c0,1.3,0,2.6,0,3.9h4.3c-0.2-1.4-0.4-2.8-0.5-4.3   C68.6,397.6,68.1,396.5,67.4,396z"/>
	<path fill="#108C84" d="M67.5,367.7c0,0.2,0,0.4,0,0.7c0,1.8-0.1,4.5-2.6,4.6c-2.2,0.1-2.6,1.5-2.9,2.8c-0.5,2.2-1.1,4.3-1.7,6.4   c-1.8,6.3-3.6,12.8-2.6,19.6c0.1,0.5,0,1.1-0.1,1.6h3.2c0.3-1.6,0.5-3.2,0.9-4.8c0-0.2,0.1-0.4,0.1-0.6c0.2-1.3,0.5-3.1,2.5-3.5   c1.6-1.6,1.6-3.6,1.7-5.7c0-1,0-2.1,0.3-3.1c0.5-2.3,1.4-4.4,2.2-6.5c0.9-2.3,1.9-4.7,2.3-7.2c0.2-1.6,0.7-3.2,1.1-4.7   c0.4-1.4,0.8-2.9,1-4.4H68C67.7,364.5,67.6,366.1,67.5,367.7z"/>
	<path fill="#108C84" d="M38.8,392.2l0.1-0.2l0.2-0.1c0.4-0.2,0.5-0.5,0.6-1.1c0-0.1,0.1-0.3,0.1-0.4l0-0.1l0.1-0.1   c2.5-2.7,5.1-6.5,4-8.3c-2.6-4-0.6-6.2,1.1-8.2c0.6-0.6,1.1-1.2,1.5-1.9c0.4-0.6,0.7-1.4,1-2.1c0.9-2.1,1.9-4.4,4.5-4.9   c1.6-0.3,2.3-0.9,2.6-1.9h-7.8c-1.2,2-2.6,4-3.9,5.9c-2.2,3.2-4.5,6.5-6.1,10.1l-0.1,0.2l-0.1,0.1c-0.5,0.2-0.8,0.8-1.1,1.4   c-0.5,0.9-1.2,2.1-2.6,1.7c-2.4-0.6-3.2,0.6-4.2,2.2c-0.3,0.5-0.6,0.9-0.9,1.3c-0.4,0.5-0.8,1.1-1.1,1.7c-0.7,1.3-1.5,2.6-3.1,3.4   l-0.3,0.2l-0.2-0.3c-0.8-1-0.6-2-0.5-2.8c0.1-0.4,0.1-0.7,0.1-1l0-0.1l0.1-0.1c0.9-1.6,1.7-3.1,2.6-4.7c1.9-3.5,3.9-7.2,6-10.7   l0.6-1c1.5-2.4,2.9-4.8,3.9-7.3h-8.3c-0.4,0.3-0.8,0.7-1.2,1c-7.5,6.1-14,10.3-20.6,13.3c-1.8,0.8-3.5,1.9-5.1,3.2   c0.4,2.9,1.1,5.9,1.9,8.9c0-0.1,0.1-0.1,0.1-0.2c1.8-2.5,3.7-5,6-7.2c0.2-0.1,0.3-0.3,0.5-0.4c1-1,1.9-1.9,3.7-1.3l0.4,0.1l-1,3   l-0.9,1.6l-0.1,0.1c-1.9,1.2-2.9,3-4.1,4.9c-0.3,0.5-0.7,1.1-1,1.6l-0.1,0.1c-1,0.8-1.6,1.9-1.8,3.3l0,0.3l0,0   c0.4,1.3,0.9,2.6,1.4,3.9c0.1-0.1,0.2-0.1,0.3-0.2c2.9-1.9,5.6-3.8,7.1-7c2.1-4.5,4.2-9.1,6-13.2c0.3-0.6,0.4-1.2,0.6-1.9   c0.1-0.3,0.2-0.6,0.2-1l0-0.2l0.2-0.1c0.7-0.5,1.3-1.2,1.8-2.1c1-1.4,2.1-3.1,4.6-3.3l0.7-0.1l-0.2,0.7c-1.3,3.8-2.8,6.8-4.6,9.6   c-1.9,2.7-2.6,5.7-3.4,8.9c-0.6,2.4-1.2,4.9-2.3,7.2c-1.1,2.3-2.3,4.5-3.6,6.7h4.3c1-1.7,2-3.4,3-5l2.4-4c0.4-0.6,0.3-1-0.1-1.5   l-0.5-0.5l3.7-1.2c-0.1-0.2-0.2-0.4-0.2-0.6c0-0.3,0.1-0.5,0.3-0.6c1.4-1.1,2.6-2.4,3.8-3.7c2.5-2.7,5.1-5.5,9.3-6.2l0.1,0l0.1,0   c0.6,0.2,1.2,0.5,1.4,1.1c0.2,0.6-0.2,1.3-0.7,1.8c-4.5,5.7-7.4,12.6-8.5,20.3h3.7C36.4,399.6,37.4,395.9,38.8,392.2z"/>
	<path fill="#108C84" d="M59.3,363.5c-0.3,0.5-0.5,1-0.7,1.6c-0.6,1.6-1.4,3.4-2.8,3.2c-2.8-0.4-3.3,1-3.9,2.7   c-0.2,0.6-0.5,1.3-0.8,1.8c-1.2,1.8-1.5,3.9-1.8,6.1c-0.3,1.9-0.6,3.8-1.5,5.7l-0.6,1.3c-2.7,5.6-5.5,11.4-7.3,17.6h7.3   c0.5-1.1,0.9-2.2,1.1-3.3c0.4-1.8,1.1-3.5,1.8-5.1c0.3-0.7,0.5-1.3,0.8-2c2-5.3,3.4-10.3,4-15.3c0.4-3.2,2.2-6.3,3.9-9.2   c0.8-1.4,1.7-2.9,2.3-4.3c0.1-0.3,0.3-0.7,0.4-1.2h-2C59.5,363.2,59.4,363.3,59.3,363.5z"/>
	<path fill="#108C84" d="M30.6,392.5c0,0-0.2-0.1-1,0.1l-0.2,0.5c-1.8,3.6-3.6,7.2-6,10.5h6c0.1-0.5,0.3-1.1,0.4-1.6   c0.7-2.5,1.3-4.9,0.9-7.4c0-0.3,0-0.7,0-1C30.7,393.2,30.8,392.6,30.6,392.5z"/>
	<path fill="#108C84" d="M14.8,365.2c0-0.1,0.8,1.4,0.8,1.4c0,0,0.1,0,0.1,0c1.6-0.2,3.5-1.8,5.1-3.4h-6.6c-0.3,0.7-0.4,1.4-0.1,2   c0,0,0,0,0,0L14.8,365.2z"/>
	<path fill="#108C84" d="M54.2,400.4c0-0.2,0-0.4-0.1-0.5c-0.1-1-0.2-1.4-0.9-1.4c0,0,0,0,0,0c-0.4,0-0.5,0.2-0.6,1   c0,0.2-0.1,0.5-0.1,0.6c-0.3,1.1-0.6,2.2-0.9,3.4H54C54.3,402.6,54.3,401.5,54.2,400.4z"/>
	<path fill="#108C84" d="M87.6,394.7c-0.1-0.2-0.1-0.5-0.1-0.8c-0.1-1-0.2-1.4-0.9-1.4c-0.1,0-0.1,0-0.2,0c-0.3,0-0.5,0.1-0.7,0.3   c-0.3,0.4-0.2,1.1-0.1,1.7c0,0.2,0.1,0.3,0.1,0.5c0.2,2.4,0,4.8-0.2,7.1c0,0.5-0.1,0.9-0.1,1.4h4.1c0-0.2-0.1-0.4-0.1-0.6   C88.7,400.2,88.2,397.4,87.6,394.7z"/>
	<path fill="#108C84" d="M107.3,396.4c0.3-0.6,0-1.1-0.8-1.7C106.7,395.4,106.9,396,107.3,396.4z"/>
	<path fill="#108C84" d="M93.6,395.6c-0.2-0.4-0.5-0.7-0.8-0.8c-0.1,0-0.3,0-0.4,0.1c-0.4,0.2-0.4,0.4-0.2,1.2   c0.1,0.2,0.1,0.4,0.2,0.6c0.5,2.4,1.5,4.6,2.6,6.8h4.6C97.4,401.1,95.2,398.6,93.6,395.6z"/>
	<path fill="#108C84" d="M101.6,394.4c-0.1-0.2-0.2-0.4-0.2-0.6c-0.3-0.8-0.7-1.8-0.3-2.5c0.3-0.5,1-0.9,2.1-1l0.3,0l0.2,0.2   c0.2,0.4,0.4,0.8,0.6,1.2c0.5,1,1,2,2.1,2.5l0,0c-0.1-1.6-0.9-3-2.3-4.4l-0.1-0.1c-3.4-7-8.3-13.2-15.4-19.5l0.1,1.4   c0.1,1.3,0.2,2.4,0.2,3.4c0.4,4,2.2,7.3,4.2,10.7c0.8,1.4,1.6,2.8,2.3,4.3c2.5,5.2,4.9,9.9,8.6,13.5h2.7c-0.3-0.5-0.6-0.9-0.9-1.4   C104.2,399.7,102.6,397.2,101.6,394.4z"/>
	<path fill="#108C84" d="M75.1,371.4c-0.6,1.9-1.2,3.9-1.8,5.9c-0.2,0.6-0.3,1.3-0.5,1.9c-1,3.7-2.1,7.5-1,11.4c0.3,1,0.5,2,0.8,3   c0.7,2.5,1.3,5.1,2.4,7.5c0.3,0.8,0.6,1.6,0.8,2.5h5.4c0.1-1.6,0.3-3.2,0.5-4.7c0.4-2.9,0.7-5.9,0.4-8.9c0-0.2,0-0.4-0.1-0.7   c-0.2-1.6-0.3-3.3-1.4-3.7c-1.8-0.6-2.7-1.2-3-2.1c-0.3-1,0.5-2,1.3-2.9c0.4-0.4,0.7-0.8,1-1.3l0.5-0.8l0.3,0.9c1,3,2.5,5,4.8,6.3   l0.2,0.1l0.1,0.2c0.3,1,0.6,1.8,1.6,2.1c0.6-1.5-0.3-2.6-1.4-3.8l-0.1-0.1l0-0.2c-0.1-2.3-1-4.6-1.9-6.7c-1.1-2.6-2.2-5.3-1.9-8.4   c0.3-2.7-0.3-4.6-1.8-5.8h-2.7C76.9,365.9,76,368.7,75.1,371.4z"/>
</g>
<g>
	<path fill="none" d="M257.7,367.8c-5.2-1.7-12.1,0.7-15.3,5.3c-4.2,6.1-2.8,10.4,4.5,12c4.3,1,8.7,1.6,13.1,1.9   c4.4,0.3,8.5-3.4,8.4-7.2C268.4,375,263.8,369.8,257.7,367.8z"/>
	<path fill="#E35361" d="M305,363.1h-24.4c-0.3,0.6-0.6,1.2-0.9,1.8c-2,3.6-4.8,4.3-8.3,3.3c-2.5-0.8-5-2.7-7-5.1h-26.2   c0.4,4.8-2.3,9.1-4.6,13.2c-1.7,3.2-7.8,2.6-10.5-0.7c-3.1-3.8-5.6-8.1-7.8-12.5h-10.8c-2.2,3.2-4.8,5.9-7.9,7.9v6   c3.9-3,8.6-4.1,12.6-2.5c4.8,1.9,9,7.4,8.9,11.6c-0.7,3.3-1.4,6.5-4.6,8.3c-3.2,1.8-6,0.6-8.7-1.2c-2.7-1.9-5.5-3.7-8.1-5.7v4.7   c0.4,0.3,0.7,0.6,1.1,0.9c3.3,2.9,7,5.5,10.6,8.1c1,0.7,1.8,1.5,2.6,2.2h10.1c0.2-0.7,0.4-1.4,0.7-2.1c1.8-4.1,3.1-8.4,6.3-11.7   c2.4-2.4,5.4-4.4,8.3-3.4c6.1,2,12.5,2.9,18.7,4.6c8.8-4.4,17.5-8.9,25.8-13.4c2.3-4.1,5.6-5.8,9-5c5.2-2.9,10.2-5.9,15.1-8.9   C304.9,363.3,304.9,363.2,305,363.1z M260,387.1c-4.4-0.3-8.8-1-13.1-1.9c-7.3-1.7-8.7-5.9-4.5-12c3.2-4.6,10.1-7,15.3-5.3   c6.1,2,10.7,7.2,10.8,12C268.5,383.6,264.4,387.4,260,387.1z"/>
</g>
<g>
	<path fill="#3C3C3B" d="M490.5,131.5c1.3,1.8,1.9,3.8,1.9,6.2c0,2.8-0.7,5.2-2.1,7.3s-3.3,3.7-5.8,4.8s-5.3,1.7-8.6,1.7h-16.8   l0.6-9.2v-27.8l-0.6-8.9h16.8c2.8,0,5.2,0.6,7.3,1.7s3.7,2.7,4.8,4.7c1.1,2,1.7,4.3,1.7,6.9c0,1.9-0.4,3.5-1.2,5   c-0.8,1.5-2,2.7-3.6,3.6C487.4,128.4,489.2,129.7,490.5,131.5z M467.5,112.9v11.3h6.6c2.7,0,4.7-0.4,5.9-1.3   c1.2-0.9,1.8-2.2,1.8-4.1c0-2-0.6-3.5-1.8-4.5c-1.2-1-3.1-1.5-5.8-1.5H467.5z M482.2,142.5c1.5-1.1,2.2-2.7,2.2-4.8   c0-4.2-2.8-6.2-8.3-6.2h-8.7v12.7h8.5C478.7,144.2,480.8,143.6,482.2,142.5z"/>
	<path fill="#3C3C3B" d="M499.7,109.2c-1-0.8-1.5-1.8-1.5-3s0.5-2.2,1.5-3c1-0.8,2.1-1.2,3.5-1.2c1.4,0,2.6,0.4,3.6,1.2   c1,0.8,1.5,1.8,1.5,3s-0.5,2.2-1.5,3c-1,0.8-2.2,1.2-3.6,1.2C501.9,110.3,500.7,110,499.7,109.2z M499.4,142.3v-18.7l-0.5-8.9h8.5   l-0.6,8.9v18.7l0.6,9.2h-8.5L499.4,142.3z"/>
	<path fill="#3C3C3B" d="M518.4,147.6c-2.5-3.2-3.8-8.1-3.8-14.5c0-6.4,1.3-11.3,3.8-14.5c2.5-3.2,6.5-4.8,11.9-4.8   s9.4,1.6,11.9,4.8c2.5,3.2,3.8,8,3.8,14.5c0,6.4-1.3,11.3-3.8,14.5c-2.5,3.2-6.5,4.9-11.9,4.9S520.9,150.8,518.4,147.6z    M535.2,144.1c1.1-0.7,1.9-1.9,2.4-3.6c0.5-1.7,0.7-4.2,0.7-7.3c0-3.2-0.2-5.6-0.7-7.3c-0.5-1.7-1.2-2.9-2.4-3.6   c-1.1-0.7-2.8-1.1-4.9-1.1c-2.1,0-3.8,0.4-4.9,1.1c-1.1,0.7-1.9,1.9-2.4,3.6c-0.5,1.7-0.7,4.2-0.7,7.3c0,3.2,0.2,5.6,0.7,7.3   c0.5,1.7,1.2,2.9,2.4,3.6c1.1,0.7,2.8,1.1,4.9,1.1C532.4,145.2,534.1,144.8,535.2,144.1z"/>
	<path fill="#3C3C3B" d="M581.4,142.3l0.6,9.1h-7.8l-0.2-3.7c-0.7,1.2-1.9,2.2-3.5,3c-1.6,0.8-3.1,1.2-4.6,1.2   c-4.4,0-7.8-1.6-10.2-4.8s-3.6-7.9-3.6-14.1c0-6.5,1.1-11.3,3.3-14.4c2.2-3.1,5.5-4.6,9.9-4.6c3.5,0,6.4,0.7,8.6,2.2v-4.8l-0.5-8.9   h8.5l-0.6,8.9V142.3z M570.8,144.3c1.3-0.4,2.3-0.9,3.1-1.6v-20.3c-1.6-0.7-3.8-1-6.6-1c-2,0-3.5,0.3-4.6,1   c-1.1,0.7-1.8,1.8-2.3,3.5c-0.5,1.7-0.7,4.1-0.7,7.2c0,3,0.2,5.3,0.6,7c0.4,1.7,1.2,2.9,2.2,3.7c1,0.8,2.4,1.1,4.1,1.1   C568.1,144.9,569.5,144.7,570.8,144.3z"/>
	<path fill="#3C3C3B" d="M590.8,109.2c-1-0.8-1.5-1.8-1.5-3s0.5-2.2,1.5-3c1-0.8,2.1-1.2,3.5-1.2c1.4,0,2.6,0.4,3.6,1.2   c1,0.8,1.5,1.8,1.5,3s-0.5,2.2-1.5,3c-1,0.8-2.2,1.2-3.6,1.2C592.9,110.3,591.8,110,590.8,109.2z M590.5,142.3v-18.7l-0.5-8.9h8.5   l-0.6,8.9v18.7l0.6,9.2H590L590.5,142.3z"/>
	<path fill="#3C3C3B" d="M636.4,114.7l-3.2,8.9l-8,27.8h-10.9l-7.9-27.8l-3.2-8.9h9.5l1.6,8.9l5.4,22l5.4-22l1.7-8.9H636.4z"/>
	<path fill="#3C3C3B" d="M643.3,147.4c-2.5-3.2-3.7-8-3.7-14.3c0-6.2,1.3-11,3.9-14.3s6.5-5,11.7-5c5,0,8.8,1.3,11.2,3.9   s3.9,6.7,4.3,12.2l-1.7,6.2h-21.6c0.1,2.2,0.5,4,1.1,5.3s1.6,2.2,2.9,2.8c1.3,0.6,3.1,0.9,5.3,0.9c2.7,0,5.1-0.3,7.1-0.8   c2.1-0.5,3.6-1.2,4.7-2.1l1.1,0.6l-1.7,6.5c-1.5,1.1-3.3,1.9-5.2,2.4c-2,0.5-4.5,0.7-7.5,0.7C649.7,152.2,645.7,150.6,643.3,147.4z    M663.1,130.2c0-3.2-0.7-5.5-1.9-7c-1.2-1.5-3.1-2.2-5.8-2.2c-2.8,0-4.8,0.7-6,2.1c-1.2,1.4-1.9,3.8-2.1,7.1H663.1z"/>
	<path fill="#3C3C3B" d="M699.6,115.2l-1.2,6.5l-0.8,0.6c-0.5-0.4-1.3-0.7-2.3-0.9s-2.1-0.3-3.3-0.3c-2.8,0-5,1.2-6.7,3.5v17.8   l0.5,9.2h-8.5l0.6-9.2v-18.7l-0.6-8.9h6.8l1.1,4c1.1-1.5,2.3-2.6,3.8-3.3c1.5-0.7,3-1.1,4.7-1.1   C696.3,114.3,698.3,114.6,699.6,115.2z"/>
	<path fill="#3C3C3B" d="M709.6,150.9c-1.9-0.8-3.7-2-5.5-3.8l-1.1-6.7l0.9-0.2c1.8,1.5,3.7,2.6,5.8,3.4c2,0.8,4,1.2,6.1,1.2   c2.2,0,3.8-0.3,4.7-0.8c1-0.5,1.5-1.3,1.5-2.5c0-1.1-0.5-2-1.6-2.8c-1.1-0.7-3.2-1.6-6.3-2.6c-2.6-0.8-4.6-1.7-6.1-2.6   c-1.5-0.9-2.5-2-3.2-3.3c-0.6-1.3-1-2.9-1-4.9c0-3.6,1.1-6.4,3.3-8.3c2.2-2,5.4-2.9,9.5-2.9c2.5,0,4.7,0.3,6.6,0.9   c1.9,0.6,3.7,1.6,5.2,2.9l-1.2,6.8l-0.9,0.2c-0.7-1.1-2-1.9-3.8-2.6c-1.8-0.7-3.6-1-5.4-1c-3.8,0-5.7,1.1-5.7,3.4   c0,0.8,0.2,1.5,0.6,2.1c0.4,0.6,1.2,1.1,2.2,1.6c1.1,0.5,2.6,1,4.7,1.7c3.8,1.1,6.4,2.5,8,4.2c1.6,1.7,2.4,4,2.4,6.8   c0,3.6-1.1,6.3-3.4,8.2c-2.2,1.9-5.5,2.8-9.7,2.8C713.7,152.1,711.4,151.7,709.6,150.9z"/>
	<path fill="#3C3C3B" d="M737.6,109.2c-1-0.8-1.5-1.8-1.5-3s0.5-2.2,1.5-3c1-0.8,2.1-1.2,3.5-1.2c1.4,0,2.6,0.4,3.6,1.2   c1,0.8,1.5,1.8,1.5,3s-0.5,2.2-1.5,3c-1,0.8-2.2,1.2-3.6,1.2C739.7,110.3,738.6,110,737.6,109.2z M737.3,142.3v-18.7l-0.5-8.9h8.5   l-0.6,8.9v18.7l0.6,9.2h-8.5L737.3,142.3z"/>
	<path fill="#3C3C3B" d="M752.4,116.9l4-2.1l1.9-7.7h5.6v7.7h10.1v7h-10.1v18.1c0,3.3,1.3,5,4,5c1.3,0,2.6-0.3,3.8-0.8   s2.1-1.3,2.8-2.1l1.1,0.6l-1.6,6.4c-1.4,1.2-2.8,2.1-3.9,2.6c-1.2,0.5-2.5,0.7-4,0.7c-3.4,0-5.8-1-7.3-3.1   c-1.5-2.1-2.3-5.6-2.3-10.6v-16.6h-4V116.9z"/>
	<path fill="#3C3C3B" d="M810.7,114.7l-3.2,8.9l-8,27.8c-2.3,5.9-5.7,10.3-10,13.2l-6.3-5.9l0.4-0.7c1.4-0.4,2.9-1.2,4.6-2.6   c1.7-1.3,2.8-2.7,3.5-4h-3l-7.9-27.8l-3.2-8.9h9.5l1.6,8.9l5.4,22l5.4-22l1.7-8.9H810.7z"/>
	<path fill="#3C3C3B" d="M462.4,173.3c3-3.8,7.9-5.8,14.6-5.8c2.2,0,4.4,0.4,6.7,1.1s4.4,1.8,6.4,3.3l-1.2,6.9l-1.2,0.6   c-1.1-1.3-2.6-2.4-4.5-3.2c-2-0.8-4-1.2-6-1.2c-2.7,0-4.8,0.6-6.4,1.7s-2.8,2.8-3.5,5.2c-0.7,2.4-1.1,5.5-1.1,9.4   c0,4.1,0.3,7.4,1,9.8c0.6,2.4,1.7,4.2,3.1,5.2c1.4,1.1,3.3,1.6,5.7,1.6c3.1,0,5.4-1,6.8-2.9c1.5-1.9,2.2-5,2.2-9.1h-10.1v-7.3H492   v25.8h-4.2l-1.4-5c-1.1,1.8-2.6,3.2-4.7,4.3c-2.1,1.1-4.3,1.7-6.6,1.7c-5.9,0-10.2-1.9-13-5.8c-2.8-3.9-4.2-10-4.2-18.3   C457.9,183.2,459.4,177.2,462.4,173.3z"/>
	<path fill="#3C3C3B" d="M502.2,210.4c-2.5-3.2-3.7-8-3.7-14.3c0-6.2,1.3-11,3.9-14.3s6.5-5,11.7-5c5,0,8.8,1.3,11.2,3.9   s3.9,6.7,4.3,12.2L528,199h-21.6c0.1,2.2,0.5,4,1.1,5.3s1.6,2.2,2.9,2.8c1.3,0.6,3.1,0.9,5.3,0.9c2.7,0,5.1-0.3,7.1-0.8   c2.1-0.5,3.6-1.2,4.7-2.1l1.1,0.6l-1.7,6.5c-1.5,1.1-3.3,1.9-5.2,2.4c-2,0.5-4.5,0.7-7.5,0.7C508.6,215.2,504.6,213.6,502.2,210.4z    M522,193.2c0-3.2-0.7-5.5-1.9-7c-1.2-1.5-3.1-2.2-5.8-2.2c-2.8,0-4.8,0.7-6,2.1c-1.2,1.4-1.9,3.8-2.1,7.1H522z"/>
	<path fill="#3C3C3B" d="M556.7,205.3v-15.9c0-1.7-0.4-3-1.2-3.9c-0.8-0.9-2-1.3-3.6-1.3c-1.4,0-2.7,0.4-4.1,1.1   c-1.4,0.7-2.6,1.8-3.5,3.3v16.8l0.5,9.2h-8.5l0.6-9.2v-18.7l-0.6-8.9h6.8l1.2,4.7c1.1-1.7,2.6-2.9,4.4-3.8s3.9-1.3,6.2-1.3   c2.9,0,5.2,0.9,6.9,2.7c1.7,1.8,2.5,4.4,2.5,7.8v17.4l0.5,9.2h-8.5L556.7,205.3z"/>
	<path fill="#3C3C3B" d="M575.2,210.6c-2.5-3.2-3.8-8.1-3.8-14.5s1.3-11.3,3.8-14.5c2.5-3.2,6.5-4.8,11.9-4.8s9.4,1.6,11.9,4.8   c2.5,3.2,3.8,8,3.8,14.5s-1.3,11.3-3.8,14.5c-2.5,3.2-6.5,4.9-11.9,4.9S577.7,213.8,575.2,210.6z M592.1,207.1   c1.1-0.7,1.9-1.9,2.4-3.6c0.5-1.7,0.7-4.2,0.7-7.3c0-3.2-0.2-5.6-0.7-7.3c-0.5-1.7-1.2-2.9-2.4-3.6c-1.1-0.7-2.8-1.1-4.9-1.1   c-2.1,0-3.8,0.4-4.9,1.1c-1.1,0.7-1.9,1.9-2.4,3.6c-0.5,1.7-0.7,4.2-0.7,7.3c0,3.2,0.2,5.6,0.7,7.3c0.5,1.7,1.2,2.9,2.4,3.6   c1.1,0.7,2.8,1.1,4.9,1.1C589.3,208.2,590.9,207.8,592.1,207.1z"/>
	<path fill="#3C3C3B" d="M647.9,205.3v-15.9c0-1.7-0.4-3-1.2-3.9c-0.8-0.9-2-1.3-3.6-1.3c-1.1,0-2.2,0.2-3.3,0.7   c-1.1,0.5-2.2,1.2-3.1,2.1v0.9v17.4l0.6,9.2h-8.5l0.5-9.2v-15.9c0-1.7-0.4-3-1.2-3.9s-2-1.3-3.6-1.3c-1.1,0-2.2,0.2-3.3,0.7   c-1.1,0.4-2.1,1.1-3,2.1v18.4l0.5,9.2H610l0.6-9.2v-18.7l-0.6-8.9h6.8l1,3.6c1.2-1.3,2.6-2.3,4.2-3c1.6-0.7,3.4-1,5.4-1   c2,0,3.7,0.4,5.1,1.3s2.5,2.1,3.2,3.8c1.2-1.6,2.6-2.9,4.4-3.8c1.8-0.9,3.8-1.3,6-1.3c2.9,0,5.2,0.9,6.9,2.7   c1.6,1.8,2.5,4.4,2.5,7.8v17.4l0.6,9.2h-8.5L647.9,205.3z"/>
	<path fill="#3C3C3B" d="M664.4,172.2c-1-0.8-1.5-1.8-1.5-3s0.5-2.2,1.5-3c1-0.8,2.1-1.2,3.5-1.2c1.4,0,2.6,0.4,3.6,1.2   c1,0.8,1.5,1.8,1.5,3s-0.5,2.2-1.5,3c-1,0.8-2.2,1.2-3.6,1.2C666.5,173.3,665.4,173,664.4,172.2z M664.1,205.3v-18.7l-0.5-8.9h8.5   l-0.6,8.9v18.7l0.6,9.2h-8.5L664.1,205.3z"/>
	<path fill="#3C3C3B" d="M683,210.6c-2.5-3.2-3.7-7.9-3.7-14.2c0-6.2,1.3-11,3.8-14.4c2.6-3.4,6.3-5,11.4-5c2.7,0,4.8,0.2,6.3,0.7   c1.5,0.4,3,1.2,4.5,2.3l-1.2,6.6l-1,0.4c-0.9-1-2-1.7-3.2-2.1c-1.2-0.4-2.7-0.6-4.7-0.6c-3,0-5.1,0.9-6.4,2.8   c-1.3,1.9-1.9,5-1.9,9.3c0,3,0.3,5.3,0.8,7c0.5,1.7,1.4,2.9,2.7,3.6c1.3,0.7,3.1,1.1,5.4,1.1c2.1,0,3.8-0.2,5.1-0.6   c1.3-0.4,2.5-1.2,3.7-2.2l1.1,0.5l-1.7,6.5c-1.6,1.3-3.1,2.1-4.4,2.6c-1.3,0.4-3.1,0.7-5.3,0.7C689.2,215.4,685.4,213.8,683,210.6z   "/>
	<path fill="#3C3C3B" d="M716.8,213.9c-1.9-0.8-3.7-2-5.5-3.8l-1.1-6.7l0.9-0.2c1.8,1.5,3.7,2.6,5.8,3.4c2,0.8,4,1.2,6.1,1.2   c2.2,0,3.8-0.3,4.7-0.8c1-0.5,1.5-1.3,1.5-2.5c0-1.1-0.5-2-1.6-2.8c-1.1-0.7-3.2-1.6-6.3-2.6c-2.6-0.8-4.6-1.7-6.1-2.6   c-1.5-0.9-2.5-2-3.2-3.3c-0.6-1.3-1-2.9-1-4.9c0-3.6,1.1-6.4,3.3-8.3c2.2-2,5.4-2.9,9.5-2.9c2.5,0,4.7,0.3,6.6,0.9   c1.9,0.6,3.7,1.6,5.2,2.9l-1.2,6.8l-0.9,0.2c-0.7-1.1-2-1.9-3.8-2.6c-1.8-0.7-3.6-1-5.4-1c-3.8,0-5.7,1.1-5.7,3.4   c0,0.8,0.2,1.5,0.6,2.1c0.4,0.6,1.2,1.1,2.2,1.6c1.1,0.5,2.6,1,4.7,1.7c3.8,1.1,6.4,2.5,8,4.2c1.6,1.7,2.4,4,2.4,6.8   c0,3.6-1.1,6.3-3.4,8.2c-2.2,1.9-5.5,2.8-9.7,2.8C721,215.1,718.7,214.7,716.8,213.9z"/>
	<path fill="#3C3C3B" d="M487.3,270.2l-1.2,7.3h-26.8l0.6-9.2v-27.8l-0.6-8.9h27.5l-1.2,7.3h-18.1v11.3h16.3l-1.2,7.3h-15.1v12.7   H487.3z"/>
	<path fill="#3C3C3B" d="M521.3,268.4l0.5,9.1H514l-0.3-4.5c-1.2,1.7-2.7,3-4.5,3.9c-1.8,0.9-3.8,1.3-6,1.3c-2.9,0-5.2-0.9-6.9-2.8   s-2.5-4.6-2.5-8v-17.4l-0.5-9.2h8.5l-0.6,9.2v15.9c0,1.8,0.4,3.2,1.3,4.1c0.9,1,2.1,1.4,3.6,1.4c1.3,0,2.7-0.4,4.1-1.2   c1.4-0.8,2.6-2,3.6-3.5v-16.8l-0.6-9.2h8.5l-0.5,9.2V268.4z"/>
	<path fill="#3C3C3B" d="M552.4,241.2l-1.2,6.5l-0.8,0.6c-0.5-0.4-1.3-0.7-2.3-0.9s-2.1-0.3-3.3-0.3c-2.8,0-5,1.2-6.7,3.5v17.8   l0.5,9.2H530l0.6-9.2v-18.7l-0.6-8.9h6.8l1.1,4c1.1-1.5,2.3-2.6,3.8-3.3s3-1.1,4.7-1.1C549,240.3,551,240.6,552.4,241.2z"/>
	<path fill="#3C3C3B" d="M559.6,273.6c-2.5-3.2-3.8-8.1-3.8-14.5c0-6.4,1.3-11.3,3.8-14.5c2.5-3.2,6.5-4.8,11.9-4.8   s9.4,1.6,11.9,4.8c2.5,3.2,3.8,8,3.8,14.5c0,6.4-1.3,11.3-3.8,14.5c-2.5,3.2-6.5,4.9-11.9,4.9S562.1,276.8,559.6,273.6z    M576.4,270.1c1.1-0.7,1.9-1.9,2.4-3.6c0.5-1.7,0.7-4.2,0.7-7.3c0-3.2-0.2-5.6-0.7-7.3c-0.5-1.7-1.2-2.9-2.4-3.6   c-1.1-0.7-2.8-1.1-4.9-1.1c-2.1,0-3.8,0.4-4.9,1.1c-1.1,0.7-1.9,1.9-2.4,3.6c-0.5,1.7-0.7,4.2-0.7,7.3c0,3.2,0.2,5.6,0.7,7.3   c0.5,1.7,1.2,2.9,2.4,3.6c1.1,0.7,2.8,1.1,4.9,1.1C573.7,271.2,575.3,270.8,576.4,270.1z"/>
	<path fill="#3C3C3B" d="M620.9,244.6c2.2,3.1,3.3,7.9,3.3,14.4c0,6.2-1.2,10.9-3.6,14.1s-5.8,4.8-10.2,4.8c-1.5,0-3.1-0.4-4.6-1.1   s-2.7-1.7-3.5-3v6.7l0.5,9.2h-8.5l0.6-9.2v-30.7l-0.6-9.1h7.2l0.3,1.8c1-0.8,2.3-1.4,3.9-1.9c1.6-0.4,3.3-0.7,5.2-0.7   C615.4,240,618.7,241.6,620.9,244.6z M613.7,269.7c1-0.8,1.7-2,2.2-3.7c0.4-1.7,0.6-4,0.6-7c0-3.1-0.2-5.5-0.7-7.2   c-0.5-1.7-1.2-2.8-2.3-3.5c-1.1-0.7-2.6-1-4.6-1c-2.8,0-4.9,0.3-6.6,1v20.3c0.7,0.7,1.8,1.2,3.1,1.6c1.3,0.4,2.7,0.6,4.1,0.6   C611.3,270.9,612.6,270.5,613.7,269.7z"/>
	<path fill="#3C3C3B" d="M633.9,273.4c-2.5-3.2-3.7-8-3.7-14.3c0-6.2,1.3-11,3.9-14.3s6.5-5,11.7-5c5,0,8.8,1.3,11.2,3.9   c2.5,2.6,3.9,6.7,4.3,12.2l-1.7,6.2h-21.6c0.1,2.2,0.5,4,1.1,5.3s1.6,2.2,2.9,2.8c1.3,0.6,3.1,0.9,5.3,0.9c2.7,0,5.1-0.3,7.1-0.8   s3.6-1.2,4.7-2.1l1.1,0.6l-1.7,6.5c-1.5,1.1-3.3,1.9-5.2,2.4c-2,0.5-4.5,0.7-7.5,0.7C640.4,278.2,636.4,276.6,633.9,273.4z    M653.7,256.2c0-3.2-0.7-5.5-1.9-7s-3.1-2.2-5.7-2.2c-2.8,0-4.8,0.7-6,2.1c-1.2,1.4-1.9,3.8-2.1,7.1H653.7z"/>
</g>
<g>
	<path fill="none" d="M264.1,4.2c-1.7,0.5-3.4,0.4-5,0.1c-5.3-1-10.1-0.1-14.9,2.2c-1.6,0.7-2.9,1.4-3.1,3.2c-0.2,1.8,0.9,3,2.3,3.8   c1.7,1.3,3.6,2,5.7,2c4,0.1,8,0,11.9,0.3c7.5,0.5,7.4-2.2,7.8-8C269,5,266.9,3.4,264.1,4.2z"/>
	<path fill="none" d="M290.3,9.9c-0.4,0-2.4,0.4-1.4,2c1,1.6,2.2,2,3.5,0.7C293.7,11.4,291.6,9.9,290.3,9.9z"/>
	<path fill="none" d="M298.4,4.4c-3.6-1.5-7.4-1.5-10.6,1.5c-4.3,3.9-7.1,3.7-10.3-0.8c-0.5-0.7-0.7-2.1-2.2-1.5   c-1.2,0.5-1,1.7-0.9,2.7c0.2,3.5,0.7,6.9-0.8,10.3c-0.9,2,1.5,3.9,3.5,2.7c5.4-3.2,9.7-0.7,14.2,2.5c0.8,0.6,1.6,1.3,2.5,1.8   c2.4,1.5,6.2,1.7,6.7-1c0.7-3.6,2.8-5,6.1-5.7c2.7-0.6,1.7-3.9-0.1-6.2C304.4,7.6,301.4,5.7,298.4,4.4z M301,16.8   c-1.5,2.7-8.5,3.2-12,0.6c-1.9-1.8-3.6-4.4-1.9-7.5c1.9-3.5,7.5-3.7,11.6-1.1C302.1,10.9,302.8,13.5,301,16.8z"/>
	<path fill="#6F6F6E" d="M206.8,28.9c-0.9-4.9-3.6-9.5-8.4-12.1c-1.2,4.2-1.2,4.2,0.8,7.7c0.9,1.5,1.4,3,1,4.4H206.8z"/>
	<path fill="#6F6F6E" d="M199.7,10.3c-0.9,1.3-0.1,2.2,1.2,3.1c5.8,3.9,9.8,9,11.3,15.5h4c0,0,0-0.1-0.1-0.1   C211.2,22.3,208.4,13.7,199.7,10.3z"/>
	<path fill="#6F6F6E" d="M315.6,16.6c-1.2-0.6-2-1.6-2.4-2.8c-1.6-4.6-4.8-7.8-8.2-11c-1.2-1.1-2.4-2-3.6-2.8h-13.7   c-0.9,0.6-1.9,1.3-2.8,2.1c-1.4,1.2-3.1,2.1-4.7,0.3c-0.7-0.8-1-1.6-1-2.4h-7.2c-0.6,1-1.6,1-3,0h-23.7c-3.7,0.7-7.6,0.1-11.1,2.1   c-1.4,0.8-2.2-0.1-2.9-1.4c-0.1-0.3-0.3-0.5-0.4-0.7H215c0.6,0.8,1.5,1.2,2.7,1.4c1.6,0.2,3.1,0.9,4.4,1.8c2.4,1.7,5,2.2,7.8,1.5   c2.2-0.5,3.2,0.2,3.9,2.5c1.8,6.6,5.9,11.4,12.7,13.1c6.1,1.5,12.4,1.1,18.6,0c1.3-0.2,2.6-1,3.8,0.1c0.4,0.4,0.4,1.1,0.1,1.6   c-1,1.4-2.5,1.5-4,1.6c-0.7,0-1.3-0.3-2-0.3c-3.2,0-6.4-0.4-9.5,0c-9.1,1.3-16.8-0.8-22.9-8.1c-2.1-2.5-4.4-5.1-7.9-5.6   c-5-0.7-8.8-3.2-12.4-6.5c-1.1-1-2.4-1.9-3.2-3.1h-3.1c-0.5,1-0.8,2-1.4,2.9c-1.1,2-0.6,3.5,1.3,4.9c3,2.2,6.2,4.2,8.9,6.9   c4,4,7,8.8,10.2,13.4c0.2,0.2,0.3,0.5,0.5,0.7h12.2c-1.4-1.5-3.1-2.8-3.6-5.1c1.7,1.2,3.4,2.4,5,3.6c0.5,0.4,1.5,0.7,1,1.5h12.2   c1.1-0.1,2.2-0.2,3.3-0.4c5.5-0.9,11.3-0.3,16.6-3c3.4-1.8,7.6-0.5,10.3,2.4c0.4,0.4,0.6,0.8,0.6,1.1h7.3c-2-1.2-4-2.4-5.9-3.7   c-1.1-0.7-2.1-1.4-1.4-2.5c0.7-1.2,2.1-1.3,3.3-0.3c2,1.8,4.7,2.3,6.9,3.6c2.2,1.2,4.8,1.5,6.8,2.9h5.9c-1-1.7-0.8-3.3,0.3-5.1   c1.6-2.6,6.3-5.5,7.8-4.3c3.4,2.7,7.2,4.3,7.9,9.4c0,0,0,0,0,0c0,0,0,0,0,0.1h1.1c0-0.1,0-0.1,0-0.2   C321.6,23.6,320.9,19.1,315.6,16.6z M261,15.8c-4-0.3-8-0.2-11.9-0.3c-2.1,0-4-0.7-5.7-2c-1.5-0.9-2.6-2.1-2.3-3.8   c0.2-1.7,1.6-2.4,3.1-3.2c4.8-2.3,9.7-3.1,14.9-2.2c1.6,0.3,3.3,0.4,5-0.1c2.8-0.8,4.9,0.8,4.7,3.7C268.4,13.6,268.5,16.4,261,15.8   z M306.5,16.7c-3.3,0.7-5.4,2.1-6.1,5.7c-0.5,2.7-4.3,2.5-6.7,1c-0.9-0.5-1.7-1.2-2.5-1.8c-4.5-3.2-8.8-5.7-14.2-2.5   c-2,1.2-4.4-0.7-3.5-2.7c1.5-3.5,0.9-6.8,0.8-10.3c0-0.9-0.3-2.1,0.9-2.7c1.5-0.6,1.7,0.8,2.2,1.5c3.3,4.6,6.1,4.7,10.3,0.8   c3.2-2.9,7.1-3,10.6-1.5c3.1,1.3,6,3.3,8.1,6.1C308.2,12.8,309.2,16.1,306.5,16.7z"/>
	<path fill="#6F6F6E" d="M318.2,10.4c-1-3.8-2.5-7.2-4.2-10.4h-5.2C311.5,3.6,314.6,7.1,318.2,10.4z"/>
	<path fill="#6F6F6E" d="M298.7,8.8c-4.1-2.5-9.7-2.4-11.6,1.1c-1.7,3.2,0,5.8,1.9,7.5c3.6,2.5,10.5,2,12-0.6   C302.8,13.5,302.1,10.9,298.7,8.8z M292.4,12.6c-1.3,1.2-2.5,0.8-3.5-0.7c-1-1.6,1-2,1.4-2C291.6,9.9,293.7,11.4,292.4,12.6z"/>
</g>
</svg>