<?xml version="1.0" encoding="UTF-8" standalone="no"?>
<svg
   width="436.03125pt"
   height="57.992188pt"
   viewBox="0 0 436.03124 57.992189"
   version="1.2"
   id="svg23"
   sodipodi:docname="ClimateAdaptEOSC_ColourPos2.svg"
   inkscape:version="1.1.2 (0a00cf5339, 2022-02-04)"
   xmlns:inkscape="http://www.inkscape.org/namespaces/inkscape"
   xmlns:sodipodi="http://sodipodi.sourceforge.net/DTD/sodipodi-0.dtd"
   xmlns="http://www.w3.org/2000/svg"
   xmlns:svg="http://www.w3.org/2000/svg">
  <defs
     id="defs27" />
  <sodipodi:namedview
     id="namedview25"
     pagecolor="#ffffff"
     bordercolor="#666666"
     borderopacity="1.0"
     inkscape:pageshadow="2"
     inkscape:pageopacity="0.0"
     inkscape:pagecheckerboard="0"
     inkscape:document-units="pt"
     showgrid="false"
     fit-margin-left="1"
     fit-margin-top="1"
     fit-margin-bottom="1"
     fit-margin-right="1"
     inkscape:zoom="1.825624"
     inkscape:cx="219.9248"
     inkscape:cy="38.343053"
     inkscape:window-width="2192"
     inkscape:window-height="1298"
     inkscape:window-x="0"
     inkscape:window-y="0"
     inkscape:window-maximized="1"
     inkscape:current-layer="svg23" />
  <g
     id="surface3469"
     transform="translate(-22.929688,-13.523438)">
    <path
       style="fill:#140f0c;fill-opacity:1;fill-rule:nonzero;stroke:none"
       d="m 355.60937,34.753906 c 0.8125,-0.792968 1.73047,-1.382812 2.75391,-1.765625 1.01953,-0.378906 2.05078,-0.570312 3.08984,-0.570312 1.28125,0 2.50391,0.277343 3.66407,0.832031 1.16015,0.554688 2.14453,1.339844 2.96093,2.363281 0.8125,1.019531 1.26954,2.242188 1.375,3.660157 V 39.6875 h -16.3164 c 0.12109,-0.648438 0.28125,-1.261719 0.5,-1.816406 0.5,-1.28125 1.16015,-2.320313 1.97265,-3.117188 m 17.63672,7.972656 c 0.41407,-0.363281 0.6211,-0.820312 0.6211,-1.375 -0.0352,-1.972656 -0.39844,-3.738281 -1.08985,-5.296874 -0.6914,-1.558594 -1.60937,-2.910157 -2.7539,-4.050782 -1.14063,-1.144531 -2.45703,-2.007812 -3.94532,-2.597656 -1.49218,-0.589844 -3.03125,-0.882812 -4.625,-0.882812 -2.14843,0 -4.17968,0.5625 -6.10156,1.6875 -1.92187,1.125 -3.48047,2.753906 -4.67578,4.882812 -1.19531,2.128906 -1.79297,4.699219 -1.79297,7.710938 0,2.703124 0.57422,5.082031 1.71485,7.144531 1.14453,2.058593 2.7539,3.679687 4.83203,4.855469 2.07812,1.175781 4.51953,1.765624 7.32422,1.765624 1.86718,0 3.625,-0.398437 5.26953,-1.195312 1.64453,-0.796875 2.96875,-1.730469 3.97656,-2.804688 0.55078,-0.484374 0.82812,-1.019531 0.82812,-1.609374 0,-0.484376 -0.17187,-0.902344 -0.51953,-1.246094 -0.34765,-0.347656 -0.76172,-0.519532 -1.24609,-0.519532 -0.44922,0 -0.89844,0.15625 -1.35156,0.46875 -0.44922,0.484376 -0.9961,0.960938 -1.63282,1.425782 -0.64453,0.46875 -1.41406,0.855468 -2.3125,1.167968 -0.90234,0.3125 -1.95703,0.46875 -3.16796,0.46875 -1.94141,0 -3.63672,-0.441406 -5.08985,-1.324218 -1.45703,-0.882813 -2.58984,-2.085938 -3.40234,-3.609375 C 353.39844,46.46875 353,44.960938 352.90625,43.273438 h 18.88281 c 0.55469,0 1.03906,-0.183594 1.45703,-0.546876"
       id="path2" />
    <path
       style="fill:#140f0c;fill-opacity:1;fill-rule:nonzero;stroke:none"
       d="m 401.39453,42.546875 c 0,-2.007813 -0.40625,-3.765625 -1.21875,-5.273437 -0.81641,-1.503907 -1.92187,-2.699219 -3.32422,-3.582032 -1.40234,-0.882812 -2.96875,-1.324218 -4.70312,-1.324218 -1.76172,0 -3.34766,0.441406 -4.75,1.324218 -1.40235,0.882813 -2.51953,2.078125 -3.35157,3.582032 -0.82812,1.507812 -1.24609,3.265624 -1.24609,5.273437 0,1.972656 0.41797,3.722656 1.24609,5.246094 0.83204,1.523437 1.94922,2.726562 3.35157,3.609375 1.40234,0.882812 2.98828,1.324218 4.75,1.324218 1.73437,0 3.30078,-0.441406 4.70312,-1.324218 1.40235,-0.882813 2.50781,-2.085938 3.32422,-3.609375 0.8125,-1.523438 1.21875,-3.273438 1.21875,-5.246094 m 4.20703,0 c 0,2.699219 -0.59375,5.109375 -1.78906,7.21875 -1.19531,2.113281 -2.80469,3.773437 -4.83203,4.984375 -2.02735,1.214844 -4.30078,1.820312 -6.83203,1.820312 -2.52735,0 -4.8125,-0.605468 -6.85547,-1.820312 -2.04297,-1.210938 -3.66016,-2.871094 -4.85547,-4.984375 -1.19531,-2.109375 -1.79297,-4.519531 -1.79297,-7.21875 0,-2.703125 0.59766,-5.109375 1.79297,-7.222656 1.19531,-2.109375 2.8125,-3.769531 4.85547,-4.984375 2.04297,-1.210938 4.32812,-1.816406 6.85547,-1.816406 2.53125,0 4.80468,0.605468 6.83203,1.816406 2.02734,1.214844 3.63672,2.875 4.83203,4.984375 1.19531,2.113281 1.78906,4.519531 1.78906,7.222656"
       id="path4" />
    <path
       style="fill:#140f0c;fill-opacity:1;fill-rule:nonzero;stroke:none"
       d="M 410.27734,51.792969 C 410,51.339844 409.87109,50.867188 409.88672,50.363281 c 0.0195,-0.5 0.30469,-0.941406 0.85937,-1.324219 0.37891,-0.242187 0.80469,-0.34375 1.27344,-0.3125 0.46484,0.03516 0.89063,0.261719 1.26953,0.675782 0.96875,1.144531 2.07813,2.050781 3.32422,2.726562 1.24609,0.675782 2.76953,1.011719 4.57031,1.011719 0.79688,-0.03125 1.6211,-0.171875 2.46875,-0.414063 0.84766,-0.242187 1.5586,-0.667968 2.12891,-1.273437 0.57031,-0.605469 0.85937,-1.410156 0.85937,-2.414063 0,-0.96875 -0.29687,-1.742187 -0.88671,-2.3125 -0.58594,-0.570312 -1.35938,-1.039062 -2.3086,-1.402343 -0.95312,-0.363281 -1.96484,-0.683594 -3.03906,-0.960938 -1.14063,-0.3125 -2.26953,-0.65625 -3.375,-1.039062 -1.10938,-0.378907 -2.10547,-0.875 -2.98828,-1.480469 -0.88281,-0.605469 -1.59375,-1.367188 -2.12891,-2.285156 -0.53906,-0.917969 -0.80469,-2.050782 -0.80469,-3.402344 0,-1.558594 0.42188,-2.90625 1.26954,-4.050781 0.85156,-1.144531 1.98437,-2.023438 3.40625,-2.648438 1.41796,-0.625 2.99218,-0.933593 4.72656,-0.933593 0.96875,0 1.98047,0.113281 3.03515,0.335937 1.0586,0.226563 2.08594,0.605469 3.09375,1.144531 1.00391,0.535156 1.88672,1.273438 2.64844,2.207032 0.3086,0.34375 0.48438,0.777343 0.51953,1.296874 0.0352,0.519532 -0.1914,0.988282 -0.67578,1.402344 -0.38281,0.277344 -0.80469,0.40625 -1.27344,0.390625 -0.46875,-0.01563 -0.85546,-0.183593 -1.16796,-0.492187 -0.76172,-0.902344 -1.6875,-1.585938 -2.78125,-2.054688 -1.08985,-0.464844 -2.29297,-0.699218 -3.60938,-0.699218 -0.79687,0 -1.59375,0.128906 -2.38672,0.390624 -0.79687,0.257813 -1.46484,0.664063 -2,1.21875 C 415.375,34.21875 415.10937,35 415.10937,36 c 0.0352,0.9375 0.34375,1.699219 0.9336,2.289062 0.58594,0.585938 1.38672,1.0625 2.39062,1.425782 1.00391,0.363281 2.10938,0.71875 3.32422,1.066406 1.10547,0.277344 2.17188,0.597656 3.19141,0.960938 1.02344,0.363281 1.94922,0.839843 2.78125,1.425781 0.83203,0.589843 1.48828,1.34375 1.97265,2.261719 0.48438,0.917968 0.72657,2.070312 0.72657,3.453124 0,1.59375 -0.44922,2.96875 -1.35157,4.128907 -0.89843,1.160156 -2.08593,2.042969 -3.55468,2.648437 -1.47266,0.605469 -3.0586,0.910156 -4.75391,0.910156 -1.90625,0 -3.79297,-0.355468 -5.66016,-1.066406 -1.87109,-0.707031 -3.48046,-1.945312 -4.83203,-3.710937"
       id="path6" />
    <path
       style="fill:#140f0c;fill-opacity:1;fill-rule:nonzero;stroke:none"
       d="m 448.35156,28.523438 c 1.79688,0 3.40625,0.191406 4.82813,0.570312 1.42187,0.382812 2.54687,0.898438 3.3789,1.558594 0.82813,0.65625 1.24219,1.402344 1.24219,2.234375 0,0.484375 -0.15234,0.933593 -0.46484,1.347656 -0.3125,0.417969 -0.7461,0.625 -1.30078,0.625 -0.44922,0 -0.82032,-0.09375 -1.11329,-0.285156 -0.29687,-0.191407 -0.57421,-0.417969 -0.83203,-0.675781 -0.26172,-0.261719 -0.61718,-0.511719 -1.0664,-0.753907 -0.41407,-0.207031 -1.01953,-0.390625 -1.81641,-0.546875 -0.79687,-0.15625 -1.59375,-0.230468 -2.39062,-0.230468 -1.90235,0 -3.57422,0.449218 -5.01172,1.347656 -1.4375,0.902344 -2.57032,2.113281 -3.40235,3.636718 -0.83203,1.523438 -1.24609,3.253907 -1.24609,5.195313 0,1.9375 0.39844,3.671875 1.19531,5.191406 0.79688,1.527344 1.90235,2.738281 3.32422,3.636719 1.41797,0.902344 3.0625,1.351562 4.93359,1.351562 1.21094,0 2.17188,-0.105468 2.88282,-0.3125 0.71093,-0.207031 1.32422,-0.449218 1.84375,-0.726562 0.58984,-0.347656 1.04687,-0.691406 1.375,-1.039062 0.33203,-0.34375 0.78906,-0.519532 1.3789,-0.519532 0.58594,0 1.04688,0.191406 1.375,0.570313 0.32813,0.382812 0.4961,0.851562 0.4961,1.402343 0,0.660157 -0.4336,1.335938 -1.30078,2.027344 -0.86719,0.691406 -2.04297,1.273438 -3.53125,1.738282 -1.48829,0.46875 -3.15235,0.703124 -4.98829,0.703124 -2.63281,0 -4.93359,-0.613281 -6.90625,-1.84375 -1.97656,-1.230468 -3.50781,-2.910156 -4.59765,-5.039062 C 435.54687,47.558594 435,45.179688 435,42.546875 c 0,-2.632813 0.5625,-5.003906 1.6875,-7.117187 1.12891,-2.113282 2.69141,-3.789063 4.70312,-5.039063 2.00782,-1.246094 4.32813,-1.867187 6.96094,-1.867187"
       id="path8" />
    <path
       style="fill:#5c8f59;fill-opacity:1;fill-rule:nonzero;stroke:none"
       d="m 310.89453,30.769531 c -2.27344,-1.46875 -4.90625,-2.246093 -7.61719,-2.246093 -2.71093,0 -5.34375,0.777343 -7.61718,2.25 -0.46485,0.300781 -0.76172,0.789062 -0.82422,1.34375 -0.0586,0.566406 0.13672,1.121093 0.53906,1.523437 l 0.76172,0.757813 c 0.36328,0.363281 0.83594,0.550781 1.3125,0.550781 0.33203,0 0.66406,-0.08984 0.96484,-0.273438 1.46094,-0.90625 3.14453,-1.382812 4.86328,-1.382812 1.71875,0 3.40235,0.476562 4.86328,1.378906 0.73047,0.449219 1.66407,0.339844 2.27735,-0.273437 l 0.75781,-0.761719 c 0.40234,-0.402344 0.60156,-0.957031 0.53906,-1.523438 -0.0586,-0.554687 -0.35547,-1.042969 -0.82031,-1.34375"
       id="path10" />
    <path
       style="fill:#dca31c;fill-opacity:1;fill-rule:nonzero;stroke:none"
       d="m 301.12109,51.707031 c -4.24609,-1.003906 -7.21093,-4.753906 -7.21093,-9.117187 0,-1.730469 0.48046,-3.421875 1.38671,-4.894532 0.4336,-0.703124 0.32422,-1.601562 -0.26171,-2.1875 l -0.76172,-0.761718 c -0.38672,-0.386719 -0.92188,-0.574219 -1.46485,-0.519532 -0.53515,0.05859 -1.0039,0.34375 -1.29297,0.792969 -1.46093,2.257813 -2.23437,4.878907 -2.23437,7.570313 0,6.546875 4.64453,12.300781 11.04297,13.679687 0.12109,0.02734 0.24219,0.03906 0.36719,0.03906 0.39453,0 0.78125,-0.136719 1.09765,-0.390625 0.42969,-0.34375 0.67188,-0.855469 0.67188,-1.402344 v -1.066406 c 0,-0.824219 -0.5625,-1.558594 -1.33985,-1.742188"
       id="path12" />
    <path
       style="fill:#5c8f59;fill-opacity:1;fill-rule:nonzero;stroke:none"
       d="m 326.64453,28.59375 c -7.71875,0 -13.99609,6.277344 -13.99609,13.996094 l 0.008,0.0625 -0.008,0.07031 c -0.0625,4.390625 -3.23438,8.199219 -7.53907,9.054688 -0.58593,0.117187 -1.01562,0.636718 -1.01562,1.234375 v 2.136719 c 0,0.375 0.16406,0.726562 0.44922,0.972656 0.28125,0.234375 0.64844,0.339844 1.0039,0.277344 6.79688,-1.109376 11.73047,-6.917969 11.73047,-13.808594 0,-5.164063 4.20313,-9.367188 9.36719,-9.367188 5.16797,0 9.37109,4.203125 9.37109,9.367188 0,5.167968 -4.20312,9.371094 -9.37109,9.371094 -1.27344,0 -2.3125,1.039062 -2.3125,2.3125 0,1.277343 1.03906,2.316406 2.3125,2.316406 7.71875,0 14,-6.28125 14,-14 0,-7.71875 -6.28125,-13.996094 -14,-13.996094"
       id="path14" />
    <path
       style="fill:#140f0c;fill-opacity:1;fill-rule:nonzero;stroke:none"
       d="m 271.78125,70.515625 h 0.60156 V 14.523438 h -0.60156 z m 0,0"
       id="path16" />
    <path
       style="fill:#5c8f59;fill-opacity:1;fill-rule:nonzero;stroke:none"
       d="m 175.01172,56.160156 h 3.73047 L 168.19922,28.605469 h -3.17969 l -10.52344,27.554687 h 3.75 l 2.59375,-7.210937 h 11.54297 z m -8.40235,-23.070312 4.69532,12.886718 h -9.3711 z m 14.44141,12.925781 c 0,3.128906 0.74609,5.664063 2.24219,7.609375 1.49609,1.941406 3.42969,2.914062 5.80078,2.914062 2.5,0 4.44531,-0.859374 5.84766,-2.574218 l 0.17187,2.195312 h 3.21484 V 27.089844 h -3.5 v 10.675781 c -1.39843,-1.640625 -3.30078,-2.460937 -5.69531,-2.460937 -2.41015,0 -4.35937,0.957031 -5.85156,2.867187 -1.48828,1.910156 -2.23047,4.4375 -2.23047,7.578125 z m 4.9375,-5.753906 c 0.96094,-1.324219 2.29688,-1.988281 4.01172,-1.988281 2.17187,0 3.78125,0.96875 4.82812,2.898437 v 9.40625 c -1.02343,1.992187 -2.64453,2.988281 -4.86328,2.988281 -1.6914,0 -3.01562,-0.65625 -3.97656,-1.96875 -0.95703,-1.3125 -1.4375,-3.128906 -1.4375,-5.449218 0,-2.597657 0.48047,-4.5625 1.4375,-5.886719 m 34.08594,15.898437 V 55.855469 C 219.59375,54.746094 219.35547,53.25 219.35547,51.371094 v -9.425782 c -0.0508,-2.066406 -0.7461,-3.691406 -2.08203,-4.871093 -1.33594,-1.179688 -3.1836,-1.769531 -5.54297,-1.769531 -1.49219,0 -2.85547,0.277343 -4.09766,0.832031 -1.24609,0.554687 -2.23047,1.308593 -2.95312,2.261719 -0.72657,0.953124 -1.08985,1.941406 -1.08985,2.960937 h 3.51953 c 0,-0.894531 0.42188,-1.660156 1.26954,-2.289063 0.84375,-0.632812 1.89062,-0.945312 3.14062,-0.945312 1.42578,0 2.50391,0.363281 3.23828,1.085938 0.73047,0.726562 1.09766,1.703124 1.09766,2.925781 v 1.609375 h -3.40625 c -2.94141,0 -5.22266,0.589844 -6.84375,1.769531 -1.6211,1.179687 -2.42969,2.835937 -2.42969,4.964844 0,1.753906 0.64453,3.203125 1.9375,4.34375 1.29297,1.144531 2.94922,1.714843 4.96875,1.714843 2.25781,0 4.19922,-0.847656 5.82813,-2.539062 0.125,1.035156 0.28906,1.757812 0.49218,2.160156 z M 207.77344,52.5625 c -0.73438,-0.617188 -1.09766,-1.472656 -1.09766,-2.574219 0,-2.507812 2.14453,-3.765625 6.43359,-3.765625 h 2.7461 v 4.203125 c -0.44141,0.90625 -1.15625,1.644531 -2.14063,2.214844 -0.98437,0.566406 -2.02343,0.851563 -3.12109,0.851563 -1.14844,0 -2.08984,-0.308594 -2.82031,-0.929688 m 34.36718,-6.734375 c 0,-3.308594 -0.71484,-5.886719 -2.14843,-7.742187 -1.42969,-1.855469 -3.375,-2.78125 -5.83594,-2.78125 -2.53906,0 -4.51953,0.882812 -5.94141,2.648437 l -0.17187,-2.269531 h -3.19922 V 64.03125 h 3.5 v -9.859375 c 1.42578,1.578125 3.38281,2.367187 5.86719,2.367187 2.4375,0 4.36718,-0.953124 5.79297,-2.859374 1.42578,-1.902344 2.13671,-4.414063 2.13671,-7.53125 z m -4.98437,5.855469 c -0.99219,1.332031 -2.32813,1.996094 -4.00391,1.996094 -2.15625,0 -3.76172,-0.933594 -4.80859,-2.800782 V 41.09375 c 1.0625,-1.878906 2.65234,-2.820312 4.76953,-2.820312 1.71484,0 3.06641,0.671874 4.05078,2.007812 0.98438,1.335938 1.47656,3.160156 1.47656,5.46875 0,2.625 -0.49609,4.601562 -1.48437,5.933594 m 10.68359,-20.960938 v 4.960938 h -3.73047 v 2.707031 h 3.73047 v 12.699219 c 0,1.738281 0.39453,3.082031 1.19141,4.027344 0.79297,0.949218 1.97266,1.421874 3.53906,1.421874 0.8711,0 1.76563,-0.125 2.6875,-0.378906 v -2.820312 c -0.70703,0.152344 -1.26172,0.226562 -1.66406,0.226562 -0.82031,0 -1.40234,-0.203125 -1.74219,-0.613281 -0.33984,-0.414063 -0.51172,-1.027344 -0.51172,-1.847656 V 38.390625 h 3.82422 v -2.707031 h -3.82422 v -4.960938 z m 0,0"
       id="path18" />
    <path
       style="fill:#140f0c;fill-opacity:1;fill-rule:nonzero;stroke:none"
       d="m 41.492188,47.417969 c -0.351563,2.269531 -1.066407,3.863281 -2.148438,4.777343 -1.078125,0.914063 -2.625,1.371094 -4.644531,1.371094 -2.246094,0 -3.992188,-0.882812 -5.242188,-2.652344 -1.25,-1.765624 -1.875,-4.148437 -1.875,-7.140624 v -2.671876 c 0,-3.167968 0.660157,-5.609374 1.976563,-7.328124 1.320312,-1.71875 3.140625,-2.574219 5.460937,-2.574219 1.894531,0 3.367188,0.492187 4.421875,1.476562 1.050782,0.988281 1.734375,2.582031 2.050782,4.785157 h 3.652343 c -0.289062,-2.886719 -1.316406,-5.152344 -3.082031,-6.785157 -1.769531,-1.632812 -4.117188,-2.449219 -7.042969,-2.449219 -2.207031,0 -4.148437,0.519532 -5.828125,1.5625 -1.679687,1.039063 -2.972656,2.53125 -3.890625,4.472657 -0.914062,1.945312 -1.371093,4.195312 -1.371093,6.757812 v 2.648438 c 0,3.914062 0.980468,7.035156 2.945312,9.371093 1.960938,2.332032 4.570312,3.5 7.824219,3.5 3.003906,0 5.410156,-0.792968 7.21875,-2.375 1.8125,-1.582031 2.886719,-3.832031 3.226562,-6.746093 z M 53.359375,27.089844 h -3.5 v 29.070312 h 3.5 z m 9.40625,8.59375 h -3.5 v 20.476562 h 3.5 z M 59.5,31.671875 c 0.347656,0.375 0.863281,0.566406 1.542969,0.566406 0.679687,0 1.199219,-0.191406 1.550781,-0.566406 C 62.949219,31.292969 63.125,30.816406 63.125,30.25 c 0,-0.566406 -0.175781,-1.046875 -0.53125,-1.4375 -0.351562,-0.390625 -0.871094,-0.585938 -1.550781,-0.585938 -0.679688,0 -1.195313,0.195313 -1.542969,0.585938 -0.347656,0.390625 -0.519531,0.871094 -0.519531,1.4375 0,0.566406 0.171875,1.042969 0.519531,1.421875 m 8.847656,4.011719 v 20.476562 h 3.503906 V 41.207031 c 0.84375,-1.953125 2.414063,-2.933593 4.710938,-2.933593 2.914062,0 4.371094,1.492187 4.371094,4.46875 v 13.417968 h 3.519531 V 42.570312 c 0.140625,-1.3125 0.636719,-2.355468 1.496094,-3.132812 0.859375,-0.773438 1.9375,-1.164062 3.234375,-1.164062 1.578125,0 2.703125,0.363281 3.371094,1.089843 0.667968,0.726563 1.003906,1.820313 1.003906,3.285157 v 13.511718 h 3.5 V 42.4375 c -0.07422,-4.753906 -2.359375,-7.132812 -6.851563,-7.132812 -1.488281,0 -2.777343,0.300781 -3.871093,0.90625 -1.089844,0.605468 -1.976563,1.402343 -2.65625,2.386718 -1.035157,-2.195312 -2.984376,-3.292968 -5.847657,-3.292968 -2.550781,0 -4.574219,0.882812 -6.078125,2.648437 l -0.09375,-2.269531 z m 50.304684,20.476562 v -0.304687 c -0.48046,-1.109375 -0.71875,-2.601563 -0.71875,-4.484375 v -9.421875 c -0.0508,-2.070313 -0.74609,-3.695313 -2.08203,-4.875 -1.33593,-1.179688 -3.1875,-1.769531 -5.54687,-1.769531 -1.48828,0 -2.85156,0.277343 -4.09375,0.832031 -1.2461,0.554687 -2.23047,1.308593 -2.95313,2.261719 -0.72656,0.953124 -1.08984,1.941406 -1.08984,2.960937 h 3.51953 c 0,-0.894531 0.42188,-1.65625 1.26953,-2.289063 0.84375,-0.632812 1.89063,-0.945312 3.14063,-0.945312 1.42578,0 2.5039,0.359375 3.23828,1.085938 0.73047,0.726562 1.09765,1.703124 1.09765,2.925781 v 1.609375 h -3.41015 c -2.9375,0 -5.21875,0.589844 -6.83985,1.769531 -1.62109,1.179687 -2.42968,2.835937 -2.42968,4.964844 0,1.753906 0.64453,3.203125 1.9375,4.34375 1.29297,1.144531 2.94922,1.714843 4.96875,1.714843 2.25781,0 4.19922,-0.847656 5.82812,-2.535156 0.125,1.035156 0.28906,1.753906 0.49219,2.15625 z M 106.35156,52.5625 c -0.73047,-0.617188 -1.09765,-1.472656 -1.09765,-2.570312 0,-2.511719 2.14453,-3.769532 6.43359,-3.769532 h 2.74609 v 4.203125 c -0.44531,0.910157 -1.15625,1.648438 -2.14062,2.214844 -0.98438,0.566406 -2.02344,0.851563 -3.12109,0.851563 -1.14844,0 -2.08985,-0.308594 -2.82032,-0.929688 m 18.32032,-21.839844 v 4.960938 h -3.73047 v 2.707031 h 3.73047 v 12.699219 c 0,1.738281 0.39453,3.082031 1.1914,4.03125 0.79297,0.945312 1.97656,1.417968 3.53906,1.417968 0.8711,0 1.76563,-0.125 2.6875,-0.375 v -2.824218 c -0.70703,0.152344 -1.26172,0.226562 -1.66406,0.226562 -0.82031,0 -1.40234,-0.203125 -1.74219,-0.613281 -0.33984,-0.410156 -0.51172,-1.027344 -0.51172,-1.847656 V 38.390625 h 3.82422 v -2.707031 h -3.82422 v -4.960938 z m 27.6289,21.859375 -2.13672,-1.664062 c -0.64453,0.832031 -1.39453,1.5 -2.2539,2.003906 -0.85547,0.507813 -1.90235,0.757813 -3.14063,0.757813 -1.74219,0 -3.17578,-0.621094 -4.30469,-1.863282 -1.1289,-1.242187 -1.71875,-2.875 -1.76953,-4.890625 h 13.8711 V 45.46875 c 0,-3.269531 -0.73829,-5.78125 -2.21485,-7.535156 -1.47265,-1.753906 -3.54297,-2.628906 -6.20703,-2.628906 -1.625,0 -3.13672,0.449218 -4.53125,1.351562 -1.39453,0.902344 -2.48047,2.152344 -3.25781,3.75 -0.77344,1.59375 -1.16406,3.40625 -1.16406,5.4375 v 0.644531 c 0,3.054688 0.87109,5.492188 2.61328,7.316407 1.74218,1.824218 4,2.734374 6.77734,2.734374 3.42969,0 6.00391,-1.320312 7.71875,-3.957031 m -4.67187,-12.933593 c 0.85546,0.976562 1.33593,2.355468 1.4375,4.132812 v 0.265625 h -10.25782 c 0.22657,-1.855469 0.82032,-3.296875 1.77735,-4.324219 0.96093,-1.027344 2.14453,-1.542968 3.55859,-1.542968 1.46484,0 2.625,0.488281 3.48438,1.46875"
       id="path20" />
  </g>
</svg>
