<?xml version="1.0" encoding="UTF-8"?>
<svg xmlns="http://www.w3.org/2000/svg" id="uuid-500224ff-f162-4e9c-873d-412bd1f8d791" viewBox="0 0 500 82.06"><path d="M118.27,42.92c.58-.51,.88-1.16,.88-1.94-.05-2.78-.56-5.27-1.54-7.46-.98-2.19-2.27-4.1-3.88-5.71s-3.46-2.83-5.56-3.66c-2.1-.83-4.27-1.24-6.51-1.24-3.03,0-5.89,.79-8.6,2.38-2.71,1.59-4.9,3.88-6.59,6.88-1.68,3-2.52,6.62-2.52,10.87,0,3.8,.8,7.16,2.42,10.06,1.61,2.9,3.88,5.18,6.8,6.84,2.93,1.66,6.36,2.49,10.32,2.49,2.63,0,5.11-.56,7.43-1.68,2.32-1.12,4.18-2.44,5.6-3.95,.78-.68,1.17-1.44,1.17-2.27,0-.68-.25-1.27-.73-1.76-.49-.49-1.07-.73-1.76-.73-.64,0-1.27,.22-1.9,.66-.63,.68-1.4,1.35-2.3,2.01-.9,.66-1.99,1.21-3.26,1.65-1.27,.44-2.75,.66-4.46,.66-2.73,0-5.12-.62-7.17-1.87-2.05-1.24-3.65-2.94-4.79-5.08-1-1.86-1.56-3.99-1.69-6.36h26.6c.78,0,1.47-.26,2.05-.77m-24.84-11.23c1.15-1.12,2.44-1.95,3.88-2.49,1.44-.54,2.89-.8,4.35-.8,1.8,0,3.52,.39,5.16,1.17,1.63,.78,3.02,1.89,4.17,3.33,1.14,1.44,1.79,3.16,1.94,5.16v.59h-22.98c.18-.92,.4-1.78,.71-2.56,.71-1.8,1.63-3.27,2.78-4.39" style="fill:#040305;"/><path d="M163.85,42.66c0,3.81-.84,7.19-2.52,10.17-1.68,2.98-3.95,5.32-6.8,7.02s-6.06,2.56-9.62,2.56-6.78-.85-9.66-2.56c-2.88-1.71-5.16-4.05-6.84-7.02-1.68-2.98-2.52-6.36-2.52-10.17s.84-7.19,2.52-10.17c1.68-2.97,3.96-5.32,6.84-7.02,2.88-1.71,6.1-2.56,9.66-2.56s6.77,.85,9.62,2.56c2.85,1.71,5.12,4.05,6.8,7.02,1.68,2.98,2.52,6.36,2.52,10.17m-5.93,0c0-2.83-.57-5.3-1.72-7.43-1.15-2.12-2.71-3.8-4.68-5.05-1.98-1.24-4.18-1.87-6.62-1.87s-4.72,.62-6.69,1.87-3.55,2.93-4.72,5.05c-1.17,2.12-1.76,4.6-1.76,7.43s.58,5.24,1.76,7.39c1.17,2.15,2.74,3.84,4.72,5.09,1.97,1.24,4.21,1.87,6.69,1.87s4.65-.62,6.62-1.87c1.97-1.24,3.54-2.94,4.68-5.09,1.15-2.15,1.72-4.61,1.72-7.39" style="fill:#040305;"/><path d="M170.44,55.69c-.39-.63-.57-1.31-.55-2.01,.02-.71,.43-1.33,1.21-1.86,.54-.34,1.13-.49,1.79-.44,.66,.05,1.25,.37,1.79,.95,1.36,1.61,2.93,2.89,4.68,3.84,1.76,.95,3.9,1.43,6.44,1.43,1.12-.05,2.28-.24,3.47-.58,1.2-.34,2.2-.94,3-1.79,.81-.85,1.21-1.99,1.21-3.4s-.41-2.45-1.24-3.26c-.83-.8-1.92-1.46-3.26-1.97-1.34-.51-2.77-.96-4.28-1.35-1.61-.44-3.19-.93-4.76-1.46-1.56-.54-2.96-1.23-4.21-2.08-1.24-.85-2.24-1.93-3-3.22-.75-1.29-1.13-2.89-1.13-4.79,0-2.19,.6-4.1,1.79-5.71,1.19-1.61,2.79-2.85,4.79-3.73,2-.88,4.22-1.32,6.66-1.32,1.37,0,2.79,.16,4.28,.47,1.49,.32,2.94,.85,4.35,1.61,1.41,.75,2.66,1.79,3.73,3.11,.44,.49,.68,1.1,.73,1.83,.05,.73-.27,1.39-.95,1.97-.54,.39-1.13,.57-1.79,.55-.66-.02-1.21-.26-1.65-.69-1.07-1.27-2.38-2.23-3.92-2.89-1.53-.66-3.23-.99-5.08-.99-1.12,0-2.24,.19-3.36,.55s-2.06,.94-2.82,1.72c-.76,.78-1.13,1.88-1.13,3.29,.05,1.32,.49,2.39,1.32,3.22,.83,.83,1.95,1.5,3.37,2.01,1.41,.51,2.97,1.01,4.68,1.5,1.56,.39,3.06,.84,4.5,1.35,1.44,.51,2.74,1.18,3.92,2.01s2.1,1.89,2.78,3.18c.68,1.29,1.03,2.91,1.03,4.86,0,2.24-.64,4.18-1.9,5.82-1.27,1.63-2.94,2.88-5.01,3.73-2.07,.85-4.3,1.28-6.69,1.28-2.68,0-5.34-.5-7.98-1.5-2.63-1-4.9-2.74-6.8-5.23" style="fill:#040305;"/><path d="M224.07,22.91c2.54,0,4.8,.27,6.81,.81,2,.54,3.58,1.27,4.76,2.19,1.17,.93,1.76,1.97,1.76,3.15,0,.68-.22,1.32-.66,1.9-.44,.59-1.05,.88-1.83,.88-.63,0-1.16-.13-1.57-.4-.41-.27-.8-.59-1.17-.95-.37-.37-.87-.72-1.5-1.06-.59-.29-1.44-.55-2.56-.77-1.12-.22-2.24-.33-3.36-.33-2.68,0-5.04,.63-7.06,1.9-2.03,1.27-3.62,2.98-4.79,5.12-1.17,2.15-1.76,4.58-1.76,7.31s.56,5.17,1.68,7.32c1.12,2.15,2.68,3.85,4.68,5.12,2,1.27,4.32,1.9,6.95,1.9,1.71,0,3.06-.15,4.06-.44,1-.29,1.87-.64,2.6-1.03,.83-.49,1.47-.98,1.94-1.46,.46-.49,1.11-.73,1.94-.73s1.48,.27,1.94,.81c.46,.54,.69,1.2,.69,1.97,0,.93-.61,1.88-1.83,2.85-1.22,.98-2.88,1.79-4.97,2.45-2.1,.66-4.44,.99-7.02,.99-3.71,0-6.95-.86-9.73-2.6-2.78-1.73-4.94-4.1-6.47-7.1-1.54-3-2.31-6.35-2.31-10.06s.79-7.05,2.38-10.02c1.59-2.97,3.79-5.34,6.62-7.1,2.83-1.76,6.09-2.63,9.8-2.63" style="fill:#040305;"/><path d="M30.44,26.08c-3.2-2.07-6.91-3.17-10.73-3.17s-7.53,1.1-10.73,3.17c-.65,.42-1.08,1.12-1.16,1.89-.09,.8,.19,1.58,.76,2.15l1.07,1.07c.51,.51,1.18,.77,1.85,.77,.47,0,.94-.13,1.36-.38,2.06-1.27,4.43-1.95,6.85-1.95s4.79,.67,6.85,1.94c1.03,.64,2.34,.48,3.2-.38l1.07-1.07c.56-.56,.84-1.35,.76-2.15-.09-.78-.51-1.47-1.16-1.89" style="fill:#008691;"/><path d="M16.68,55.57c-5.98-1.41-10.16-6.7-10.16-12.84,0-2.44,.68-4.82,1.96-6.9,.61-.99,.46-2.25-.37-3.08l-1.07-1.07c-.55-.54-1.3-.81-2.06-.73-.75,.08-1.41,.48-1.82,1.11-2.06,3.18-3.15,6.87-3.15,10.67,0,9.22,6.54,17.32,15.55,19.27,.17,.04,.35,.05,.52,.05,.56,0,1.1-.19,1.55-.55,.6-.48,.95-1.21,.95-1.97v-1.5c0-1.17-.8-2.2-1.89-2.46" style="fill:#ff5c80;"/><path d="M52.63,23.01c-10.87,0-19.72,8.85-19.72,19.72v.09s0,.1,0,.1c-.09,6.18-4.55,11.55-10.62,12.76-.83,.17-1.43,.9-1.43,1.74v3.01c0,.53,.23,1.03,.63,1.37,.39,.33,.91,.48,1.41,.39,9.57-1.57,16.52-9.75,16.52-19.45,0-7.28,5.92-13.2,13.2-13.2s13.2,5.92,13.2,13.2-5.92,13.2-13.2,13.2c-1.8,0-3.26,1.46-3.26,3.26s1.46,3.26,3.26,3.26c10.87,0,19.72-8.85,19.72-19.72s-8.85-19.72-19.72-19.72" style="fill:#008691;"/><rect x="261.41" y="3.19" width=".84" height="78.87" style="fill:#040305;"/><g><path d="M303.06,57.09c2.32,0,4.35-.71,6.09-2.11s2.7-3.17,2.89-5.28h6.16c-.12,2.19-.87,4.26-2.25,6.23-1.39,1.97-3.24,3.55-5.55,4.72-2.31,1.17-4.76,1.76-7.34,1.76-5.19,0-9.32-1.73-12.38-5.19-3.06-3.46-4.6-8.2-4.6-14.21v-1.09c0-3.71,.68-7.01,2.04-9.9,1.36-2.89,3.31-5.13,5.86-6.73,2.55-1.6,5.56-2.39,9.03-2.39,4.27,0,7.82,1.28,10.65,3.84,2.83,2.56,4.34,5.88,4.53,9.97h-6.16c-.19-2.47-1.12-4.49-2.8-6.08s-3.75-2.38-6.22-2.38c-3.31,0-5.88,1.19-7.69,3.57-1.82,2.38-2.73,5.83-2.73,10.34v1.23c0,4.39,.9,7.77,2.71,10.14,1.81,2.37,4.39,3.56,7.75,3.56Z"/><path d="M349.05,61.7c-.38-.75-.68-2.09-.92-4.02-3.03,3.15-6.65,4.72-10.85,4.72-3.76,0-6.84-1.06-9.24-3.19-2.41-2.13-3.61-4.82-3.61-8.08,0-3.97,1.51-7.05,4.53-9.25,3.01-2.19,7.26-3.29,12.73-3.29h6.34v-2.99c0-2.28-.68-4.09-2.04-5.44s-3.37-2.03-6.02-2.03c-2.32,0-4.27,.59-5.84,1.76-1.57,1.17-2.36,2.6-2.36,4.26h-6.55c0-1.9,.68-3.74,2.03-5.51s3.18-3.18,5.49-4.21c2.31-1.03,4.85-1.55,7.62-1.55,4.39,0,7.83,1.1,10.32,3.29,2.49,2.2,3.78,5.22,3.87,9.07v17.54c0,3.5,.45,6.28,1.34,8.35v.56h-6.83Zm-10.81-4.96c2.04,0,3.98-.53,5.81-1.59,1.83-1.06,3.16-2.43,3.98-4.12v-7.82h-5.11c-7.98,0-11.97,2.33-11.97,7.01,0,2.04,.68,3.64,2.04,4.79,1.36,1.15,3.11,1.73,5.25,1.73Z"/><path d="M370.93,23.6l.21,4.79c2.91-3.66,6.71-5.49,11.41-5.49,8.05,0,12.12,4.54,12.19,13.63v25.18h-6.52v-25.22c-.02-2.75-.65-4.78-1.88-6.09-1.23-1.31-3.15-1.97-5.76-1.97-2.11,0-3.97,.56-5.56,1.69-1.6,1.13-2.84,2.61-3.73,4.44v27.15h-6.52V23.6h6.16Z"/><path d="M419.84,57.09c2.32,0,4.35-.71,6.09-2.11s2.7-3.17,2.89-5.28h6.16c-.12,2.19-.87,4.26-2.25,6.23-1.39,1.97-3.24,3.55-5.55,4.72-2.31,1.17-4.76,1.76-7.34,1.76-5.19,0-9.32-1.73-12.38-5.19-3.06-3.46-4.6-8.2-4.6-14.21v-1.09c0-3.71,.68-7.01,2.04-9.9,1.36-2.89,3.31-5.13,5.86-6.73,2.55-1.6,5.56-2.39,9.03-2.39,4.27,0,7.82,1.28,10.65,3.84,2.83,2.56,4.34,5.88,4.53,9.97h-6.16c-.19-2.47-1.12-4.49-2.8-6.08s-3.75-2.38-6.22-2.38c-3.31,0-5.88,1.19-7.69,3.57-1.82,2.38-2.73,5.83-2.73,10.34v1.23c0,4.39,.9,7.77,2.71,10.14,1.81,2.37,4.39,3.56,7.75,3.56Z"/><path d="M458.12,62.41c-5.16,0-9.37-1.7-12.61-5.09-3.24-3.39-4.86-7.93-4.86-13.61v-1.2c0-3.78,.72-7.15,2.17-10.12,1.45-2.97,3.46-5.29,6.06-6.97s5.41-2.52,8.43-2.52c4.96,0,8.8,1.63,11.55,4.89,2.75,3.26,4.12,7.94,4.12,14.02v2.71h-25.81c.09,3.76,1.19,6.79,3.29,9.1,2.1,2.31,4.77,3.47,8.01,3.47,2.3,0,4.25-.47,5.85-1.41,1.6-.94,2.99-2.18,4.19-3.73l3.98,3.1c-3.19,4.91-7.98,7.36-14.37,7.36Zm-.81-34.16c-2.63,0-4.84,.96-6.62,2.87-1.79,1.91-2.89,4.6-3.31,8.05h19.09v-.49c-.19-3.31-1.08-5.88-2.67-7.7-1.6-1.82-3.76-2.73-6.48-2.73Z"/><path d="M498.94,29.44c-.99-.16-2.05-.25-3.21-.25-4.27,0-7.17,1.82-8.7,5.46v27.05h-6.52V23.6h6.34l.1,4.4c2.14-3.4,5.16-5.11,9.09-5.11,1.27,0,2.23,.16,2.89,.49v6.06Z"/></g></svg>