<?xml version="1.0" encoding="UTF-8" standalone="no"?>
<!-- Created with Inkscape (http://www.inkscape.org/) -->

<svg
   width="703.03064"
   height="109.78001"
   viewBox="0 0 87.87883 13.722502"
   version="1.1"
   id="svg501"
   inkscape:version="1.2.1 (9c6d41e410, 2022-07-14)"
   sodipodi:docname="eosc4cancer.svg"
   inkscape:export-filename="eosc4cancer.png"
   inkscape:export-xdpi="200"
   inkscape:export-ydpi="200"
   xmlns:inkscape="http://www.inkscape.org/namespaces/inkscape"
   xmlns:sodipodi="http://sodipodi.sourceforge.net/DTD/sodipodi-0.dtd"
   xmlns="http://www.w3.org/2000/svg"
   xmlns:svg="http://www.w3.org/2000/svg">
  <sodipodi:namedview
     id="namedview503"
     pagecolor="#ffffff"
     bordercolor="#666666"
     borderopacity="1.0"
     inkscape:showpageshadow="2"
     inkscape:pageopacity="0.0"
     inkscape:pagecheckerboard="0"
     inkscape:deskcolor="#d1d1d1"
     inkscape:document-units="mm"
     showgrid="false"
     inkscape:zoom="1.6819304"
     inkscape:cx="351.97651"
     inkscape:cy="169.15087"
     inkscape:window-width="1920"
     inkscape:window-height="1130"
     inkscape:window-x="-6"
     inkscape:window-y="-6"
     inkscape:window-maximized="1"
     inkscape:current-layer="layer1" />
  <defs
     id="defs498">
    <clipPath
       id="clip-0">
      <path
         clip-rule="nonzero"
         d="m 206,203.30078 h 1 V 242.75 h -1 z m 0,0"
         id="path116" />
    </clipPath>
    <clipPath
       id="clip-1">
      <path
         clip-rule="nonzero"
         d="m 315,213 h 10.11328 v 20 H 315 Z m 0,0"
         id="path119" />
    </clipPath>
  </defs>
  <g
     inkscape:label="Layer 1"
     inkscape:groupmode="layer"
     id="layer1"
     transform="translate(-54.221624,-105.14299)">
    <path
       fill-rule="nonzero"
       fill="#040305"
       fill-opacity="1"
       d="m 75.052004,112.05523 c 0.10198,-0.0882 0.15572,-0.2012 0.15572,-0.33762 -0.01,-0.4837 -0.1006,-0.9164 -0.27147,-1.29812 -0.17364,-0.38034 -0.40101,-0.71382 -0.68489,-0.99356 -0.2825,-0.27974 -0.60909,-0.49196 -0.97841,-0.63666 -0.37069,-0.14469 -0.7524,-0.21497 -1.1479,-0.21497 -0.5333,0 -1.03629,0.13643 -1.51447,0.41341 -0.4768,0.27699 -0.86265,0.67524 -1.1603,1.19752 -0.29628,0.5209 -0.44373,1.15204 -0.44373,1.89067 0,0.66145 0.14056,1.24574 0.42581,1.7501 0.28388,0.50437 0.68351,0.90124 1.1989,1.19063 0.51538,0.28939 1.11896,0.4327 1.81625,0.4327 0.4644,0 0.89986,-0.0965 1.30913,-0.29214 0.4079,-0.19431 0.73588,-0.42444 0.98668,-0.68764 0.1378,-0.11713 0.20533,-0.24943 0.20533,-0.39412 0,-0.11851 -0.0441,-0.22049 -0.12816,-0.30593 -0.0854,-0.0854 -0.18879,-0.12815 -0.31006,-0.12815 -0.11162,0 -0.22324,0.0386 -0.33486,0.11575 -0.11024,0.11851 -0.24667,0.23427 -0.40515,0.35002 -0.15847,0.11438 -0.35001,0.20946 -0.57464,0.28663 -0.22186,0.0758 -0.48369,0.11438 -0.7841,0.11438 -0.48231,0 -0.90261,-0.10749 -1.26366,-0.32521 -0.36105,-0.21498 -0.64355,-0.51126 -0.84336,-0.88333 -0.17501,-0.32384 -0.27561,-0.69453 -0.29765,-1.10656 h 4.68532 c 0.13781,0 0.25907,-0.0455 0.36105,-0.13367 m -4.37527,-1.95406 c 0.20257,-0.19568 0.42995,-0.34037 0.68351,-0.43408 0.25217,-0.0937 0.50849,-0.13918 0.76619,-0.13918 0.31694,0 0.62011,0.0675 0.90812,0.20395 0.28801,0.13504 0.53193,0.32935 0.73449,0.57877 0.2012,0.25081 0.31558,0.54984 0.34176,0.89848 v 0.10198 h -4.0473 c 0.0317,-0.15985 0.0703,-0.30868 0.1254,-0.44511 0.12541,-0.31281 0.28664,-0.56913 0.48921,-0.76343"
       id="path142"
       style="stroke-width:0.352778" />
    <path
       fill-rule="nonzero"
       fill="#040305"
       fill-opacity="1"
       d="m 83.079074,112.00975 c 0,0.66284 -0.14745,1.25126 -0.44235,1.7694 -0.29765,0.51814 -0.69591,0.92604 -1.19751,1.22232 -0.50299,0.2949 -1.06936,0.44511 -1.69637,0.44511 -0.62563,0 -1.19338,-0.14883 -1.7005,-0.44511 -0.50711,-0.29766 -0.90812,-0.70555 -1.2044,-1.22232 -0.29628,-0.51814 -0.44511,-1.10656 -0.44511,-1.7694 0,-0.66284 0.14883,-1.25126 0.44511,-1.7694 0.29628,-0.51677 0.69729,-0.92604 1.2044,-1.22094 0.50712,-0.29766 1.07487,-0.44511 1.7005,-0.44511 0.62701,0 1.19338,0.14745 1.69637,0.44511 0.5016,0.29765 0.89986,0.70417 1.19751,1.22094 0.2949,0.51814 0.44235,1.10656 0.44235,1.7694 m -1.04317,0 c 0,-0.49196 -0.1006,-0.92191 -0.30317,-1.2926 -0.20257,-0.36932 -0.47818,-0.66146 -0.82545,-0.87919 -0.34726,-0.21497 -0.73587,-0.32521 -1.16581,-0.32521 -0.42995,0 -0.83096,0.10886 -1.17823,0.32521 -0.34589,0.21773 -0.62425,0.50987 -0.83096,0.87919 -0.2067,0.36931 -0.31005,0.80064 -0.31005,1.2926 0,0.49196 0.10197,0.91226 0.31005,1.28571 0.20671,0.37483 0.48232,0.66835 0.83096,0.88608 0.34727,0.21497 0.74139,0.32522 1.17823,0.32522 0.43821,0 0.81993,-0.10749 1.16581,-0.32522 0.34727,-0.21635 0.62426,-0.51125 0.82545,-0.88608 0.20257,-0.37345 0.30317,-0.80202 0.30317,-1.28571"
       id="path144"
       style="stroke-width:0.352778" />
    <path
       fill-rule="nonzero"
       fill="#040305"
       fill-opacity="1"
       d="m 84.240764,114.27662 c -0.0689,-0.10886 -0.1006,-0.22737 -0.0978,-0.34864 0.003,-0.12402 0.0772,-0.23151 0.2136,-0.32384 0.0951,-0.0593 0.19981,-0.0854 0.31557,-0.0772 0.11575,0.008 0.22048,0.0648 0.31557,0.16536 0.2384,0.27975 0.51676,0.50299 0.82406,0.66835 0.31006,0.16537 0.68765,0.24805 1.13551,0.24805 0.19568,-0.008 0.39963,-0.0413 0.61047,-0.1006 0.21084,-0.0592 0.38723,-0.16261 0.52779,-0.31143 0.14193,-0.14745 0.21221,-0.34589 0.21221,-0.59118 0,-0.24529 -0.0716,-0.42581 -0.21773,-0.56775 -0.14607,-0.13919 -0.33762,-0.25356 -0.57464,-0.34176 -0.23564,-0.0896 -0.48645,-0.16812 -0.75378,-0.23564 -0.28388,-0.0758 -0.56086,-0.16123 -0.83785,-0.25356 -0.27423,-0.0937 -0.5209,-0.2136 -0.74139,-0.36242 -0.21911,-0.14746 -0.39549,-0.33487 -0.52779,-0.55949 -0.13229,-0.22462 -0.19981,-0.50298 -0.19981,-0.83371 0,-0.38172 0.10473,-0.71383 0.31557,-0.99357 0.20946,-0.27974 0.49058,-0.49609 0.84336,-0.64905 0.35278,-0.15296 0.74276,-0.23013 1.17271,-0.23013 0.24253,0 0.49196,0.0289 0.75379,0.0827 0.2632,0.0551 0.51814,0.14745 0.76619,0.27974 0.24804,0.13091 0.46853,0.31143 0.65732,0.54157 0.0772,0.0841 0.11989,0.19017 0.12816,0.31832 0.01,0.12679 -0.0469,0.24116 -0.16675,0.34176 -0.0965,0.0689 -0.19843,0.0992 -0.31557,0.0965 -0.11575,-0.004 -0.21359,-0.0455 -0.29076,-0.11989 -0.18742,-0.22186 -0.41893,-0.38861 -0.6904,-0.50298 -0.27009,-0.11438 -0.56913,-0.17226 -0.89435,-0.17226 -0.19706,0 -0.39549,0.0331 -0.59255,0.0951 -0.19568,0.0634 -0.36243,0.16398 -0.49609,0.29903 -0.13505,0.13643 -0.19844,0.32798 -0.19844,0.57327 0.008,0.23013 0.0854,0.41616 0.23151,0.55948 0.14607,0.14469 0.34313,0.26183 0.59393,0.35002 0.24805,0.0896 0.52228,0.17639 0.82545,0.26183 0.27423,0.0675 0.53881,0.14607 0.79237,0.23427 0.25218,0.0882 0.48093,0.20532 0.68902,0.35002 0.20946,0.14469 0.37069,0.32797 0.49058,0.55259 0.11851,0.22462 0.18052,0.50712 0.18052,0.84612 0,0.38998 -0.113,0.7276 -0.33486,1.01285 -0.22324,0.28388 -0.51814,0.50023 -0.88194,0.64906 -0.36381,0.14745 -0.75655,0.22186 -1.17823,0.22186 -0.47267,0 -0.9412,-0.0868 -1.4056,-0.26045 -0.46302,-0.17363 -0.86265,-0.4768 -1.19751,-0.9095"
       id="path146"
       style="stroke-width:0.352778" />
    <path
       fill-rule="nonzero"
       fill="#040305"
       fill-opacity="1"
       d="m 93.685834,108.5743 c 0.44787,0 0.8475,0.0469 1.20027,0.14056 0.35278,0.0937 0.62977,0.22049 0.83785,0.38034 0.20533,0.16261 0.31006,0.34313 0.31006,0.54846 0,0.11851 -0.0386,0.23013 -0.11576,0.33073 -0.0785,0.10197 -0.18465,0.15296 -0.32246,0.15296 -0.11024,0 -0.20394,-0.0221 -0.27698,-0.0703 -0.0717,-0.0469 -0.14056,-0.10198 -0.20533,-0.16399 -0.0661,-0.0648 -0.15434,-0.1254 -0.2632,-0.18465 -0.10473,-0.051 -0.25494,-0.0965 -0.452,-0.13367 -0.19706,-0.0386 -0.3955,-0.0579 -0.59256,-0.0579 -0.47266,0 -0.88745,0.10886 -1.24299,0.33073 -0.35829,0.22048 -0.63803,0.51814 -0.84336,0.89021 -0.2067,0.37483 -0.31006,0.79788 -0.31006,1.27193 0,0.47542 0.0992,0.89986 0.2949,1.27331 0.19844,0.37483 0.47267,0.6711 0.82545,0.89159 0.3514,0.22048 0.7593,0.33073 1.2237,0.33073 0.30041,0 0.53881,-0.0262 0.7152,-0.0772 0.17501,-0.0496 0.32935,-0.11163 0.45751,-0.17915 0.14607,-0.0854 0.25907,-0.17088 0.34175,-0.25356 0.0813,-0.0854 0.19568,-0.12678 0.34175,-0.12678 0.14745,0 0.26183,0.0469 0.34176,0.14056 0.0813,0.0937 0.12264,0.20809 0.12264,0.34314 0,0.16123 -0.10886,0.32659 -0.32246,0.49471 -0.21497,0.17088 -0.50849,0.31144 -0.87505,0.42719 -0.37069,0.11438 -0.78273,0.17226 -1.23748,0.17226 -0.65319,0 -1.2237,-0.15021 -1.71428,-0.452 -0.4892,-0.30179 -0.87092,-0.71382 -1.13826,-1.2361 -0.27147,-0.52228 -0.40652,-1.10519 -0.40652,-1.75011 0,-0.64492 0.1378,-1.22645 0.41755,-1.74322 0.28111,-0.51676 0.66834,-0.92879 1.16719,-1.2361 0.49748,-0.30592 1.07212,-0.4575 1.72531,-0.4575"
       id="path148"
       style="stroke-width:0.352778" />
    <path
       fill-rule="nonzero"
       fill="#008691"
       fill-opacity="1"
       d="m 59.582154,109.12414 c -0.565,-0.36105 -1.21819,-0.55259 -1.89067,-0.55259 -0.67249,0 -1.32568,0.19154 -1.88929,0.55259 -0.11438,0.073 -0.19155,0.1943 -0.20533,0.32797 -0.0152,0.13918 0.0344,0.27561 0.13367,0.37483 l 0.18879,0.18603 c 0.0896,0.0882 0.20808,0.13367 0.32659,0.13367 0.0827,0 0.16537,-0.0221 0.23841,-0.0661 0.3638,-0.22049 0.78134,-0.339 1.20716,-0.339 0.42581,0 0.84336,0.11575 1.20716,0.33762 0.18052,0.11162 0.41203,0.0827 0.56362,-0.0661 l 0.18741,-0.18603 c 0.0992,-0.0978 0.14883,-0.23565 0.13367,-0.37483 -0.0152,-0.13505 -0.0896,-0.25494 -0.20395,-0.32797"
       id="path150"
       style="stroke-width:0.352778" />
    <path
       fill-rule="nonzero"
       fill="#ff5c80"
       fill-opacity="1"
       d="m 57.158184,114.25595 c -1.0542,-0.24529 -1.79008,-1.16582 -1.79008,-2.2338 0,-0.42443 0.11989,-0.83922 0.34589,-1.20027 0.10749,-0.17225 0.0799,-0.39136 -0.0661,-0.53606 l -0.18742,-0.18603 c -0.0978,-0.0937 -0.23013,-0.14056 -0.3638,-0.12678 -0.13229,0.0138 -0.24805,0.0827 -0.3197,0.19293 -0.36381,0.55259 -0.55535,1.19476 -0.55535,1.85621 0,1.60404 1.15204,3.01377 2.73954,3.35277 0.0289,0.007 0.0606,0.008 0.0909,0.008 0.0992,0 0.1943,-0.0331 0.27285,-0.0951 0.10611,-0.0841 0.16812,-0.21084 0.16812,-0.34313 v -0.26045 c 0,-0.20395 -0.14194,-0.3831 -0.33349,-0.42857"
       id="path152"
       style="stroke-width:0.352778" />
    <path
       fill-rule="nonzero"
       fill="#008691"
       fill-opacity="1"
       d="m 63.490264,108.59084 c -1.91547,0 -3.47403,1.54064 -3.47403,3.43131 v 0.0152 c 0,0 0,0.0179 0,0.0179 -0.0152,1.07487 -0.80064,2.00918 -1.87,2.22002 -0.14607,0.0303 -0.25218,0.1571 -0.25218,0.30317 v 0.52366 c 0,0.0923 0.04,0.17914 0.11024,0.2384 0.0689,0.0565 0.16123,0.0827 0.24943,0.0675 1.68534,-0.27285 2.90903,-1.69637 2.90903,-3.38446 0,-1.26642 1.04318,-2.29581 2.32476,-2.29581 1.28295,0 2.32612,1.02939 2.32612,2.29581 0,1.26642 -1.04317,2.29719 -2.32612,2.29719 -0.31695,0 -0.57327,0.25356 -0.57327,0.56637 0,0.3142 0.25632,0.56775 0.57327,0.56775 1.91547,0 3.47403,-1.53927 3.47403,-3.43131 0,-1.89067 -1.55856,-3.43132 -3.47403,-3.43132"
       id="path154"
       style="stroke-width:0.352778" />
    <g
       clip-path="url(#clip-0)"
       id="g158"
       transform="matrix(0.35277777,0,0,0.35277777,27.407714,33.289322)">
      <path
         fill-rule="nonzero"
         fill="#040305"
         fill-opacity="1"
         d="m 206.51953,203.67969 h 0.42188 v 38.89843 h -0.42188 z m 0,0"
         id="path156" />
    </g>
    <path
       fill-rule="nonzero"
       fill="#000000"
       fill-opacity="1"
       d="m 107.59851,114.52054 c 0.40928,0 0.76618,-0.12403 1.07349,-0.36656 0.30592,-0.24392 0.47542,-0.5526 0.50849,-0.91915 h 1.08452 c -0.0193,0.38171 -0.15158,0.74138 -0.3955,1.08451 -0.24391,0.34176 -0.56913,0.61736 -0.97702,0.82131 -0.40653,0.20257 -0.83923,0.30593 -1.29398,0.30593 -0.91227,0 -1.63987,-0.30179 -2.17868,-0.904 -0.54019,-0.60082 -0.81029,-1.42627 -0.81029,-2.47219 v -0.1888 c 0,-0.6463 0.11851,-1.21956 0.35829,-1.72254 0.23978,-0.50299 0.58429,-0.89297 1.03353,-1.17134 0.44786,-0.27836 0.97841,-0.41616 1.58888,-0.41616 0.75241,0 1.37804,0.22324 1.87688,0.66834 0.49748,0.44511 0.76344,1.02388 0.79651,1.73495 h -1.08451 c -0.0331,-0.42994 -0.19569,-0.78135 -0.49334,-1.05833 -0.29628,-0.27561 -0.66008,-0.41341 -1.09554,-0.41341 -0.58291,0 -1.03491,0.2067 -1.35461,0.62149 -0.31971,0.41342 -0.47956,1.01424 -0.47956,1.79834 v 0.2136 c 0,0.76481 0.15847,1.35186 0.4768,1.76527 0.31833,0.41203 0.77308,0.61874 1.36426,0.61874 z m 0,0"
       id="path160"
       style="stroke-width:0.352778" />
    <path
       fill-rule="nonzero"
       fill="#000000"
       fill-opacity="1"
       d="m 115.69999,115.32256 c -0.0675,-0.13092 -0.11989,-0.36381 -0.1626,-0.69867 -0.53331,0.54708 -1.17134,0.82131 -1.91134,0.82131 -0.66146,0 -1.20441,-0.18466 -1.62747,-0.55535 -0.42443,-0.37069 -0.63527,-0.83922 -0.63527,-1.4056 0,-0.69177 0.26596,-1.22783 0.79788,-1.60955 0.53055,-0.38171 1.27882,-0.57326 2.24345,-0.57326 h 1.11483 v -0.51952 c 0,-0.39688 -0.11851,-0.71245 -0.35829,-0.94671 -0.23978,-0.23565 -0.59393,-0.35278 -1.06109,-0.35278 -0.4079,0 -0.75103,0.10197 -1.02802,0.30592 -0.2756,0.20395 -0.41616,0.452 -0.41616,0.74139 h -1.15342 c 0,-0.33073 0.12127,-0.65182 0.35829,-0.95912 0.2384,-0.3073 0.55948,-0.55259 0.966,-0.73312 0.4079,-0.17914 0.85439,-0.26871 1.34221,-0.26871 0.77446,0 1.37942,0.19154 1.81763,0.57189 0.43822,0.38309 0.6656,0.90812 0.68213,1.57785 v 3.05235 c 0,0.6091 0.0799,1.09279 0.23703,1.45246 v 0.0978 h -1.20441 z m -1.90307,-0.86266 c 0.35829,0 0.70005,-0.0923 1.02251,-0.27698 0.32108,-0.18466 0.55672,-0.42306 0.70004,-0.71658 v -1.36013 h -0.89986 c -1.4056,0 -2.10702,0.40515 -2.10702,1.21957 0,0.35415 0.11851,0.63252 0.35829,0.83233 0.23978,0.2012 0.54846,0.30179 0.92604,0.30179 z m 0,0"
       id="path162"
       style="stroke-width:0.352778" />
    <path
       fill-rule="nonzero"
       fill="#000000"
       fill-opacity="1"
       d="m 119.55436,108.69143 0.0358,0.83372 c 0.51262,-0.63666 1.18235,-0.95498 2.00917,-0.95498 1.41801,0 2.13596,0.78961 2.14836,2.3716 v 4.38079 h -1.1479 v -4.38768 c -0.004,-0.47818 -0.11438,-0.83234 -0.33211,-1.05971 -0.21497,-0.22738 -0.55397,-0.34313 -1.01423,-0.34313 -0.3707,0 -0.70005,0.0978 -0.97841,0.2949 -0.2825,0.19568 -0.50023,0.45337 -0.65733,0.7717 v 4.72392 h -1.14928 v -6.63113 z m 0,0"
       id="path164"
       style="stroke-width:0.352778" />
    <path
       fill-rule="nonzero"
       fill="#000000"
       fill-opacity="1"
       d="m 128.16848,114.52054 c 0.40928,0 0.76619,-0.12403 1.07349,-0.36656 0.30593,-0.24392 0.47543,-0.5526 0.50712,-0.91915 h 1.08727 c -0.022,0.38171 -0.15434,0.74138 -0.39687,1.08451 -0.24529,0.34176 -0.57051,0.61736 -0.97703,0.82131 -0.4079,0.20257 -0.83922,0.30593 -1.29398,0.30593 -0.91364,0 -1.64124,-0.30179 -2.18005,-0.904 -0.53882,-0.60082 -0.81029,-1.42627 -0.81029,-2.47219 v -0.1888 c 0,-0.6463 0.11851,-1.21956 0.35967,-1.72254 0.23978,-0.50299 0.58291,-0.89297 1.03215,-1.17134 0.44924,-0.27836 0.9784,-0.41616 1.59026,-0.41616 0.75102,0 1.37665,0.22324 1.8755,0.66834 0.49748,0.44511 0.76481,1.02388 0.79927,1.73495 h -1.08727 c -0.0331,-0.42994 -0.19569,-0.78135 -0.49197,-1.05833 -0.29489,-0.27561 -0.66146,-0.41341 -1.09553,-0.41341 -0.58429,0 -1.03629,0.2067 -1.35462,0.62149 -0.32108,0.41342 -0.48093,1.01424 -0.48093,1.79834 v 0.2136 c 0,0.76481 0.15847,1.35186 0.4768,1.76527 0.3197,0.41203 0.77308,0.61874 1.36426,0.61874 z m 0,0"
       id="path166"
       style="stroke-width:0.352778" />
    <path
       fill-rule="nonzero"
       fill="#000000"
       fill-opacity="1"
       d="m 134.91122,115.4452 c -0.90812,0 -1.65089,-0.29628 -2.22139,-0.88608 -0.57051,-0.5898 -0.85577,-1.37941 -0.85577,-2.36885 v -0.20808 c 0,-0.65733 0.12678,-1.24437 0.3831,-1.76113 0.25493,-0.51677 0.60909,-0.92053 1.0666,-1.21268 0.45751,-0.29214 0.95222,-0.43821 1.48552,-0.43821 0.8723,0 1.54892,0.28387 2.03399,0.85025 0.48369,0.56775 0.72485,1.38217 0.72485,2.4405 v 0.47129 h -4.54477 c 0.0138,0.65319 0.20808,1.18098 0.57878,1.58337 0.37069,0.401 0.8406,0.60358 1.41111,0.60358 0.40514,0 0.74827,-0.0827 1.02939,-0.24529 0.2825,-0.16399 0.52779,-0.37896 0.73863,-0.64906 l 0.70004,0.53881 c -0.56086,0.85439 -1.40422,1.28158 -2.53008,1.28158 z m -0.14194,-5.94348 c -0.4644,0 -0.853,0.16674 -1.16719,0.49885 -0.31557,0.33211 -0.5085,0.80064 -0.58291,1.40009 h 3.36241 v -0.0854 c -0.0331,-0.57602 -0.19017,-1.02251 -0.46991,-1.33945 -0.2825,-0.31695 -0.66284,-0.47405 -1.14102,-0.47405 z m 0,0"
       id="path168"
       style="stroke-width:0.352778" />
    <g
       clip-path="url(#clip-1)"
       id="g172"
       transform="matrix(0.35277777,0,0,0.35277777,27.407714,33.289322)">
      <path
         fill-rule="nonzero"
         fill="#000000"
         fill-opacity="1"
         d="m 325.11719,216.625 c -0.4961,-0.0781 -1.02344,-0.125 -1.60157,-0.125 -2.13671,0 -3.58203,0.89844 -4.34765,2.69531 v 13.33985 h -3.25391 v -18.79688 h 3.16406 l 0.0508,2.17188 c 1.07031,-1.67579 2.57421,-2.51954 4.53906,-2.51954 0.63281,0 1.10937,0.0781 1.44531,0.24219 v 2.98828 z m 0,0"
         id="path170" />
    </g>
  </g>
</svg>
