<?xml version="1.0" encoding="UTF-8" standalone="no"?>
<!-- Generator: Adobe Illustrator 24.1.2, SVG Export Plug-In . SVG Version: 6.00 Build 0)  -->

<svg
   xmlns:dc="http://purl.org/dc/elements/1.1/"
   xmlns:cc="http://creativecommons.org/ns#"
   xmlns:rdf="http://www.w3.org/1999/02/22-rdf-syntax-ns#"
   xmlns:svg="http://www.w3.org/2000/svg"
   xmlns="http://www.w3.org/2000/svg"
   xmlns:sodipodi="http://sodipodi.sourceforge.net/DTD/sodipodi-0.dtd"
   xmlns:inkscape="http://www.inkscape.org/namespaces/inkscape"
   version="1.1"
   id="Layer_1"
   x="0px"
   y="0px"
   viewBox="0 0 420 420"
   xml:space="preserve"
   sodipodi:docname="fairdom.svg"
   width="420"
   height="420"
   inkscape:version="0.92.3 (2405546, 2018-03-11)"><metadata
   id="metadata1363"><rdf:RDF><cc:Work
       rdf:about=""><dc:format>image/svg+xml</dc:format><dc:type
         rdf:resource="http://purl.org/dc/dcmitype/StillImage" /><dc:title></dc:title></cc:Work></rdf:RDF></metadata><defs
   id="defs1361" /><sodipodi:namedview
   pagecolor="#ffffff"
   bordercolor="#666666"
   borderopacity="1"
   objecttolerance="10"
   gridtolerance="10"
   guidetolerance="10"
   inkscape:pageopacity="0"
   inkscape:pageshadow="2"
   inkscape:window-width="2560"
   inkscape:window-height="1247"
   id="namedview1359"
   showgrid="false"
   viewbox-x="0"
   viewbox-width="480"
   viewbox-height="480"
   inkscape:zoom="1.0150682"
   inkscape:cx="265.89499"
   inkscape:cy="77.344532"
   inkscape:window-x="0"
   inkscape:window-y="0"
   inkscape:window-maximized="1"
   inkscape:current-layer="Layer_1"
   fit-margin-top="0"
   fit-margin-left="0"
   fit-margin-right="0"
   fit-margin-bottom="0" />
<style
   type="text/css"
   id="style1300">
	.st0{fill:#090378;}
	.st1{fill:#2363cc;}
</style>
<g
   id="g1338"
   transform="matrix(9.2457421,0,0,9.2682927,20,19.07317)">
	<rect
   x="11.3"
   y="8.8000002"
   transform="matrix(0.7071,-0.7071,0.7071,0.7071,-5.737,12.1274)"
   class="st0"
   width="1"
   height="8.3000002"
   id="rect1302"
   style="fill:#090378" />
	<rect
   x="25.700001"
   y="12.5"
   transform="matrix(0.7071,-0.7071,0.7071,0.7071,-0.4493,24.8942)"
   class="st0"
   width="8.3000002"
   height="1"
   id="rect1304"
   style="fill:#090378" />
	<rect
   x="20.1"
   y="4.3000002"
   class="st0"
   width="1.5"
   height="11.1"
   id="rect1306"
   style="fill:#090378" />
	<rect
   x="6.5"
   y="5.4000001"
   transform="matrix(0.9042,-0.427,0.427,0.9042,-1.2288,6.4313)"
   class="st0"
   width="14.4"
   height="1.1"
   id="rect1308"
   style="fill:#090378" />
	<rect
   x="27.700001"
   y="-1.1"
   transform="matrix(0.4269,-0.9043,0.9043,0.4269,10.6354,29.076)"
   class="st0"
   width="1.1"
   height="14.4"
   id="rect1310"
   style="fill:#090378" />
	<path
   class="st1"
   d="m 12.3,16.6 c 0.1,0.3 0.3,0.4 0.6,0.4 1.6,0.1 3.1,0.1 4.7,0.3 0.4,0 0.9,0.3 1.3,0.4 0,0.4 -0.3,0.5 -0.5,0.7 -0.7,0.7 -1.2,1.4 -1.6,2.2 -0.2,0.4 -0.3,0.9 -0.2,1.3 0,0.6 0.3,0.8 0.9,0.7 0.5,-0.1 0.8,-0.3 1.2,-0.6 0.6,-0.4 1.1,-0.8 1.7,-1.1 0.8,-0.5 1.6,-0.4 2.2,0.3 1.6,1.9 3.7,3.2 5.6,4.7 0.2,0.2 0.4,0.3 0.5,0.6 0,0.1 0,0.3 0,0.4 0.1,1.2 -0.4,1.8 -1.7,1.9 -0.2,0 -0.3,0 -0.5,0 0.1,0.3 0.3,0.5 0.4,0.7 0.3,0.7 0,1.2 -0.7,1.2 -0.2,0 -0.5,0 -0.7,0 -0.2,0 -0.4,-0.1 -0.7,-0.2 0,0.5 0.4,1 -0.2,1.3 -0.5,0.3 -1.1,0.3 -1.6,-0.2 -0.6,1.1 -0.6,1.1 -1.9,0.8 C 21,32.2 21.2,32 21.3,31.8 21.4,31.6 21.5,31.3 21.5,31 21.4,30.1 21,29.8 20,29.9 c -0.2,-0.2 -0.1,-0.4 -0.1,-0.5 0.1,-0.9 -0.3,-1.3 -1.2,-1 -0.3,0.1 -0.6,0.4 -0.9,0.2 -0.3,-0.2 0,-0.6 0,-0.9 -0.1,-0.8 -0.6,-1.2 -1.4,-0.9 -0.2,0.1 -0.4,0.2 -0.5,0.3 -0.2,0.1 -0.3,0.3 -0.5,0.2 -0.2,-0.1 -0.1,-0.4 -0.1,-0.5 0.1,-0.4 0,-0.8 -0.1,-1.2 -0.2,-0.6 -0.5,-0.8 -1.1,-0.5 -0.4,0.2 -0.8,0.4 -1.1,0.7 -0.2,0.1 -0.3,0.3 -0.5,0.3 -0.9,-0.8 -1.9,-1.4 -3,-1.7 -0.1,-0.3 0.1,-0.6 0.3,-0.8 0.8,-1.5 1.6,-3 2.2,-4.6 0.2,-0.6 0.4,-1.1 0.4,-1.7 -0.3,-0.5 -0.3,-0.6 -0.1,-0.7 z"
   id="path1312"
   inkscape:connector-curvature="0"
   style="fill:#2363cc" />
	<path
   class="st0"
   d="m 34.7,26 c 0,0.1 0,0.2 -0.1,0.4 -1.5,0.8 -2.1,0.5 -2.6,-0.9 -0.2,0.3 -0.5,0.5 -0.7,0.8 -0.7,0.8 -1.2,0.9 -2.2,0.5 -0.2,-0.1 -0.4,-0.2 -0.5,-0.2 -1.3,-1 -2.5,-1.9 -3.8,-2.9 -0.7,-0.6 -1.3,-1.2 -1.9,-1.8 -0.2,-0.2 -0.4,-0.4 -0.6,-0.6 -0.6,-0.5 -1.2,-0.6 -1.9,-0.2 -0.8,0.5 -1.6,1.1 -2.5,1.6 -0.2,0.1 -0.5,0.2 -0.8,0.2 -0.5,0.1 -0.9,-0.2 -0.9,-0.7 0,-0.5 0,-1.1 0.3,-1.6 0.4,-0.7 0.9,-1.4 1.4,-2.1 0.2,-0.3 0.5,-0.6 0.8,-0.8 0.1,-0.1 0.3,-0.2 0.4,-0.3 1.3,-1.1 2.7,-1.2 4.2,-0.6 1,0.4 2,0.9 3,1.3 0.8,0.3 1.6,0.6 2.6,0.3 0,0 0,-0.1 0,-0.2 -0.2,-1 -0.2,-1.2 0.7,-1.6 0.5,-0.3 1.1,-0.5 1.6,-0.7 0,0.1 0.1,0.1 0.1,0.2 -0.3,0.4 -0.8,0.4 -1.2,0.6 -0.8,0.5 -0.9,0.7 -0.5,1.6 0.1,0.2 0.2,0.4 0.3,0.6 1.3,1.9 2,4 2.6,6.2 0,0.1 0.1,0.2 0.1,0.3 0.3,0.9 0.8,1.3 1.6,0.7 C 34.4,26 34.5,26 34.7,26 Z"
   id="path1314"
   inkscape:connector-curvature="0"
   style="fill:#090378" />
	<path
   class="st0"
   d="m 12.3,25.8 c 0.5,-0.4 1,-0.8 1.5,-1.1 0.7,-0.4 1.2,-0.2 1.4,0.7 0.1,0.5 0.1,1.1 0.1,1.6 1.9,-1.2 2.7,-0.6 2.5,1.5 0.6,-0.3 1.3,-0.8 1.9,-0.3 0.5,0.4 0.3,1 0.2,1.4 0.4,0.1 0.9,0 1.1,0.2 0.4,0.3 0.6,0.9 0.5,1.5 -0.1,0.4 -0.3,0.7 -0.5,1.1 -0.4,0.3 -0.8,0.7 -1.3,0.9 -0.9,0.4 -1.5,-0.1 -1.7,-1.2 -0.5,0.2 -1,0.4 -1.4,-0.2 -0.3,-0.4 -0.4,-0.9 -0.6,-1.4 -1.6,-0.1 -1.7,-0.3 -2.1,-1.9 -0.2,0.1 -0.4,0.2 -0.6,0.2 -0.8,0.3 -1.5,0 -1.6,-0.9 -0.1,-0.7 0.2,-1.4 0.6,-2.1 z"
   id="path1316"
   inkscape:connector-curvature="0"
   style="fill:#090378" />
	<path
   class="st0"
   d="m 5.9,26.1 c 1.2,1.5 2.3,2.9 3.4,4.4 -0.6,0 -1.1,0 -1.6,0 -0.1,0 -0.2,-0.1 -0.3,-0.2 -0.8,-1 -1.5,-2 -2.3,-3 0.2,-0.4 0.5,-0.8 0.8,-1.2 z"
   id="path1318"
   inkscape:connector-curvature="0"
   style="fill:#090378" />
	<path
   class="st0"
   d="m 30.7,31.8 c 1.1,-1.4 2.1,-2.8 3.3,-4.2 0.2,0.6 0.4,0.9 0.5,1.3 0,0.1 0,0.3 -0.1,0.4 -0.6,0.8 -1.2,1.6 -1.8,2.3 -0.1,0.1 -0.3,0.2 -0.4,0.2 -0.5,0 -0.9,0 -1.5,0 z"
   id="path1320"
   inkscape:connector-curvature="0"
   style="fill:#090378" />
	<path
   class="st0"
   d="m 33.8,11 c 0.5,0 1,0 1.4,0 0,0.1 0,0.2 0,0.4 0.3,1.3 0.3,1.3 -1,1.8 0,-0.8 -0.2,-1.5 -0.4,-2.2 z"
   id="path1322"
   inkscape:connector-curvature="0"
   style="fill:#090378" />
	<path
   class="st0"
   d="m 5.8,11 c 0.5,0 0.9,0 1.4,0 0,0.2 -0.1,0.3 -0.1,0.7 C 6.6,11.4 6.2,11.2 5.8,11 Z"
   id="path1324"
   inkscape:connector-curvature="0"
   style="fill:#090378" />
	<path
   class="st0"
   d="M 12.3,16.6 C 12.2,15.8 11.6,15.4 10.9,15 10.4,14.7 9.7,14.6 9.3,14.2 8.3,13.3 7.2,12.9 6,12.4 4.8,11.9 3.5,11.4 2.3,10.9 1.6,10.6 0.9,10.5 0.1,10.6 c 0,5 0,9.9 0,14.9 0,0.1 0,0.4 0.1,0.4 0.7,0.5 1.5,1 2.2,1.5 0.4,0.2 0.8,0.1 1.1,-0.2 0.3,-0.2 0.5,-0.4 0.7,-0.7 0.5,-0.6 0.9,-1.3 1.3,-1.9 0.8,0.3 1.5,0.5 2.3,0.8 0.4,0.2 0.7,0.1 0.9,-0.3 0.1,-0.3 0.4,-0.6 0.6,-0.9 0.6,-1.2 1.3,-2.4 1.9,-3.6 0.5,-1.3 1.2,-2.6 1.1,-4 z m -1,2.2 C 10.4,21 9.4,23.1 8,25.1 7.3,24.8 6.5,24.5 5.8,24.2 c 1.8,-2.9 3.4,-5.9 3.8,-9.4 0,0 0,0 0,0 0,0 0,0 0,0 0,0 0,0 0,0 2.5,1.1 2.6,1.8 1.7,4 z"
   id="path1326"
   inkscape:connector-curvature="0"
   style="fill:#090378" />
	<path
   class="st1"
   d="m 22.7,4.7 h -4.2 c -0.5,0 -1,-0.4 -1,-1 V 1.1 c 0,-0.5 0.5,-1 1,-1 h 4.2 c 0.5,0 1,0.5 1,1 v 2.6 c 0,0.5 -0.4,1 -1,1 z"
   id="path1328"
   inkscape:connector-curvature="0"
   style="fill:#2363cc" />
	<path
   class="st1"
   d="m 36.9,11.1 h -4.2 c -0.5,0 -1,-0.4 -1,-1 V 7.5 c 0,-0.6 0.4,-1 1,-1 h 4.2 c 0.5,0 1,0.4 1,1 v 2.6 c 0,0.5 -0.5,1 -1,1 z"
   id="path1330"
   inkscape:connector-curvature="0"
   style="fill:#2363cc" />
	<path
   class="st1"
   d="M 8.9,11.1 H 4.7 c -0.6,0 -1,-0.4 -1,-1 V 7.5 c 0,-0.6 0.4,-1 1,-1 h 4.2 c 0.6,0 1,0.4 1,1 v 2.6 c 0,0.5 -0.5,1 -1,1 z"
   id="path1332"
   inkscape:connector-curvature="0"
   style="fill:#2363cc" />
	<path
   class="st1"
   d="m 31.3,15.8 c 3.2,-1.6 6.6,-3 9.8,-4.9 0,0.3 0,0.5 0,0.7 0,5.3 0,10.6 0,15.8 0,0.4 -0.1,0.7 -0.5,0.9 -1.2,0.6 -2.3,1.2 -3.5,1.8 -0.4,0.2 -0.7,0.1 -0.9,-0.3 -0.4,-1 -0.8,-2 -1.3,-3 -0.1,-0.2 -0.2,-0.3 -0.4,-0.5 -0.1,-0.1 0,-0.3 -0.1,-0.4 -1.2,-3.2 -2.2,-6.5 -3.1,-9.8 0,0 0,-0.1 0,-0.3 z"
   id="path1334"
   inkscape:connector-curvature="0"
   style="fill:#2363cc" />
	<path
   class="st0"
   d="m 30.8,14.8 c -2.2,-3.8 -6,-6 -10.1,-6 -3.8,0 -7.4,2 -9.7,5.3 l -0.9,-0.6 c 2.5,-3.6 6.4,-5.8 10.6,-5.8 4.5,0 8.6,2.4 11.1,6.5 z"
   id="path1336"
   inkscape:connector-curvature="0"
   style="fill:#090378" />
</g>
<g
   id="g1356"
   transform="matrix(9.2457421,0,0,9.2682927,20,19.07317)">
	<path
   class="st1"
   d="m 1.1,35.7 v 1.8 H 4 v 0.9 H 1.1 V 41 H 0 v -6.3 h 4.2 v 1 z"
   id="path1340"
   inkscape:connector-curvature="0"
   style="fill:#2363cc" />
	<path
   class="st1"
   d="M 5.8,39.6 5.2,41 H 4.1 L 6.9,34.7 H 8 L 10.8,41 H 9.6 L 9,39.6 Z m 1.6,-3.7 -1.2,2.8 h 2.4 z"
   id="path1342"
   inkscape:connector-curvature="0"
   style="fill:#2363cc" />
	<path
   class="st1"
   d="m 11.6,41 v -6.3 h 1.1 V 41 Z"
   id="path1344"
   inkscape:connector-curvature="0"
   style="fill:#2363cc" />
	<path
   class="st1"
   d="m 17.2,39.1 c -0.1,0 -0.2,0 -0.3,0 H 15.4 V 41 h -1.1 v -6.3 h 2.6 c 1.6,0 2.5,0.8 2.5,2.2 0,1 -0.5,1.7 -1.3,2 l 1.4,2.1 h -1.2 z m -0.3,-0.9 c 1,0 1.5,-0.4 1.5,-1.3 0,-0.8 -0.6,-1.2 -1.5,-1.2 h -1.5 v 2.5 c 0,0 1.5,0 1.5,0 z"
   id="path1346"
   inkscape:connector-curvature="0"
   style="fill:#2363cc" />
	<g
   id="g1354">
		<path
   class="st0"
   d="m 23.2,34.8 c 1.9,0 3.2,1.3 3.2,3.1 0,1.8 -1.4,3.1 -3.3,3.1 h -2.5 v -6.2 z m -1.5,5.3 h 1.5 c 1.2,0 2.1,-0.9 2.1,-2.2 0,-1.3 -1,-2.2 -2.2,-2.2 h -1.5 v 4.4 z"
   id="path1348"
   inkscape:connector-curvature="0"
   style="fill:#090378" />
		<path
   class="st0"
   d="m 33.4,37.9 c 0,1.8 -1.4,3.2 -3.3,3.2 -1.9,0 -3.3,-1.4 -3.3,-3.2 0,-1.8 1.4,-3.1 3.3,-3.1 1.8,-0.1 3.3,1.3 3.3,3.1 z m -5.6,0 c 0,1.2 1,2.2 2.2,2.2 1.2,0 2.2,-1 2.2,-2.2 0,-1.2 -1,-2.2 -2.2,-2.2 -1.2,0 -2.2,0.9 -2.2,2.2 z"
   id="path1350"
   inkscape:connector-curvature="0"
   style="fill:#090378" />
		<path
   class="st0"
   d="m 40.1,41 v -4.7 l -2,4 h -0.7 l -2,-4 V 41 h -1 v -6.2 h 1.2 l 2.1,4.1 2.1,-4.1 H 41 V 41 Z"
   id="path1352"
   inkscape:connector-curvature="0"
   style="fill:#090378" />
	</g>
</g>
</svg>