<?xml version="1.0" encoding="UTF-8"?>
<!-- Generator: Adobe Illustrator 24.1.1, SVG Export Plug-In . SVG Version: 6.00 Build 0)  -->
<svg version="1.1" id="Livello_1" xmlns="http://www.w3.org/2000/svg" xmlns:xlink="http://www.w3.org/1999/xlink" x="0px" y="0px" viewBox="0 0 572.72 70" style="enable-background:new 0 0 572.72 70;" xml:space="preserve">
<style type="text/css">
	.st0{fill:#040305;}
	.st1{fill:#40A8F5;}
	.st2{fill:#FAC405;}
	.st3{fill:#7C7C7B;}
	.st4{fill:#1C1463;}
</style>
<g>
	<path class="st0" d="M94.25,25.78c1.04-1.01,2.21-1.76,3.51-2.25c1.3-0.48,2.61-0.73,3.94-0.73c1.63,0,3.19,0.35,4.67,1.06   c1.48,0.71,2.74,1.71,3.77,3.01c1.04,1.3,1.62,2.86,1.75,4.67v0.53H91.09c0.16-0.83,0.36-1.61,0.64-2.32   C92.37,28.12,93.21,26.79,94.25,25.78 M116.72,35.94c0.53-0.46,0.79-1.05,0.79-1.75c-0.04-2.52-0.51-4.77-1.39-6.75   c-0.88-1.99-2.05-3.71-3.51-5.16c-1.46-1.46-3.13-2.56-5.03-3.31c-1.9-0.75-3.86-1.13-5.89-1.13c-2.74,0-5.33,0.72-7.78,2.15   c-2.45,1.43-4.44,3.51-5.96,6.22c-1.52,2.71-2.28,5.99-2.28,9.83c0,3.44,0.73,6.48,2.18,9.1c1.46,2.63,3.51,4.69,6.16,6.19   c2.65,1.5,5.76,2.25,9.33,2.25c2.38,0,4.62-0.51,6.72-1.52c2.1-1.01,3.78-2.21,5.06-3.57c0.71-0.62,1.06-1.3,1.06-2.05   c0-0.62-0.22-1.15-0.66-1.59c-0.44-0.44-0.97-0.66-1.59-0.66c-0.57,0-1.15,0.2-1.72,0.6c-0.57,0.62-1.27,1.22-2.09,1.82   c-0.82,0.6-1.8,1.09-2.95,1.49c-1.15,0.4-2.49,0.6-4.04,0.6c-2.47,0-4.63-0.56-6.49-1.69c-1.85-1.12-3.3-2.66-4.34-4.6   c-0.9-1.69-1.41-3.61-1.53-5.76h24.06C115.57,36.63,116.19,36.4,116.72,35.94"/>
	<path class="st0" d="M152.59,35.71c0-2.56-0.52-4.8-1.56-6.72c-1.04-1.92-2.45-3.44-4.24-4.57c-1.79-1.13-3.78-1.69-5.99-1.69   c-2.25,0-4.27,0.56-6.06,1.69s-3.21,2.65-4.27,4.57c-1.06,1.92-1.59,4.16-1.59,6.72c0,2.52,0.53,4.74,1.59,6.68   c1.06,1.94,2.48,3.48,4.27,4.6c1.79,1.13,3.81,1.69,6.06,1.69c2.21,0,4.2-0.56,5.99-1.69c1.79-1.12,3.2-2.66,4.24-4.6   C152.07,40.45,152.59,38.22,152.59,35.71 M157.95,35.71c0,3.44-0.76,6.51-2.28,9.2c-1.52,2.69-3.57,4.81-6.15,6.35   c-2.58,1.54-5.48,2.32-8.7,2.32c-3.22,0-6.13-0.77-8.74-2.32c-2.6-1.54-4.66-3.66-6.19-6.35c-1.52-2.69-2.28-5.76-2.28-9.2   c0-3.44,0.76-6.51,2.28-9.2c1.52-2.69,3.59-4.81,6.19-6.35c2.6-1.54,5.52-2.32,8.74-2.32c3.22,0,6.12,0.77,8.7,2.32   c2.58,1.54,4.63,3.66,6.15,6.35C157.19,29.2,157.95,32.27,157.95,35.71"/>
	<path class="st0" d="M163.91,47.49c-0.35-0.57-0.52-1.18-0.5-1.82c0.02-0.64,0.39-1.2,1.09-1.69c0.48-0.31,1.02-0.44,1.62-0.4   c0.6,0.04,1.13,0.33,1.62,0.86c1.23,1.46,2.65,2.61,4.24,3.47c1.59,0.86,3.53,1.29,5.82,1.29c1.01-0.04,2.06-0.22,3.15-0.53   c1.08-0.31,1.99-0.85,2.71-1.62c0.73-0.77,1.09-1.8,1.09-3.08c0-1.24-0.38-2.22-1.13-2.95c-0.75-0.73-1.73-1.32-2.95-1.79   c-1.21-0.46-2.51-0.87-3.87-1.22c-1.46-0.4-2.89-0.84-4.3-1.32c-1.41-0.48-2.68-1.11-3.8-1.89c-1.13-0.77-2.03-1.74-2.71-2.91   c-0.68-1.17-1.03-2.61-1.03-4.34c0-1.99,0.54-3.71,1.62-5.16c1.08-1.46,2.53-2.58,4.34-3.37c1.81-0.79,3.82-1.19,6.02-1.19   c1.24,0,2.53,0.14,3.87,0.43c1.34,0.29,2.66,0.77,3.94,1.46c1.28,0.68,2.4,1.62,3.38,2.81c0.4,0.44,0.62,0.99,0.66,1.65   c0.04,0.66-0.24,1.26-0.86,1.79c-0.49,0.35-1.03,0.52-1.62,0.5c-0.6-0.02-1.09-0.23-1.49-0.63c-0.97-1.15-2.15-2.02-3.54-2.62   c-1.39-0.6-2.92-0.89-4.6-0.89c-1.01,0-2.03,0.17-3.04,0.5c-1.02,0.33-1.87,0.85-2.55,1.56c-0.68,0.71-1.03,1.7-1.03,2.98   c0.05,1.19,0.44,2.16,1.19,2.91c0.75,0.75,1.76,1.36,3.04,1.82c1.28,0.46,2.69,0.91,4.24,1.36c1.41,0.35,2.77,0.76,4.07,1.22   c1.3,0.46,2.48,1.07,3.54,1.82c1.06,0.75,1.9,1.71,2.52,2.88c0.62,1.17,0.93,2.64,0.93,4.4c0,2.03-0.57,3.78-1.72,5.26   c-1.15,1.48-2.66,2.6-4.53,3.38c-1.88,0.77-3.89,1.16-6.06,1.16c-2.43,0-4.83-0.45-7.21-1.36   C167.68,51.32,165.63,49.74,163.91,47.49"/>
	<path class="st0" d="M212.42,17.84c2.29,0,4.35,0.24,6.16,0.73c1.81,0.49,3.24,1.15,4.3,1.99c1.06,0.84,1.59,1.79,1.59,2.85   c0,0.62-0.2,1.19-0.59,1.72c-0.4,0.53-0.95,0.79-1.66,0.79c-0.57,0-1.05-0.12-1.42-0.36c-0.38-0.24-0.73-0.53-1.06-0.86   c-0.33-0.33-0.78-0.65-1.36-0.96c-0.53-0.27-1.3-0.5-2.32-0.7c-1.02-0.2-2.03-0.3-3.04-0.3c-2.43,0-4.56,0.57-6.39,1.72   c-1.83,1.15-3.28,2.69-4.34,4.63c-1.06,1.94-1.59,4.15-1.59,6.62c0,2.47,0.51,4.68,1.52,6.62c1.02,1.94,2.43,3.49,4.24,4.63   c1.81,1.15,3.9,1.72,6.29,1.72c1.54,0,2.77-0.13,3.67-0.4c0.9-0.26,1.69-0.57,2.35-0.93c0.75-0.44,1.33-0.88,1.75-1.32   c0.42-0.44,1-0.66,1.75-0.66c0.75,0,1.33,0.24,1.75,0.73c0.42,0.49,0.63,1.08,0.63,1.79c0,0.84-0.55,1.7-1.66,2.58   c-1.1,0.88-2.6,1.62-4.5,2.22c-1.9,0.6-4.02,0.89-6.35,0.89c-3.35,0-6.29-0.78-8.8-2.35c-2.51-1.57-4.47-3.71-5.86-6.42   c-1.39-2.71-2.08-5.75-2.08-9.1c0-3.35,0.72-6.38,2.15-9.07c1.43-2.69,3.43-4.83,5.99-6.42C206.11,18.63,209.07,17.84,212.42,17.84   "/>
	<path class="st1" d="M37.27,20.7c-2.9-1.87-6.25-2.86-9.7-2.86c-3.45,0-6.81,0.99-9.71,2.87c-0.59,0.38-0.97,1.01-1.05,1.71   c-0.08,0.72,0.17,1.43,0.69,1.94l0.97,0.97c0.46,0.46,1.06,0.7,1.67,0.7c0.42,0,0.85-0.11,1.23-0.35c1.86-1.15,4.01-1.76,6.2-1.76   c2.19,0,4.33,0.61,6.2,1.76c0.93,0.57,2.12,0.43,2.9-0.35l0.97-0.97c0.51-0.51,0.76-1.22,0.69-1.94   C38.24,21.71,37.86,21.08,37.27,20.7"/>
	<path class="st2" d="M24.81,47.38c-5.41-1.28-9.19-6.06-9.19-11.62c0-2.2,0.61-4.36,1.77-6.24c0.55-0.89,0.41-2.04-0.34-2.79   l-0.97-0.97c-0.49-0.49-1.17-0.73-1.87-0.66c-0.68,0.07-1.28,0.44-1.65,1.01c-1.86,2.88-2.85,6.22-2.85,9.65   c0,8.34,5.92,15.67,14.07,17.43c0.16,0.03,0.31,0.05,0.47,0.05c0.5,0,1-0.17,1.4-0.5c0.54-0.44,0.86-1.09,0.86-1.79V49.6   C26.52,48.55,25.8,47.62,24.81,47.38"/>
	<path class="st1" d="M57.34,17.93c-9.84,0-17.84,8-17.84,17.84l0.01,0.08l-0.01,0.09c-0.08,5.6-4.12,10.45-9.61,11.54   c-0.75,0.15-1.29,0.81-1.29,1.57v2.72c0,0.48,0.21,0.93,0.57,1.24c0.36,0.3,0.82,0.43,1.28,0.36c8.66-1.42,14.95-8.82,14.95-17.6   c0-6.58,5.36-11.94,11.94-11.94c6.58,0,11.94,5.36,11.94,11.94c0,6.58-5.36,11.94-11.94,11.94c-1.63,0-2.95,1.32-2.95,2.95   c0,1.63,1.32,2.95,2.95,2.95c9.84,0,17.84-8,17.84-17.84C75.17,25.93,67.17,17.93,57.34,17.93"/>
	<polygon class="st0" points="246.2,71.35 246.97,71.35 246.97,0 246.2,0 246.2,71.35  "/>
	<path class="st3" d="M274.47,58.61h-4.62v-3.43h5.3v-1.15h-6.7v10.66h6.77v-1.15h-5.37v-3.78h4.62V58.61L274.47,58.61z    M277.68,56.76h-1.57l2.59,3.92l-2.67,4.01h1.58l1.83-2.97l1.83,2.97h1.57l-2.67-4.01l2.59-3.92h-1.58l-1.76,2.89L277.68,56.76   L277.68,56.76z M290.88,60.69c0-1.28-0.28-2.28-0.83-3c-0.55-0.72-1.31-1.08-2.26-1.08c-0.98,0-1.75,0.34-2.3,1.03l-0.07-0.88   h-1.24v10.97h1.36v-3.82c0.55,0.61,1.31,0.92,2.27,0.92c0.94,0,1.69-0.37,2.24-1.11c0.55-0.74,0.83-1.71,0.83-2.92V60.69   L290.88,60.69z M288.95,62.96c-0.38,0.52-0.9,0.77-1.55,0.77c-0.83,0-1.45-0.36-1.86-1.08v-3.79c0.41-0.73,1.02-1.09,1.85-1.09   c0.66,0,1.19,0.26,1.57,0.78c0.38,0.52,0.57,1.22,0.57,2.12C289.53,61.68,289.34,62.44,288.95,62.96L288.95,62.96z M298.92,64.69   v-0.12c-0.19-0.43-0.28-1.01-0.28-1.74v-3.65c-0.02-0.8-0.29-1.43-0.81-1.89c-0.52-0.46-1.23-0.68-2.15-0.68   c-0.58,0-1.1,0.11-1.59,0.32c-0.48,0.21-0.86,0.51-1.14,0.88c-0.28,0.37-0.42,0.75-0.42,1.15h1.36c0-0.35,0.16-0.64,0.49-0.89   c0.33-0.24,0.73-0.37,1.22-0.37c0.55,0,0.97,0.14,1.25,0.42c0.28,0.28,0.42,0.66,0.42,1.13v0.62h-1.32c-1.14,0-2.02,0.23-2.65,0.68   c-0.63,0.46-0.94,1.1-0.94,1.92c0,0.68,0.25,1.24,0.75,1.68c0.5,0.44,1.14,0.66,1.92,0.66c0.87,0,1.63-0.33,2.26-0.98   c0.05,0.4,0.11,0.68,0.19,0.83H298.92L298.92,64.69z M294.16,63.3c-0.28-0.24-0.43-0.57-0.43-1c0-0.97,0.83-1.46,2.49-1.46h1.06   v1.63c-0.17,0.35-0.45,0.64-0.83,0.86c-0.38,0.22-0.78,0.33-1.21,0.33C294.8,63.66,294.44,63.54,294.16,63.3L294.16,63.3z    M300.76,56.76v7.92h1.36v-5.65c0.19-0.38,0.44-0.69,0.78-0.92c0.33-0.23,0.72-0.35,1.16-0.35c0.54,0,0.94,0.14,1.2,0.41   c0.26,0.27,0.39,0.7,0.39,1.27v5.24H307v-5.24c-0.01-1.89-0.86-2.83-2.53-2.83c-0.98,0-1.77,0.38-2.37,1.14l-0.04-1H300.76   L300.76,56.76z M308.71,60.76c0,1.21,0.29,2.19,0.87,2.94c0.58,0.75,1.33,1.13,2.24,1.13c0.97,0,1.72-0.33,2.26-1l0.07,0.85h1.24   V53.44h-1.36v4.13c-0.54-0.63-1.28-0.95-2.2-0.95c-0.93,0-1.69,0.37-2.26,1.11c-0.58,0.74-0.86,1.72-0.86,2.93V60.76L308.71,60.76z    M310.62,58.54c0.37-0.51,0.89-0.77,1.55-0.77c0.84,0,1.46,0.37,1.87,1.12v3.64c-0.39,0.77-1.02,1.16-1.88,1.16   c-0.65,0-1.17-0.25-1.54-0.76c-0.37-0.51-0.56-1.21-0.56-2.11C310.07,59.81,310.25,59.05,310.62,58.54L310.62,58.54z M318.97,56.76   h-1.36v7.92h1.36V56.76L318.97,56.76z M317.71,55.21c0.13,0.15,0.33,0.22,0.6,0.22s0.46-0.07,0.6-0.22   c0.14-0.15,0.21-0.33,0.21-0.55c0-0.22-0.07-0.41-0.21-0.56c-0.14-0.15-0.34-0.23-0.6-0.23s-0.46,0.08-0.6,0.23   c-0.13,0.15-0.2,0.34-0.2,0.56C317.51,54.88,317.57,55.07,317.71,55.21L317.71,55.21z M321.14,56.76v7.92h1.35v-5.65   c0.19-0.38,0.45-0.69,0.78-0.92c0.33-0.23,0.72-0.35,1.16-0.35c0.54,0,0.94,0.14,1.2,0.41c0.26,0.27,0.39,0.7,0.39,1.27v5.24h1.36   v-5.24c-0.01-1.89-0.86-2.83-2.53-2.83c-0.98,0-1.77,0.38-2.37,1.14l-0.04-1H321.14L321.14,56.76z M329.95,63.72   c0.57,0.75,1.32,1.12,2.25,1.12c0.94,0,1.68-0.31,2.22-0.94v0.68c0,0.67-0.18,1.2-0.55,1.57c-0.37,0.37-0.88,0.56-1.54,0.56   c-0.84,0-1.55-0.36-2.13-1.08l-0.7,0.81c0.29,0.42,0.71,0.76,1.25,1c0.55,0.24,1.11,0.37,1.68,0.37c1.02,0,1.84-0.3,2.45-0.89   c0.61-0.59,0.91-1.4,0.91-2.42v-7.73h-1.24l-0.07,0.88c-0.54-0.68-1.3-1.03-2.26-1.03c-0.94,0-1.7,0.37-2.27,1.1   c-0.57,0.73-0.86,1.71-0.86,2.95C329.09,61.95,329.38,62.97,329.95,63.72L329.95,63.72z M331.01,58.54   c0.37-0.51,0.89-0.77,1.55-0.77c0.83,0,1.45,0.38,1.87,1.14v3.62c-0.4,0.78-1.03,1.16-1.88,1.16c-0.66,0-1.17-0.26-1.54-0.77   c-0.37-0.51-0.55-1.21-0.55-2.11C330.46,59.81,330.64,59.05,331.01,58.54L331.01,58.54z M347.64,58.83h-4.48v-3.65h5.2v-1.15h-6.61   v10.66h1.41v-4.71h4.48V58.83L347.64,58.83z M355.71,64.69h1.44l-4.08-10.66h-1.23l-4.07,10.66h1.45l1-2.79h4.47L355.71,64.69   L355.71,64.69z M352.46,55.76l1.82,4.99h-3.62L352.46,55.76L352.46,55.76z M360.1,54.03h-1.41v10.66h1.41V54.03L360.1,54.03z    M368.89,64.69h1.51V64.6l-2.51-4.53c0.64-0.24,1.14-0.61,1.5-1.11c0.36-0.49,0.54-1.07,0.54-1.74c0-1.04-0.32-1.84-0.97-2.39   c-0.65-0.55-1.57-0.82-2.77-0.82h-3.53v10.66h1.41v-4.31h2.51L368.89,64.69L368.89,64.69z M364.07,55.18h2.15   c0.74,0,1.31,0.18,1.7,0.54c0.39,0.35,0.59,0.86,0.59,1.52c0,0.61-0.21,1.09-0.62,1.45c-0.41,0.36-0.97,0.54-1.67,0.54h-2.16V55.18   L364.07,55.18z M379.55,63.42c-0.31,0.21-0.72,0.31-1.23,0.31c-0.56,0-1.01-0.13-1.34-0.4c-0.34-0.27-0.52-0.63-0.55-1.08h-1.35   c0,0.47,0.14,0.9,0.41,1.31c0.28,0.4,0.66,0.72,1.15,0.94c0.49,0.22,1.05,0.34,1.68,0.34c0.9,0,1.64-0.21,2.2-0.64   c0.57-0.43,0.85-0.99,0.85-1.7c0-0.42-0.1-0.78-0.3-1.08c-0.2-0.3-0.51-0.55-0.93-0.76c-0.42-0.21-0.97-0.39-1.64-0.54   c-0.68-0.15-1.14-0.31-1.4-0.48c-0.26-0.17-0.39-0.41-0.39-0.74c0-0.35,0.14-0.63,0.42-0.84c0.28-0.21,0.66-0.32,1.16-0.32   c0.48,0,0.88,0.13,1.19,0.4s0.47,0.59,0.47,0.96h1.36c0-0.72-0.28-1.32-0.84-1.78c-0.56-0.46-1.29-0.7-2.19-0.7   c-0.86,0-1.56,0.22-2.11,0.67c-0.55,0.45-0.82,1-0.82,1.65c0,0.39,0.1,0.73,0.29,1.01c0.19,0.28,0.49,0.53,0.89,0.73   c0.4,0.21,0.95,0.38,1.63,0.53c0.69,0.15,1.17,0.32,1.44,0.52c0.28,0.2,0.41,0.49,0.41,0.85   C380.02,62.93,379.86,63.21,379.55,63.42L379.55,63.42z M382.78,60.75c0,1.23,0.33,2.22,1,2.97c0.67,0.75,1.54,1.12,2.61,1.12   c0.71,0,1.34-0.17,1.89-0.51c0.55-0.34,0.97-0.82,1.27-1.43c0.3-0.61,0.44-1.3,0.44-2.08v-0.1c0-1.24-0.33-2.23-1-2.98   c-0.67-0.75-1.54-1.12-2.62-1.12c-0.7,0-1.32,0.17-1.86,0.51c-0.54,0.34-0.97,0.82-1.27,1.44c-0.31,0.62-0.46,1.32-0.46,2.09V60.75   L382.78,60.75z M384.76,58.53c0.41-0.53,0.95-0.8,1.62-0.8c0.68,0,1.23,0.27,1.64,0.81c0.41,0.54,0.62,1.24,0.62,2.11   c0,0.97-0.2,1.73-0.61,2.27c-0.4,0.54-0.95,0.81-1.64,0.81c-0.68,0-1.23-0.27-1.64-0.8c-0.41-0.53-0.61-1.24-0.61-2.12   C384.14,59.82,384.35,59.06,384.76,58.53L384.76,58.53z M393.17,53.44h-1.35v11.25h1.35V53.44L393.17,53.44z M400.26,64.69h1.29   v-7.92h-1.36v5.76c-0.34,0.77-1.03,1.16-2.07,1.16c-0.98,0-1.46-0.6-1.46-1.8v-5.12h-1.36v5.16c0.01,0.96,0.23,1.69,0.67,2.18   c0.44,0.49,1.08,0.74,1.93,0.74c1.02,0,1.8-0.31,2.32-0.93L400.26,64.69L400.26,64.69z M404.09,54.85v1.92h-1.44v1.05h1.44v4.91   c0,0.67,0.15,1.19,0.46,1.56c0.31,0.37,0.76,0.55,1.37,0.55c0.34,0,0.68-0.05,1.04-0.15V63.6c-0.27,0.06-0.49,0.09-0.64,0.09   c-0.32,0-0.54-0.08-0.67-0.24c-0.13-0.16-0.2-0.4-0.2-0.71v-4.92h1.48v-1.05h-1.48v-1.92H404.09L404.09,54.85z M409.98,56.76h-1.36   v7.92h1.36V56.76L409.98,56.76z M408.71,55.21c0.14,0.15,0.33,0.22,0.6,0.22c0.26,0,0.46-0.07,0.6-0.22s0.2-0.33,0.2-0.55   c0-0.22-0.07-0.41-0.2-0.56c-0.14-0.15-0.34-0.23-0.6-0.23c-0.26,0-0.46,0.08-0.6,0.23c-0.13,0.15-0.2,0.34-0.2,0.56   C408.51,54.88,408.58,55.07,408.71,55.21L408.71,55.21z M411.78,60.75c0,1.23,0.33,2.22,1,2.97c0.67,0.75,1.54,1.12,2.61,1.12   c0.71,0,1.34-0.17,1.89-0.51c0.55-0.34,0.97-0.82,1.27-1.43c0.3-0.61,0.44-1.3,0.44-2.08v-0.1c0-1.24-0.33-2.23-1-2.98   c-0.67-0.75-1.54-1.12-2.62-1.12c-0.7,0-1.32,0.17-1.86,0.51c-0.54,0.34-0.97,0.82-1.27,1.44c-0.31,0.62-0.46,1.32-0.46,2.09V60.75   L411.78,60.75z M413.76,58.53c0.41-0.53,0.95-0.8,1.62-0.8c0.68,0,1.23,0.27,1.64,0.81c0.41,0.54,0.62,1.24,0.62,2.11   c0,0.97-0.2,1.73-0.61,2.27c-0.4,0.54-0.95,0.81-1.64,0.81c-0.68,0-1.23-0.27-1.64-0.8c-0.41-0.53-0.61-1.24-0.61-2.12   C413.15,59.82,413.35,59.06,413.76,58.53L413.76,58.53z M420.7,56.76v7.92h1.36v-5.65c0.19-0.38,0.44-0.69,0.78-0.92   c0.33-0.23,0.72-0.35,1.16-0.35c0.54,0,0.94,0.14,1.2,0.41c0.26,0.27,0.39,0.7,0.39,1.27v5.24h1.35v-5.24   c-0.01-1.89-0.86-2.83-2.53-2.83c-0.98,0-1.77,0.38-2.37,1.14l-0.04-1H420.7L420.7,56.76z M433.12,63.42   c-0.31,0.21-0.72,0.31-1.23,0.31c-0.56,0-1.01-0.13-1.34-0.4c-0.34-0.27-0.52-0.63-0.55-1.08h-1.35c0,0.47,0.14,0.9,0.41,1.31   c0.28,0.4,0.66,0.72,1.15,0.94c0.49,0.22,1.05,0.34,1.68,0.34c0.9,0,1.64-0.21,2.2-0.64c0.57-0.43,0.85-0.99,0.85-1.7   c0-0.42-0.1-0.78-0.3-1.08c-0.2-0.3-0.51-0.55-0.93-0.76c-0.42-0.21-0.97-0.39-1.64-0.54c-0.68-0.15-1.14-0.31-1.4-0.48   c-0.26-0.17-0.39-0.41-0.39-0.74c0-0.35,0.14-0.63,0.42-0.84c0.28-0.21,0.66-0.32,1.16-0.32c0.48,0,0.88,0.13,1.19,0.4   s0.47,0.59,0.47,0.96h1.36c0-0.72-0.28-1.32-0.84-1.78c-0.56-0.46-1.29-0.7-2.19-0.7c-0.86,0-1.56,0.22-2.11,0.67   c-0.55,0.45-0.82,1-0.82,1.65c0,0.39,0.1,0.73,0.29,1.01c0.19,0.28,0.49,0.53,0.89,0.73c0.4,0.21,0.95,0.38,1.63,0.53   c0.69,0.15,1.17,0.32,1.44,0.52c0.28,0.2,0.41,0.49,0.41,0.85C433.59,62.93,433.43,63.21,433.12,63.42L433.12,63.42z M446.74,64.69   v-0.12c-0.19-0.43-0.28-1.01-0.28-1.74v-3.65c-0.02-0.8-0.29-1.43-0.81-1.89c-0.52-0.46-1.23-0.68-2.15-0.68   c-0.58,0-1.1,0.11-1.59,0.32c-0.48,0.21-0.86,0.51-1.14,0.88c-0.28,0.37-0.42,0.75-0.42,1.15h1.36c0-0.35,0.16-0.64,0.49-0.89   c0.33-0.24,0.73-0.37,1.22-0.37c0.55,0,0.97,0.14,1.25,0.42c0.28,0.28,0.42,0.66,0.42,1.13v0.62h-1.32c-1.14,0-2.02,0.23-2.65,0.68   c-0.63,0.46-0.94,1.1-0.94,1.92c0,0.68,0.25,1.24,0.75,1.68c0.5,0.44,1.14,0.66,1.92,0.66c0.87,0,1.63-0.33,2.26-0.98   c0.05,0.4,0.11,0.68,0.19,0.83H446.74L446.74,64.69z M441.97,63.3c-0.28-0.24-0.42-0.57-0.42-1c0-0.97,0.83-1.46,2.49-1.46h1.06   v1.63c-0.17,0.35-0.45,0.64-0.83,0.86c-0.38,0.22-0.78,0.33-1.21,0.33C442.62,63.66,442.26,63.54,441.97,63.3L441.97,63.3z    M450.15,62.99c-0.38-0.49-0.56-1.2-0.56-2.11v-0.26c0-0.94,0.19-1.65,0.57-2.15c0.38-0.5,0.91-0.74,1.6-0.74   c0.51,0,0.94,0.16,1.29,0.49c0.35,0.33,0.54,0.75,0.58,1.26h1.28c-0.04-0.85-0.35-1.54-0.94-2.07c-0.59-0.53-1.33-0.8-2.22-0.8   c-0.72,0-1.35,0.17-1.88,0.5c-0.53,0.33-0.94,0.8-1.22,1.4c-0.28,0.6-0.42,1.29-0.42,2.06v0.23c0,1.25,0.32,2.24,0.96,2.96   c0.64,0.72,1.5,1.08,2.57,1.08c0.54,0,1.05-0.12,1.53-0.37c0.48-0.24,0.87-0.57,1.15-0.98c0.29-0.41,0.44-0.84,0.47-1.3h-1.28   c-0.04,0.44-0.24,0.81-0.6,1.1c-0.36,0.29-0.78,0.44-1.27,0.44C451.06,63.73,450.52,63.48,450.15,62.99L450.15,62.99z    M460.26,56.72c-0.14-0.07-0.34-0.1-0.6-0.1c-0.82,0-1.44,0.35-1.89,1.06l-0.02-0.92h-1.32v7.92h1.35v-5.63   c0.32-0.76,0.92-1.14,1.81-1.14c0.24,0,0.46,0.02,0.67,0.05V56.72L460.26,56.72z M461,60.75c0,1.23,0.33,2.22,1,2.97   c0.67,0.75,1.54,1.12,2.61,1.12c0.71,0,1.34-0.17,1.89-0.51c0.55-0.34,0.97-0.82,1.27-1.43c0.3-0.61,0.44-1.3,0.44-2.08v-0.1   c0-1.24-0.33-2.23-1-2.98c-0.67-0.75-1.54-1.12-2.62-1.12c-0.7,0-1.32,0.17-1.86,0.51c-0.54,0.34-0.97,0.82-1.28,1.44   c-0.3,0.62-0.46,1.32-0.46,2.09V60.75L461,60.75z M462.98,58.53c0.41-0.53,0.95-0.8,1.62-0.8c0.68,0,1.23,0.27,1.64,0.81   c0.41,0.54,0.62,1.24,0.62,2.11c0,0.97-0.2,1.73-0.61,2.27c-0.41,0.54-0.95,0.81-1.64,0.81c-0.68,0-1.23-0.27-1.64-0.8   c-0.41-0.53-0.61-1.24-0.61-2.12C462.37,59.82,462.57,59.06,462.98,58.53L462.98,58.53z M474.07,63.42   c-0.31,0.21-0.72,0.31-1.23,0.31c-0.56,0-1-0.13-1.34-0.4c-0.34-0.27-0.52-0.63-0.55-1.08h-1.35c0,0.47,0.14,0.9,0.41,1.31   c0.28,0.4,0.66,0.72,1.15,0.94c0.49,0.22,1.05,0.34,1.68,0.34c0.9,0,1.64-0.21,2.21-0.64c0.57-0.43,0.85-0.99,0.85-1.7   c0-0.42-0.1-0.78-0.3-1.08c-0.2-0.3-0.51-0.55-0.93-0.76c-0.42-0.21-0.97-0.39-1.65-0.54c-0.68-0.15-1.14-0.31-1.4-0.48   c-0.26-0.17-0.39-0.41-0.39-0.74c0-0.35,0.14-0.63,0.42-0.84c0.28-0.21,0.66-0.32,1.16-0.32c0.48,0,0.88,0.13,1.19,0.4   c0.32,0.27,0.47,0.59,0.47,0.96h1.36c0-0.72-0.28-1.32-0.84-1.78c-0.56-0.46-1.29-0.7-2.19-0.7c-0.85,0-1.56,0.22-2.1,0.67   c-0.55,0.45-0.82,1-0.82,1.65c0,0.39,0.1,0.73,0.29,1.01c0.19,0.28,0.49,0.53,0.89,0.73c0.4,0.21,0.95,0.38,1.63,0.53   c0.69,0.15,1.17,0.32,1.44,0.52c0.28,0.2,0.41,0.49,0.41,0.85C474.53,62.93,474.38,63.21,474.07,63.42L474.07,63.42z M481.8,63.42   c-0.31,0.21-0.72,0.31-1.23,0.31c-0.56,0-1.01-0.13-1.34-0.4c-0.34-0.27-0.52-0.63-0.55-1.08h-1.35c0,0.47,0.14,0.9,0.41,1.31   c0.28,0.4,0.66,0.72,1.15,0.94c0.49,0.22,1.05,0.34,1.68,0.34c0.9,0,1.64-0.21,2.2-0.64c0.57-0.43,0.85-0.99,0.85-1.7   c0-0.42-0.1-0.78-0.3-1.08c-0.2-0.3-0.51-0.55-0.93-0.76c-0.42-0.21-0.97-0.39-1.64-0.54c-0.68-0.15-1.14-0.31-1.4-0.48   c-0.26-0.17-0.39-0.41-0.39-0.74c0-0.35,0.14-0.63,0.42-0.84c0.28-0.21,0.66-0.32,1.16-0.32c0.48,0,0.88,0.13,1.19,0.4   s0.47,0.59,0.47,0.96h1.36c0-0.72-0.28-1.32-0.84-1.78c-0.56-0.46-1.29-0.7-2.19-0.7c-0.86,0-1.56,0.22-2.11,0.67   c-0.55,0.45-0.82,1-0.82,1.65c0,0.39,0.1,0.73,0.29,1.01c0.19,0.28,0.49,0.53,0.89,0.73c0.4,0.21,0.95,0.38,1.63,0.53   s1.17,0.32,1.44,0.52c0.28,0.2,0.41,0.49,0.41,0.85C482.27,62.93,482.11,63.21,481.8,63.42L481.8,63.42z M495.34,58.61h-4.62v-3.43   h5.29v-1.15h-6.7v10.66h6.78v-1.15h-5.37v-3.78h4.62V58.61L495.34,58.61z M506.04,59.03c0-1.04-0.18-1.95-0.53-2.74   c-0.35-0.78-0.85-1.38-1.51-1.79c-0.65-0.41-1.4-0.62-2.26-0.62c-0.84,0-1.58,0.21-2.24,0.63c-0.65,0.42-1.16,1.02-1.51,1.81   c-0.36,0.79-0.53,1.69-0.53,2.72v0.77c0.01,1.01,0.19,1.89,0.55,2.65c0.36,0.76,0.86,1.35,1.51,1.77c0.65,0.41,1.39,0.62,2.23,0.62   c0.86,0,1.61-0.21,2.26-0.62c0.64-0.41,1.14-1,1.49-1.78c0.35-0.78,0.53-1.69,0.53-2.74V59.03L506.04,59.03z M504.64,59.8   c-0.01,1.24-0.27,2.18-0.77,2.85c-0.5,0.66-1.2,0.99-2.11,0.99c-0.9,0-1.61-0.35-2.13-1.05c-0.52-0.7-0.77-1.66-0.77-2.89v-0.78   c0.02-1.2,0.28-2.14,0.79-2.82c0.51-0.68,1.21-1.01,2.1-1.01c0.91,0,1.62,0.34,2.13,1.01c0.51,0.68,0.76,1.65,0.76,2.91V59.8   L504.64,59.8z M513.28,60.78c0.37,0.29,0.55,0.69,0.55,1.21c0,0.52-0.2,0.94-0.59,1.24c-0.4,0.3-0.96,0.45-1.71,0.45   c-0.8,0-1.43-0.19-1.91-0.56c-0.48-0.37-0.71-0.88-0.71-1.53h-1.41c0,0.62,0.17,1.17,0.52,1.66c0.34,0.49,0.83,0.87,1.47,1.15   c0.63,0.28,1.32,0.42,2.05,0.42c1.13,0,2.03-0.26,2.7-0.78c0.67-0.52,1.01-1.21,1.01-2.08c0-0.54-0.12-1.01-0.36-1.41   c-0.24-0.4-0.61-0.75-1.11-1.05c-0.5-0.3-1.19-0.58-2.08-0.82c-0.89-0.25-1.51-0.52-1.88-0.83c-0.37-0.3-0.55-0.67-0.55-1.1   c0-0.54,0.19-0.97,0.58-1.27c0.39-0.31,0.93-0.46,1.62-0.46c0.75,0,1.33,0.18,1.74,0.55c0.41,0.37,0.62,0.88,0.62,1.53h1.41   c0-0.59-0.16-1.14-0.47-1.63c-0.32-0.5-0.76-0.89-1.33-1.17c-0.57-0.28-1.23-0.42-1.96-0.42c-1.07,0-1.95,0.27-2.62,0.82   c-0.67,0.55-1.01,1.24-1.01,2.08c0,0.74,0.27,1.37,0.82,1.87c0.55,0.51,1.43,0.93,2.63,1.28C512.25,60.21,512.92,60.5,513.28,60.78   L513.28,60.78z M523.48,61.31c-0.14,0.88-0.41,1.5-0.83,1.85c-0.42,0.35-1.02,0.53-1.8,0.53c-0.87,0-1.55-0.34-2.03-1.03   s-0.72-1.61-0.72-2.76v-1.03c0-1.23,0.26-2.17,0.77-2.84c0.51-0.66,1.21-1,2.11-1c0.73,0,1.3,0.19,1.71,0.57   c0.41,0.38,0.67,1,0.79,1.85h1.41c-0.11-1.12-0.51-1.99-1.19-2.63c-0.68-0.63-1.59-0.95-2.73-0.95c-0.85,0-1.61,0.2-2.26,0.6   c-0.65,0.4-1.15,0.98-1.51,1.73c-0.35,0.75-0.53,1.62-0.53,2.61v1.03c0,1.51,0.38,2.72,1.14,3.63c0.76,0.9,1.77,1.35,3.03,1.35   c1.16,0,2.09-0.31,2.79-0.92c0.7-0.61,1.12-1.48,1.25-2.61H523.48L523.48,61.31z"/>
	<path class="st1" d="M394.31,7.41h-4.63v35.11h4.63V7.41L394.31,7.41z M402.77,7.41v35.11h4.63V28.85l-0.46-14.69l11.5,28.36H422   l11.53-28.43l-0.43,14.76v13.67h4.63V7.41h-6.01l-11.48,28.65L408.76,7.41H402.77L402.77,7.41z M458.8,28.78   c3.97,0,7.02-0.92,9.15-2.76c2.13-1.84,3.2-4.47,3.2-7.87c0-3.23-1.09-5.83-3.27-7.79c-2.18-1.96-5.19-2.94-9.03-2.94H445.9v35.11   h4.63V28.78H458.8L458.8,28.78z M450.53,11.2h8.58c2.3,0.05,4.11,0.7,5.43,1.96c1.32,1.26,1.98,2.93,1.98,5.02   c0,2.21-0.66,3.89-1.98,5.06c-1.32,1.17-3.22,1.75-5.69,1.75h-8.32V11.2L450.53,11.2z M496.47,42.52h4.75L487.79,7.41h-4.05   l-13.41,35.11h4.77l3.3-9.19h14.71L496.47,42.52L496.47,42.52z M485.76,13.13l5.98,16.42H479.8L485.76,13.13L485.76,13.13z    M526.85,31.38c-0.45,2.89-1.36,4.92-2.74,6.09c-1.38,1.17-3.35,1.75-5.92,1.75c-2.86,0-5.09-1.13-6.68-3.38   c-1.59-2.25-2.39-5.29-2.39-9.1v-3.4c0-4.04,0.84-7.15,2.52-9.34c1.68-2.19,4-3.28,6.96-3.28c2.41,0,4.29,0.63,5.63,1.89   c1.34,1.26,2.22,3.29,2.62,6.1h4.66c-0.37-3.68-1.68-6.56-3.93-8.65c-2.25-2.08-5.24-3.12-8.97-3.12c-2.81,0-5.29,0.66-7.43,1.99   c-2.14,1.33-3.79,3.23-4.96,5.7c-1.17,2.48-1.75,5.35-1.75,8.61v3.38c0,4.98,1.25,8.96,3.75,11.94c2.5,2.97,5.82,4.46,9.97,4.46   c3.83,0,6.89-1.01,9.2-3.03c2.31-2.02,3.68-4.88,4.11-8.6H526.85L526.85,31.38z M561.39,7.41h-27.16v3.79h11.26v31.33h4.61V11.2   h11.29V7.41L561.39,7.41z"/>
	<path class="st4" d="M287.91,23.23h-14.74V11.2h17.12V7.41h-21.75v35.11h4.63V27.02h14.74V23.23L287.91,23.23z M314.49,42.52h4.75   L305.81,7.41h-4.05l-13.41,35.11h4.77l3.3-9.19h14.71L314.49,42.52L314.49,42.52z M303.78,13.13l5.98,16.42h-11.94L303.78,13.13   L303.78,13.13z M328.94,7.41h-4.63v35.11h4.63V7.41L328.94,7.41z M357.9,42.52h4.97v-0.29l-8.25-14.9c2.11-0.8,3.75-2.02,4.93-3.64   c1.18-1.62,1.77-3.53,1.77-5.72c0-3.44-1.06-6.06-3.19-7.86c-2.13-1.8-5.17-2.7-9.13-2.7h-11.62v35.11h4.65v-14.2h8.25L357.9,42.52   L357.9,42.52z M342.03,11.2h7.09c2.44,0.02,4.31,0.6,5.61,1.76c1.29,1.16,1.94,2.83,1.94,5c0,2-0.68,3.59-2.04,4.78   c-1.36,1.19-3.19,1.79-5.49,1.79h-7.11V11.2L342.03,11.2z M380.35,25.79h-11.77v3.64h11.77V25.79L380.35,25.79z"/>
</g>
</svg>