<?xml version="1.0" encoding="UTF-8" standalone="no"?>
<!-- Created with Inkscape (http://www.inkscape.org/) -->

<svg
   xmlns:dc="http://purl.org/dc/elements/1.1/"
   xmlns:cc="http://creativecommons.org/ns#"
   xmlns:rdf="http://www.w3.org/1999/02/22-rdf-syntax-ns#"
   xmlns:svg="http://www.w3.org/2000/svg"
   xmlns="http://www.w3.org/2000/svg"
   xmlns:sodipodi="http://sodipodi.sourceforge.net/DTD/sodipodi-0.dtd"
   xmlns:inkscape="http://www.inkscape.org/namespaces/inkscape"
   id="svg3039"
   version="1.1"
   inkscape:version="0.48.4 r9939"
   width="338.62701"
   height="127.299"
   xml:space="preserve"
   sodipodi:docname="OAlogo.svg"><metadata
     id="metadata3045"><rdf:RDF><cc:Work
         rdf:about=""><dc:format>image/svg+xml</dc:format><dc:type
           rdf:resource="http://purl.org/dc/dcmitype/StillImage" /><dc:title></dc:title></cc:Work></rdf:RDF></metadata><defs
     id="defs3043"><clipPath
       clipPathUnits="userSpaceOnUse"
       id="clipPath3053"><path
         d="m 0,335.714 809.184,0 L 809.184,0 0,0 0,335.714 z"
         id="path3055"
         inkscape:connector-curvature="0" /></clipPath></defs><sodipodi:namedview
     pagecolor="#ffffff"
     bordercolor="#666666"
     borderopacity="1"
     objecttolerance="10"
     gridtolerance="10"
     guidetolerance="10"
     inkscape:pageopacity="0"
     inkscape:pageshadow="2"
     inkscape:window-width="2495"
     inkscape:window-height="1416"
     id="namedview3041"
     showgrid="false"
     inkscape:zoom="2.8284271"
     inkscape:cx="325.94329"
     inkscape:cy="205.81262"
     inkscape:window-x="1265"
     inkscape:window-y="36"
     inkscape:window-maximized="1"
     inkscape:current-layer="g3047"
     fit-margin-top="4"
     fit-margin-left="4"
     fit-margin-right="4"
     fit-margin-bottom="4" /><g
     id="g3047"
     inkscape:groupmode="layer"
     inkscape:label="OAlogo"
     transform="matrix(1.25,0,0,-1.25,1.839125,131.30763)"><g
       id="g3049"
       transform="matrix(0.356807,0,0,0.356807,-9.1641539,-5.013386)"><g
         id="g3051"
         clip-path="url(#clipPath3053)"><g
           id="g3057"
           transform="translate(291.2783,227.9692)"><path
             d="m 0,0 0,-9.769 28.637,0 0,9.769 c 0,23.645 19.238,42.88 42.878,42.88 23.639,0 42.876,-19.235 42.876,-42.88 l 0,-70.651 28.638,0 0,70.651 c 0,39.435 -32.08,71.519 -71.514,71.519 C 32.084,71.519 0,39.435 0,0"
             style="fill:#f46b18;fill-opacity:1;fill-rule:nonzero;stroke:none"
             id="path3059"
             inkscape:connector-curvature="0" /></g><g
           id="g3061"
           transform="translate(386.5356,116.082)"><path
             d="m 0,0 c 0,-13.047 -10.578,-23.623 -23.628,-23.623 -13.049,0 -23.628,10.576 -23.628,23.623 0,13.057 10.579,23.631 23.628,23.631 C -10.578,23.631 0,13.057 0,0"
             style="fill:#f46b18;fill-opacity:1;fill-rule:nonzero;stroke:none"
             id="path3063"
             inkscape:connector-curvature="0" /></g><g
           id="g3065"
           transform="translate(306.9409,116.3379)"><path
             d="m 0,0 c 0,30.709 24.986,55.69 55.686,55.69 30.712,0 55.689,-24.981 55.689,-55.69 0,-30.699 -24.977,-55.692 -55.689,-55.692 C 24.986,-55.692 0,-30.699 0,0 m -28.64,0 c 0,-46.496 37.833,-84.331 84.326,-84.331 46.507,0 84.336,37.835 84.336,84.331 0,46.505 -37.829,84.331 -84.336,84.331 C 9.193,84.331 -28.64,46.505 -28.64,0"
             style="fill:#f46b18;fill-opacity:1;fill-rule:nonzero;stroke:none"
             id="path3067"
             inkscape:connector-curvature="0" /></g><g
           id="g3069"
           transform="translate(58.1357,124.126)"><path
             d="m 0,0 c 8.78,0 13.804,8.267 13.804,19.509 0,10.31 -4.859,19.174 -13.804,19.174 -8.951,0 -13.976,-8.688 -13.976,-19.43 C -13.976,8.435 -8.774,0 -0.084,0 L 0,0 z m -0.597,-10.31 c -16.953,0 -27.01,12.869 -27.01,29.223 0,17.217 11.076,30.078 27.947,30.078 17.639,0 27.265,-13.202 27.265,-29.053 0,-18.919 -11.334,-30.248 -28.119,-30.248 l -0.083,0 z"
             style="fill:#231f20;fill-opacity:1;fill-rule:nonzero;stroke:none"
             id="path3071"
             inkscape:connector-curvature="0" /></g><g
           id="g3073"
           transform="translate(110.1538,145.3457)"><path
             d="m 0,0 c 1.101,-0.259 2.465,-0.342 4.34,-0.342 6.904,0 11.161,3.494 11.161,9.287 0,5.284 -3.574,8.434 -10.136,8.434 -2.639,0 -4.43,-0.168 -5.365,-0.422 L 0,0 z m -12.868,26.067 c 4.006,0.682 9.632,1.193 17.55,1.193 8.011,0 13.807,-1.526 17.633,-4.684 3.673,-2.811 6.057,-7.581 6.057,-13.209 0,-5.703 -1.793,-10.479 -5.198,-13.63 -4.431,-4.089 -11.076,-6.051 -18.747,-6.051 -1.701,0 -3.237,0.085 -4.427,0.341 l 0,-20.619 -12.868,0 0,56.659 z"
             style="fill:#231f20;fill-opacity:1;fill-rule:nonzero;stroke:none"
             id="path3075"
             inkscape:connector-curvature="0" /></g><g
           id="g3077"
           transform="translate(183.9766,139.0361)"><path
             d="m 0,0 -21.127,0 0,-13.63 23.602,0 0,-10.652 -36.551,0 0,57.429 35.354,0 0,-10.653 -22.405,0 0,-11.925 L 0,10.569 0,0 z"
             style="fill:#231f20;fill-opacity:1;fill-rule:nonzero;stroke:none"
             id="path3079"
             inkscape:connector-curvature="0" /></g><g
           id="g3081"
           transform="translate(201.7021,114.7539)"><path
             d="m 0,0 0,57.429 15.164,0 11.931,-21.042 c 3.411,-6.054 6.728,-13.208 9.371,-19.689 l 0.174,0 c -0.766,7.584 -1.021,15.335 -1.021,24.032 l 0,16.699 11.923,0 L 47.542,0 33.914,0 21.64,22.15 c -3.405,6.22 -7.242,13.555 -9.966,20.282 l -0.346,0 c 0.426,-7.67 0.6,-15.761 0.6,-25.137 L 11.928,0 0,0 z"
             style="fill:#231f20;fill-opacity:1;fill-rule:nonzero;stroke:none"
             id="path3083"
             inkscape:connector-curvature="0" /></g><g
           id="g3085"
           transform="translate(498.3228,139.207)"><path
             d="m 0,0 -3.57,12.189 c -0.944,3.403 -1.971,7.75 -2.819,11.073 l -0.254,0 C -7.406,19.855 -8.351,15.51 -9.203,12.189 L -12.692,0 0,0 z m -14.571,-9.707 -4,-14.746 -13.46,0 17.545,57.429 16.96,0 17.886,-57.429 -13.967,0 -4.434,14.746 -16.53,0 z"
             style="fill:#231f20;fill-opacity:1;fill-rule:nonzero;stroke:none"
             id="path3087"
             inkscape:connector-curvature="0" /></g><g
           id="g3089"
           transform="translate(567.6641,116.29)"><path
             d="m 0,0 c -2.3,-1.106 -7.751,-2.474 -14.651,-2.474 -19.85,0 -30.08,12.443 -30.08,28.883 0,19.604 13.974,30.424 31.354,30.424 6.736,0 11.844,-1.37 14.145,-2.561 L -1.956,44.051 c -2.56,1.102 -6.221,2.128 -10.903,2.128 -10.232,0 -18.242,-6.221 -18.242,-19.09 0,-11.496 6.817,-18.741 18.325,-18.741 4.004,0 8.26,0.768 10.903,1.876 L 0,0 z"
             style="fill:#231f20;fill-opacity:1;fill-rule:nonzero;stroke:none"
             id="path3091"
             inkscape:connector-curvature="0" /></g><g
           id="g3093"
           transform="translate(618.7646,116.29)"><path
             d="m 0,0 c -2.296,-1.106 -7.748,-2.474 -14.658,-2.474 -19.851,0 -30.077,12.443 -30.077,28.883 0,19.604 13.976,30.424 31.357,30.424 6.734,0 11.84,-1.37 14.144,-2.561 L -1.958,44.051 c -2.557,1.102 -6.227,2.128 -10.906,2.128 -10.224,0 -18.235,-6.221 -18.235,-19.09 0,-11.496 6.819,-18.741 18.314,-18.741 4.007,0 8.27,0.768 10.911,1.876 L 0,0 z"
             style="fill:#231f20;fill-opacity:1;fill-rule:nonzero;stroke:none"
             id="path3095"
             inkscape:connector-curvature="0" /></g><g
           id="g3097"
           transform="translate(667.9258,139.0361)"><path
             d="m 0,0 -21.133,0 0,-13.63 23.605,0 0,-10.652 -36.557,0 0,57.429 35.37,0 0,-10.653 -22.418,0 0,-11.925 L 0,10.569 0,0 z"
             style="fill:#231f20;fill-opacity:1;fill-rule:nonzero;stroke:none"
             id="path3099"
             inkscape:connector-curvature="0" /></g><g
           id="g3101"
           transform="translate(686.0801,128.0488)"><path
             d="m 0,0 c 3.406,-1.79 8.855,-3.583 14.395,-3.583 5.959,0 9.119,2.471 9.119,6.304 0,3.493 -2.727,5.628 -9.634,8.014 -9.535,3.402 -15.842,8.689 -15.842,17.123 0,9.8 8.267,17.216 21.729,17.216 6.561,0 11.242,-1.281 14.65,-2.897 L 31.52,31.781 c -2.213,1.106 -6.387,2.727 -11.924,2.727 -5.63,0 -8.356,-2.642 -8.356,-5.541 0,-3.668 3.155,-5.283 10.652,-8.178 10.139,-3.751 14.829,-9.029 14.829,-17.208 0,-9.636 -7.33,-17.813 -23.092,-17.813 -6.563,0 -13.037,1.792 -16.274,3.577 L 0,0 z"
             style="fill:#231f20;fill-opacity:1;fill-rule:nonzero;stroke:none"
             id="path3103"
             inkscape:connector-curvature="0" /></g><g
           id="g3105"
           transform="translate(735.1143,128.0488)"><path
             d="m 0,0 c 3.407,-1.79 8.851,-3.583 14.398,-3.583 5.966,0 9.118,2.471 9.118,6.304 0,3.493 -2.726,5.628 -9.64,8.014 -9.536,3.402 -15.836,8.689 -15.836,17.123 0,9.8 8.262,17.216 21.728,17.216 6.561,0 11.242,-1.281 14.647,-2.897 L 31.526,31.781 c -2.219,1.106 -6.393,2.727 -11.935,2.727 -5.624,0 -8.351,-2.642 -8.351,-5.541 0,-3.668 3.158,-5.283 10.648,-8.178 10.138,-3.751 14.828,-9.029 14.828,-17.208 0,-9.636 -7.324,-17.813 -23.09,-17.813 -6.559,0 -13.035,1.792 -16.274,3.577 L 0,0 z"
             style="fill:#231f20;fill-opacity:1;fill-rule:nonzero;stroke:none"
             id="path3107"
             inkscape:connector-curvature="0" /></g></g></g></g></svg>