<?xml version="1.0" encoding="UTF-8" standalone="no"?>
<!-- Created with Inkscape (http://www.inkscape.org/) -->

<svg
   xmlns:dc="http://purl.org/dc/elements/1.1/"
   xmlns:cc="http://creativecommons.org/ns#"
   xmlns:rdf="http://www.w3.org/1999/02/22-rdf-syntax-ns#"
   xmlns:svg="http://www.w3.org/2000/svg"
   xmlns="http://www.w3.org/2000/svg"
   xmlns:sodipodi="http://sodipodi.sourceforge.net/DTD/sodipodi-0.dtd"
   xmlns:inkscape="http://www.inkscape.org/namespaces/inkscape"
   version="1.1"
   width="722.94733"
   height="179.72804"
   id="svg2"
   inkscape:version="0.48.4 r9939"
   sodipodi:docname="openphacts-explorer.svg">
  <sodipodi:namedview
     pagecolor="#ffffff"
     bordercolor="#666666"
     borderopacity="1"
     objecttolerance="10"
     gridtolerance="10"
     guidetolerance="10"
     inkscape:pageopacity="0"
     inkscape:pageshadow="2"
     inkscape:window-width="1855"
     inkscape:window-height="1056"
     id="namedview13"
     showgrid="false"
     inkscape:zoom="1.2683131"
     inkscape:cx="433.96985"
     inkscape:cy="-21.871507"
     inkscape:window-x="65"
     inkscape:window-y="24"
     inkscape:window-maximized="1"
     inkscape:current-layer="svg2"
     fit-margin-top="35"
     fit-margin-left="10"
     fit-margin-right="35"
     fit-margin-bottom="10" />
  <defs
     id="defs4" />
  <metadata
     id="metadata7">
    <rdf:RDF>
      <cc:Work
         rdf:about="">
        <dc:format>image/svg+xml</dc:format>
        <dc:type
           rdf:resource="http://purl.org/dc/dcmitype/StillImage" />
        <dc:title />
      </cc:Work>
    </rdf:RDF>
  </metadata>
  <text
     xml:space="preserve"
     style="font-size:67.00565338px;font-style:normal;font-weight:bold;line-height:125%;letter-spacing:2.87000012px;word-spacing:-15.89000034px;fill:#4c4c4c;fill-opacity:1;stroke:none;font-family:Sans;-inkscape-font-specification:Sans Bold"
     x="191.96123"
     y="83.104027"
     id="text3015-2"
     sodipodi:linespacing="125%"
     transform="scale(0.9535219,1.0487436)"
     inkscape:transform-center-x="101.7099"
     inkscape:transform-center-y="136.40165"><tspan
       sodipodi:role="line"
       id="tspan3017-3"
       x="191.96123"
       y="83.104027">Open PHACTS</tspan></text>
  <g
     transform="matrix(0.45564315,0,0,0.45564315,-12.200479,-136.27403)"
     id="layer1-9">
    <g
       id="g3106">
      <path
         d="m 53.25433,642.90301 c -2.49202,-0.10491 -4.53094,-0.29108 -4.53094,-0.4137 0,-0.26282 4.58476,-6.82498 6.69699,-9.58539 0.80794,-1.05587 1.81356,-2.49617 2.23472,-3.20066 0.42116,-0.7045 1.06406,-1.61534 1.42866,-2.0241 0.65946,-0.73931 3.37729,-4.51858 6.35828,-8.84149 0.85923,-1.24601 2.02901,-2.89283 2.59953,-3.65961 0.57051,-0.76677 1.91738,-2.64886 2.99304,-4.18241 1.07567,-1.53355 2.42164,-3.41563 2.99105,-4.18241 0.56941,-0.76677 1.38296,-1.88231 1.80788,-2.47897 0.42492,-0.59666 1.71363,-2.37961 2.86379,-3.96212 3.19494,-4.39592 4.22855,-5.86574 6.25472,-8.89441 1.02594,-1.53355 2.54777,-3.68635 3.38186,-4.784 0.83408,-1.09765 1.90861,-2.55006 2.38785,-3.22758 0.47923,-0.67752 1.73396,-2.39862 2.78827,-3.82467 3.5284,-4.77246 5.04766,-6.92901 5.88678,-8.35612 0.45816,-0.77921 1.24767,-1.88728 1.75446,-2.46236 0.50679,-0.57508 1.40514,-1.75138 1.99633,-2.614 0.5912,-0.86263 1.52694,-2.21517 2.07942,-3.00565 1.06796,-1.52802 10.71869,-14.9977 12.49595,-17.4408 0.58069,-0.79824 1.89343,-2.60191 2.91722,-4.00815 3.7803,-5.19253 6.51657,-9.10698 6.99149,-10.00189 0.26845,-0.50586 0.89581,-1.41052 1.39413,-2.01036 1.02559,-1.23453 7.06961,-9.60786 10.1422,-14.05091 1.47384,-2.13121 3.97773,-5.60134 7.47812,-10.36386 1.43415,-1.95126 3.82797,-5.29871 5.3196,-7.43879 1.49163,-2.14008 3.49626,-5.01406 4.45473,-6.38663 0.95846,-1.37257 2.48766,-3.46341 3.3982,-4.6463 0.91055,-1.1829 1.65554,-2.29517 1.65554,-2.47171 0,-0.17655 0.28826,-0.58186 0.64058,-0.90071 0.35233,-0.31885 1.69893,-2.10761 2.99245,-3.97503 1.29353,-1.86742 3.04614,-4.33635 3.89469,-5.48651 0.84855,-1.15017 1.81534,-2.53569 2.14843,-3.07894 0.33308,-0.54325 2.30924,-3.28795 4.39145,-6.09935 2.08221,-2.81139 3.86966,-5.34688 3.9721,-5.63442 0.10245,-0.28754 0.53596,-0.9149 0.96336,-1.39413 0.4274,-0.47924 1.46308,-1.86505 2.30151,-3.07958 1.9726,-2.85744 2.93937,-4.21115 9.01791,-12.62721 2.77956,-3.84845 5.21058,-7.25989 5.40228,-7.581 0.19169,-0.3211 0.93668,-1.31204 1.65553,-2.20209 0.71886,-0.89004 1.30701,-1.73263 1.30701,-1.87242 0,-0.13978 0.43131,-0.76722 0.95847,-1.3943 0.52715,-0.62708 1.89951,-2.49748 3.04967,-4.15646 1.15016,-1.65898 2.52252,-3.58 3.04968,-4.26894 0.52715,-0.68894 0.95846,-1.40956 0.95846,-1.60138 0,-0.19182 0.58816,-1.01772 1.30701,-1.83532 0.71885,-0.8176 2.01278,-2.52281 2.8754,-3.78934 0.86263,-1.26653 2.66629,-3.77674 4.00815,-5.57824 1.34185,-1.80149 3.30236,-4.56126 4.35668,-6.13282 4.00562,-5.97075 4.18132,-6.0254 4.18578,-1.30191 0.0154,16.2908 3.00024,36.41069 7.71718,52.01873 1.25845,4.16409 3.69157,11.56982 4.12235,12.54723 0.16898,0.38339 0.49768,1.32443 0.73047,2.0912 0.23278,0.76678 0.81428,2.25478 1.29221,3.30667 1.38316,3.04424 1.50966,3.76842 0.90602,5.18645 -0.52,1.22157 -3.33699,8.48883 -4.67882,12.0704 -0.88447,2.36082 -1.58649,4.16302 -4.4803,11.50163 -1.36061,3.45049 -2.47426,6.48963 -2.47476,6.75365 -3.5e-4,0.26401 -0.4895,1.51874 -1.08666,2.78827 -0.59715,1.26953 -1.20753,2.62192 -1.35639,3.00531 -2.83577,7.30342 -3.57507,9.15924 -3.85109,9.6671 -0.18091,0.33286 -0.32893,0.76365 -0.32893,0.9573 0,0.28159 -3.30974,9.02579 -4.55355,12.03033 -0.15872,0.38338 -0.61066,1.52048 -1.00432,2.52687 -0.39366,1.00639 -1.03783,2.65321 -1.43148,3.65961 -0.39366,1.00639 -0.86017,2.14348 -1.03668,2.52687 -0.17651,0.38339 -0.65874,1.63811 -1.07162,2.78827 -0.41288,1.15017 -1.02657,2.71857 -1.36374,3.48535 -0.33718,0.76677 -1.19691,2.96254 -1.91052,4.87948 -1.82704,4.90789 -3.23406,8.46909 -4.02636,10.19082 -0.37395,0.81261 -0.6799,1.69652 -0.6799,1.96423 0,0.26772 -0.2343,0.936 -0.52066,1.48507 -0.28636,0.54907 -0.52162,1.24141 -0.5228,1.53854 -0.001,0.29713 -0.14872,0.68923 -0.32786,0.87134 -0.31867,0.32394 -0.93348,1.8707 -3.36962,8.47733 -0.66252,1.79671 -1.43524,3.59606 -1.71716,3.99856 -0.28192,0.4025 -0.51791,0.97138 -0.52441,1.2642 -0.007,0.29281 -0.31486,1.15974 -0.68524,1.92652 -0.37038,0.76677 -0.67874,1.51172 -0.68525,1.65545 -0.007,0.14371 -1.12112,3.12368 -2.47694,6.62215 -3.18884,8.22831 -3.46998,8.94641 -3.99134,10.19471 -0.24018,0.57508 -0.54889,1.43771 -0.68602,1.91694 -0.13713,0.47923 -0.44247,1.18502 -0.67855,1.5684 -0.23607,0.38339 -0.52019,1.01075 -0.63137,1.39414 -0.11119,0.38339 -0.50811,1.48127 -0.88205,2.43974 -0.62464,1.60106 -1.58992,4.09906 -7.20542,18.64658 -1.07295,2.77956 -2.18194,5.54797 -2.46443,6.15202 -0.28249,0.60405 -0.51362,1.31768 -0.51362,1.58583 0,0.26816 -0.13769,0.63656 -0.30598,0.81866 -0.16829,0.18211 -0.62133,1.19373 -1.00675,2.24805 l -0.70077,1.91694 -58.33119,0.0165 c -32.08217,0.009 -60.37013,-0.0693 -62.86215,-0.17427 z"
         id="path3104"
         style="fill:#ff9500;fill-opacity:1"
         inkscape:connector-curvature="0" />
      <path
         d="m 207.58672,642.0152 c 0.0891,-0.57509 0.58342,-2.53559 1.0986,-4.35668 0.51518,-1.82109 1.30728,-4.72264 1.76022,-6.44788 0.45295,-1.72525 1.46998,-5.48942 2.26007,-8.36483 0.7901,-2.8754 1.6533,-6.09063 1.91824,-7.14495 0.26494,-1.05431 0.79916,-3.09324 1.18715,-4.53094 0.38799,-1.43771 1.0863,-4.02557 1.55179,-5.75082 0.4655,-1.72524 1.19431,-4.39153 1.61959,-5.92508 0.42528,-1.53355 1.05588,-3.88615 1.40133,-5.22801 0.34546,-1.34186 1.1232,-4.2434 1.72832,-6.44788 0.60512,-2.20448 1.3118,-4.79235 1.57041,-5.75082 1.15925,-4.29654 1.96192,-7.2865 3.08765,-11.50163 1.16126,-4.34815 2.41667,-8.94076 3.04875,-11.15309 0.1643,-0.57508 0.55909,-2.06507 0.87731,-3.31108 0.31821,-1.24601 1.27963,-4.77492 2.13648,-7.84202 0.85684,-3.0671 1.86376,-6.75285 2.23758,-8.19055 0.37383,-1.4377 0.9933,-3.79031 1.3766,-5.22801 0.38331,-1.43771 0.83674,-3.26012 1.00763,-4.04981 0.17089,-0.78969 0.61342,-2.35809 0.98341,-3.48534 0.36998,-1.12725 0.76698,-2.59849 0.88222,-3.26941 0.11524,-0.67093 0.527,-2.31776 0.91503,-3.65961 1.29136,-4.4657 2.5791,-9.14061 4.89633,-17.77525 2.9745,-11.0838 2.63263,-10.53179 4.39788,-7.10126 0.72743,1.41368 1.53232,3.04084 1.78864,3.61592 0.25631,0.57508 0.90502,1.75138 1.44157,2.61401 1.85973,2.98994 6.13237,10.13624 6.62336,11.07805 0.27135,0.52051 1.36924,2.26123 2.43974,3.86827 1.0705,1.60704 2.34509,3.60117 2.83241,4.43139 0.48732,0.83022 1.21271,1.86797 1.61198,2.30611 0.39927,0.43815 0.92784,1.18873 1.17461,1.66797 0.24676,0.47923 0.86384,1.42028 1.37129,2.0912 0.50744,0.67093 2.15758,2.8667 3.66698,4.87948 3.80167,5.06956 10.56961,13.16016 14.11487,16.87334 3.57461,3.74392 11.03758,11.06433 12.26044,12.02623 0.78226,0.61532 0.92765,1.11006 1.30941,4.45575 0.2362,2.06997 0.64588,5.33198 0.91039,7.24892 0.26451,1.91694 0.72816,5.36743 1.03033,7.66775 0.30217,2.30033 0.71053,5.28029 0.90747,6.62215 0.19694,1.34186 0.57612,4.2434 0.84262,6.44788 0.2665,2.20448 0.87902,6.98811 1.36116,10.6303 0.48214,3.64218 1.42429,10.93526 2.09366,16.20684 1.57579,12.40985 1.88464,14.79125 2.46278,18.98912 0.26354,1.91365 0.4357,3.52283 0.38257,3.57596 -0.0531,0.0531 -23.18929,0.13424 -51.41369,0.18025 l -51.3171,0.0837 0.16192,-1.0456 z"
         id="path3102"
         style="fill:#fb6200;fill-opacity:1"
         inkscape:connector-curvature="0" />
      <path
         d="m 332.96405,642.45086 c -0.28497,-0.69277 -3.47146,-12.22993 -5.22227,-18.90798 -0.75066,-2.86321 -3.57869,-13.07629 -4.72899,-17.07817 -0.4408,-1.53355 -0.90901,-3.33722 -1.04045,-4.00815 -0.13145,-0.67093 -0.83413,-3.25879 -1.56151,-5.75081 -0.72738,-2.49202 -1.5162,-5.31515 -1.75295,-6.27362 -0.23674,-0.95847 -1.03819,-3.88701 -1.781,-6.50787 -2.04128,-7.20228 -2.18054,-7.12257 3.2444,-1.85695 6.68771,6.49132 16.61427,14.69149 23.62706,19.51792 1.11412,0.76677 3.53524,2.46239 5.38026,3.76804 3.28241,2.32283 12.96776,8.44598 16.64306,10.52186 1.01817,0.57508 2.87277,1.62409 4.12134,2.33113 1.24857,0.70704 3.28959,1.81575 4.5356,2.46381 1.24601,0.64805 3.36335,1.81408 4.70521,2.59118 2.92523,1.69406 9.69267,4.98684 10.24914,4.98684 0.21787,0 0.98088,0.38376 1.69562,0.8528 0.71473,0.46904 2.55426,1.3495 4.08781,1.95659 1.53355,0.60709 2.95861,1.24065 3.16679,1.40791 0.7943,0.6382 15.2368,6.24225 20.97579,8.13912 3.3031,1.09176 6.00563,2.13026 6.00563,2.30779 0,0.19637 -18.01904,0.32277 -46.01399,0.32277 l -46.01398,0 -0.32257,-0.78421 z"
         id="path3098"
         style="fill:#f14400;fill-opacity:1"
         inkscape:connector-curvature="0" />
    </g>
  </g>
  <text
     xml:space="preserve"
     style="font-size:67.00565338px;font-style:normal;font-weight:bold;line-height:125%;letter-spacing:2.87000012px;word-spacing:-15.89000034px;fill:#917c6f;fill-opacity:1;stroke:none;font-family:Sans;-inkscape-font-specification:Sans Bold"
     x="195.3495"
     y="147.9017"
     id="text3015"
     sodipodi:linespacing="125%"
     transform="scale(0.9535219,1.0487436)"><tspan
       sodipodi:role="line"
       id="tspan3017"
       x="195.3495"
       y="147.9017">Explorer</tspan></text>
</svg>
