<?xml version="1.0" encoding="UTF-8" standalone="no"?>
<!-- Created with Inkscape (http://www.inkscape.org/) -->

<svg
   xmlns:dc="http://purl.org/dc/elements/1.1/"
   xmlns:cc="http://creativecommons.org/ns#"
   xmlns:rdf="http://www.w3.org/1999/02/22-rdf-syntax-ns#"
   xmlns:svg="http://www.w3.org/2000/svg"
   xmlns="http://www.w3.org/2000/svg"
   version="1.1"
   width="651.18048"
   height="116.18698"
   id="svg2">
  <defs
     id="defs4" />
  <metadata
     id="metadata7">
    <rdf:RDF>
      <cc:Work
         rdf:about="">
        <dc:format>image/svg+xml</dc:format>
        <dc:type
           rdf:resource="http://purl.org/dc/dcmitype/StillImage" />
        <dc:title></dc:title>
      </cc:Work>
    </rdf:RDF>
  </metadata>
  <g
     transform="translate(-69.7044,-370.5693)"
     id="layer1">
    <g
       id="g4573">
      <path
         d="m 277.07703,470.32003 c -7.9e-4,-0.17517 -10e-4,-53.29331 -6.3e-4,-53.4568 6.3e-4,-0.15367 1.10124,-0.19734 4.97389,-0.19734 l 4.97299,0 0.0175,0.90777 c 0.01,0.49928 0.004,1.07694 -0.014,1.28372 l -0.0315,0.37594 0.50827,-0.37594 c 0.27955,-0.20678 0.76539,-0.57008 1.07966,-0.80735 0.31426,-0.23728 0.67795,-0.4743 0.80819,-0.5267 0.13025,-0.0525 0.59202,-0.2582 1.02617,-0.45729 0.43416,-0.19911 0.96698,-0.414 1.18405,-0.47757 0.21708,-0.0636 0.60781,-0.20565 0.8683,-0.31573 0.54329,-0.22962 2.32926,-0.55408 3.04983,-0.55408 0.26809,0 0.66839,-0.0824 0.88953,-0.18321 0.3025,-0.13781 0.66604,-0.1391 1.46775,-0.005 0.58612,0.0979 1.63401,0.25647 2.32866,0.35235 1.47734,0.20393 1.90853,0.32821 3.71001,1.06942 3.28357,1.35101 6.34934,4.30559 7.84963,7.56499 0.20908,0.45419 0.44111,0.86351 0.51566,0.90959 0.0746,0.0461 0.18492,0.31383 0.2453,0.59503 0.0603,0.2812 0.18503,0.65336 0.27701,0.82703 0.0919,0.17366 0.18336,0.45782 0.20305,0.63148 0.0197,0.17366 0.21946,1.16826 0.44391,2.21022 0.22445,1.04197 0.40884,2.26326 0.40976,2.71399 9.5e-4,0.45073 0.055,0.85263 0.12005,0.89311 0.34444,0.21409 -0.0522,4.32855 -0.66674,6.91659 -0.94284,3.97044 -2.36455,6.58877 -5.20248,9.58132 -0.70294,0.74122 -3.12472,2.7076 -3.33468,2.7076 -0.0426,0 -0.37795,0.19239 -0.74526,0.42754 -1.11558,0.71421 -4.16326,1.70846 -5.72906,1.86899 -0.51585,0.0528 -1.09692,0.17322 -1.29125,0.26741 -0.25499,0.12355 -0.65054,0.1218 -1.42087,-0.006 -0.58712,-0.0977 -1.60027,-0.25489 -2.25143,-0.34941 -1.00417,-0.14575 -2.99206,-0.7302 -3.9864,-1.172 -0.2612,-0.11606 -0.27629,0.33497 -0.27629,8.26139 l 0,8.38414 -5.74944,0 c -3.16218,0 -5.86181,0.0431 -5.99916,0.0958 -0.13735,0.0527 -0.24983,0.0704 -0.24997,0.0395 z m 19.39893,-25.46952 c 2.23761,-0.82033 4.07368,-3.01014 4.94546,-5.8982 0.62744,-2.07861 0.52512,-6.98484 -0.17435,-8.36064 -0.0754,-0.14839 -0.30425,-0.65294 -0.50848,-1.12124 -0.20423,-0.4683 -0.60305,-1.07004 -0.8863,-1.33719 -0.28323,-0.26715 -0.51496,-0.57276 -0.51496,-0.67912 0,-0.33982 -1.72446,-1.44228 -2.81423,-1.79914 -2.02786,-0.66406 -4.58836,-0.35745 -6.5792,0.78784 l -0.78936,0.45411 -0.0409,8.25027 c -0.0442,8.91611 -0.052,8.82644 0.78658,9.06824 0.19769,0.057 0.67252,0.24562 1.05519,0.41913 0.38266,0.17351 0.98652,0.37755 1.34191,0.45341 0.92784,0.19806 3.36907,0.0593 4.17864,-0.23747 z m 311.40937,10.34661 c -0.0791,-0.0742 -0.8541,-0.17404 -1.7224,-0.22176 -1.40793,-0.0773 -2.39848,-0.254 -5.44661,-0.97109 -0.9917,-0.23331 -4.37009,-1.6818 -5.44716,-2.33548 -1.65499,-1.00441 -3.40209,-2.40027 -4.73563,-3.78353 -1.66802,-1.73021 -2.6049,-2.84088 -2.6049,-3.08808 0,-0.0821 -0.10231,-0.23403 -0.22729,-0.33778 -0.29593,-0.24562 -2.01847,-3.71819 -2.54901,-5.13877 -0.227,-0.60781 -0.51762,-1.53136 -0.64581,-2.05235 -0.12819,-0.52098 -0.33817,-1.00625 -0.4666,-1.07838 -0.16313,-0.0917 -0.18535,-0.18915 -0.0737,-0.32366 0.10869,-0.13094 0.0857,-0.64422 -0.072,-1.60544 -0.7562,-4.61051 -0.2606,-10.65143 1.20385,-14.67426 1.15858,-3.18261 1.88856,-4.5871 3.50101,-6.73603 0.49955,-0.66578 0.90828,-1.24951 0.90828,-1.29718 0,-0.14244 2.70099,-2.69705 3.55214,-3.35964 1.4501,-1.12884 4.33873,-2.89462 4.73534,-2.89462 0.12042,0 0.25807,-0.0632 0.30578,-0.14039 0.0477,-0.0772 0.27288,-0.1871 0.50036,-0.24419 0.22748,-0.0571 0.70768,-0.24055 1.06714,-0.40766 1.0813,-0.50276 4.6579,-1.38114 6.42055,-1.57683 0.90914,-0.10094 1.9673,-0.2308 2.35144,-0.28862 1.06485,-0.16023 5.55085,0.0936 7.58987,0.4294 2.64622,0.43582 5.01379,1.19676 7.26215,2.33403 2.08098,1.0526 4.35398,2.67229 4.32328,3.08064 -0.0169,0.22453 -0.97532,1.7351 -3.96668,6.25178 -1.26726,1.91344 -1.39763,1.99096 -2.17214,1.29145 -1.07497,-0.97089 -4.93422,-2.33413 -7.6296,-2.69509 -1.63161,-0.21849 -4.70556,-0.0903 -6.18426,0.25787 -1.30311,0.30685 -2.89733,0.91483 -3.71001,1.41488 -0.34732,0.21371 -0.82836,0.46889 -1.06898,0.56705 -0.2406,0.0982 -0.50953,0.31309 -0.59758,0.47762 -0.0881,0.16452 -0.2568,0.29914 -0.37501,0.29914 -0.34863,0 -2.39392,2.14817 -3.13093,3.28841 -1.131,1.74981 -1.84413,3.28703 -1.85053,3.98895 -0.001,0.13861 -0.11668,0.48132 -0.25651,0.76158 -0.1481,0.29687 -0.21757,0.69277 -0.16644,0.94847 0.0494,0.24665 0.005,0.52165 -0.10094,0.62781 -0.31912,0.31934 -0.24153,5.69416 0.10044,6.96142 0.15231,0.56438 0.34863,1.30749 0.43623,1.65134 0.17573,0.68976 1.18032,2.8369 1.75124,3.74296 0.56465,0.8961 2.16629,2.618 3.12773,3.36254 1.61631,1.2517 4.17141,2.32147 6.15455,2.57681 1.54049,0.19834 4.58798,0.10506 6.00164,-0.18359 2.59897,-0.5308 4.8969,-1.37735 6.9632,-2.56524 0.55516,-0.31916 1.30848,-0.75182 1.67405,-0.96147 l 0.66467,-0.38118 0.23993,0.52307 c 0.24165,0.52686 0.37831,0.75924 0.95669,1.62684 0.17366,0.2605 0.44647,0.72259 0.60624,1.02685 0.15978,0.30427 0.46171,0.81963 0.67095,1.14524 0.20926,0.32561 0.54663,0.85843 0.74972,1.18405 0.20309,0.3256 0.67108,1.06828 1.03997,1.65039 0.36892,0.58211 0.62443,1.13332 0.56782,1.22491 -0.17528,0.28361 -2.22682,1.86967 -3.03006,2.34258 -0.64805,0.38155 -1.63755,0.89319 -4.20904,2.17644 -0.24581,0.12267 -0.59007,0.22304 -0.76499,0.22304 -0.17495,0 -0.50664,0.0978 -0.73711,0.21742 -1.2385,0.64261 -5.73095,1.42879 -9.18098,1.60668 -1.08537,0.056 -2.01532,0.12737 -2.06654,0.15869 -0.0512,0.0313 -0.15779,-0.004 -0.23681,-0.0781 z m -366.83661,-0.0964 c -0.0335,-0.0335 -0.51913,-0.0711 -1.07927,-0.0837 -0.56014,-0.0126 -1.19604,-0.0785 -1.41312,-0.14627 -0.21707,-0.0678 -0.99854,-0.24675 -1.7366,-0.39753 -2.17514,-0.4444 -4.4013,-1.27748 -6.67749,-2.49889 -2.81961,-1.51299 -5.64416,-4.12937 -7.66198,-7.09727 -1.77193,-2.60623 -2.70886,-4.64937 -3.59773,-7.84549 -0.20526,-0.73804 -0.42064,-1.44848 -0.47862,-1.57872 -0.058,-0.13024 -0.0926,-0.29482 -0.0768,-0.36571 0.0157,-0.0708 -0.0793,-0.74581 -0.21124,-1.4998 -0.13189,-0.75398 -0.24003,-1.69649 -0.2403,-2.09447 -2.9e-4,-0.39796 -0.047,-0.7701 -0.10394,-0.82697 -0.15054,-0.15054 -0.0886,-3.88458 0.0936,-5.62967 0.22251,-2.13321 0.78652,-5.0195 1.13397,-5.80308 0.16322,-0.36808 0.29676,-0.73078 0.29676,-0.806 0,-0.0752 0.32192,-0.87284 0.71539,-1.77249 0.79096,-1.80854 1.79489,-3.51725 2.91781,-4.96616 0.40569,-0.52346 0.76655,-1.0232 0.80189,-1.11051 0.0563,-0.13911 0.78094,-0.82207 2.82705,-2.66453 2.48033,-2.23344 7.31115,-4.30225 11.44578,-4.90166 0.95513,-0.13848 2.10037,-0.30608 2.54499,-0.37246 1.07719,-0.16083 5.11622,0.0615 6.91044,0.38037 0.79078,0.14055 1.6154,0.276 1.83247,0.30101 0.21707,0.025 0.59467,0.12517 0.83911,0.22259 0.24443,0.0974 0.6032,0.17713 0.79725,0.17713 0.19405,0 0.42032,0.0568 0.50281,0.12632 0.0824,0.0695 0.57624,0.28863 1.09722,0.48701 0.52097,0.19838 1.19588,0.4886 1.49979,0.64493 0.3039,0.15633 0.72879,0.3379 0.94418,0.40348 0.2154,0.0656 0.57061,0.24024 0.78936,0.3881 0.21875,0.14787 0.71712,0.47534 1.10749,0.7277 1.37156,0.88672 2.6152,1.8839 3.597,2.88419 1.24162,1.26499 2.71858,2.94207 2.71858,3.08691 0,0.0602 0.29242,0.54015 0.6498,1.06642 0.35739,0.52629 0.91989,1.49922 1.25001,2.1621 0.71886,1.44348 2.1446,5.62412 2.29541,6.73075 0.0592,0.43415 0.14959,0.86041 0.20095,0.94723 0.14642,0.24761 0.17766,1.00062 0.20632,4.97299 0.0214,2.96266 -0.0295,4.01214 -0.25215,5.2098 -0.15341,0.82489 -0.29829,1.6774 -0.32197,1.89448 -0.0237,0.21708 -0.1228,0.59467 -0.22017,0.8391 -0.0974,0.24444 -0.17713,0.61838 -0.17713,0.83098 0,0.2126 -0.0702,0.50991 -0.15597,0.66068 -0.0858,0.15077 -0.44273,1.0431 -0.79324,1.98295 -0.3505,0.93986 -0.9197,2.20722 -1.26488,2.81638 -0.34519,0.60917 -0.62761,1.14169 -0.62761,1.18339 0,0.15913 -1.04741,1.60666 -2.07927,2.87355 -1.17412,1.44157 -3.06068,3.20927 -4.33928,4.06594 -0.44775,0.29997 -0.85402,0.64947 -0.90282,0.77666 -0.0489,0.1272 -0.197,0.23126 -0.32931,0.23126 -0.13231,0 -0.86273,0.31276 -1.62315,0.69503 -2.41519,1.21413 -6.17391,2.36154 -8.32898,2.54257 -1.33982,0.11256 -5.24944,0.22227 -5.32232,0.14939 z m 6.02894,-10.8997 c 2.08734,-0.69625 4.35899,-2.40988 5.27087,-3.97612 0.0987,-0.1696 0.40976,-0.69107 0.69115,-1.15883 0.28138,-0.46776 0.51227,-0.94022 0.51308,-1.04995 7.8e-4,-0.10968 0.0836,-0.35836 0.184,-0.55255 0.39756,-0.76904 0.44897,-0.91492 0.44897,-1.27391 0,-0.20491 0.1163,-0.60578 0.25854,-0.89081 0.70561,-1.41445 1.06632,-7.77041 0.59802,-10.53798 -0.63462,-3.75065 -1.83543,-6.18336 -4.27905,-8.66892 -1.01062,-1.02798 -1.50699,-1.39063 -2.73454,-1.99796 -1.96248,-0.97093 -3.02452,-1.24008 -5.13086,-1.30032 -2.17675,-0.0622 -3.50815,0.19794 -5.198,1.01588 -1.40141,0.67832 -3.12262,2.134 -4.10392,3.4708 -0.58839,0.80153 -1.82811,3.12232 -1.82811,3.42224 0,0.0976 -0.10706,0.39203 -0.23788,0.65429 -0.13084,0.26227 -0.34684,0.96585 -0.48003,1.56351 -0.13318,0.59767 -0.31758,1.42691 -0.40978,1.84276 -0.37863,1.70767 -0.40772,6.2852 -0.053,8.33661 0.28797,1.66529 0.9824,3.86383 1.61837,5.12368 0.52719,1.04434 2.17037,3.22856 2.42884,3.22856 0.0906,0 0.49502,0.32995 0.89875,0.73322 0.75978,0.75891 3.39142,2.16095 3.9308,2.09419 0.15206,-0.0189 0.40845,0.0227 0.56976,0.0924 0.7121,0.30743 1.42409,0.37389 3.49565,0.32632 1.9225,-0.0441 2.38441,-0.10881 3.54834,-0.4971 z m 451.67288,10.93414 c -0.0408,-0.0377 -0.85567,-0.11606 -1.81082,-0.17397 -2.00767,-0.12181 -2.2227,-0.15085 -4.03179,-0.5452 -2.08168,-0.45377 -6.15272,-1.91621 -7.09823,-2.5499 -0.13023,-0.0873 -0.44993,-0.25992 -0.71043,-0.38363 -0.72916,-0.34628 -2.67798,-1.89516 -2.73139,-2.17086 -0.0261,-0.13504 0.32356,-0.80426 0.77712,-1.48714 1.0508,-1.58201 1.72559,-2.6351 2.26235,-3.53075 0.4521,-0.75437 0.91359,-1.44338 1.61314,-2.40839 0.48209,-0.66502 0.71602,-0.66803 1.58093,-0.0204 0.2764,0.20699 0.60965,0.37635 0.74058,0.37635 0.1309,0 0.28759,0.0802 0.34821,0.17828 0.14463,0.23404 2.08871,1.12508 3.36332,1.54154 1.81237,0.59215 4.2364,0.97704 6.01593,0.95521 4.67796,-0.0573 6.99902,-1.62837 7.22246,-4.88839 0.0762,-1.1124 0.0418,-1.33647 -0.32279,-2.10674 -0.43223,-0.9129 -1.22837,-1.81272 -1.95816,-2.21317 -0.83787,-0.45975 -3.44344,-1.7143 -4.30847,-2.07446 -5.92384,-2.46645 -9.83203,-4.64737 -12.13248,-6.77042 -1.3922,-1.28483 -2.66544,-3.34606 -3.17832,-5.1453 -0.18563,-0.65122 -0.39297,-1.2906 -0.46074,-1.42085 -0.22505,-0.43248 -0.0768,-4.27824 0.21909,-5.68342 0.42725,-2.02895 1.85969,-4.8924 3.00061,-5.99824 0.30444,-0.29506 0.55352,-0.62522 0.55352,-0.7337 0,-0.10843 0.167,-0.28991 0.37109,-0.40318 0.2041,-0.11331 0.86125,-0.57923 1.46033,-1.03544 0.89122,-0.67871 3.13939,-1.90587 4.72029,-2.57654 1.42245,-0.60348 5.30411,-1.25123 7.49792,-1.25123 3.01171,0 5.45958,0.31019 7.78465,0.98645 0.59071,0.17181 1.11699,0.26941 1.16953,0.2169 0.0525,-0.0525 0.19597,-0.0125 0.31874,0.0898 0.30568,0.2537 1.95437,0.91545 2.28298,0.91635 0.14682,4e-4 0.31074,0.0716 0.36425,0.15817 0.0535,0.0866 0.53725,0.37156 1.07496,0.63327 1.1366,0.55317 3.08386,1.85946 3.31125,2.22127 0.10868,0.173 0.0897,0.37309 -0.0623,0.6543 -0.23032,0.42618 -3.4102,5.13612 -4.08681,6.05328 -0.21707,0.29425 -0.50298,0.68638 -0.63537,0.87139 l -0.24068,0.3364 -0.86443,-0.48794 c -2.238,-1.26329 -4.63146,-2.29467 -5.10499,-2.19981 -0.0989,0.0199 -0.32195,-0.0424 -0.4956,-0.13813 -1.13375,-0.62538 -5.73982,-0.6709 -7.31393,-0.0723 -0.46264,0.17594 -0.94975,0.41 -1.08249,0.52016 -0.13273,0.11018 -0.39066,0.27474 -0.57319,0.36574 -0.18254,0.091 -0.54465,0.46821 -0.80473,0.83825 -0.37732,0.53688 -0.48596,0.87876 -0.53778,1.69244 -0.10843,1.70353 0.0315,2.08343 1.17699,3.19563 1.00921,0.97985 1.37184,1.18786 4.9515,2.8402 0.56439,0.26052 1.20377,0.52552 1.42085,0.5889 0.6918,0.20196 6.06443,2.8768 7.27767,3.62328 1.90713,1.17343 3.29764,2.30796 4.3704,3.56587 0.55537,0.65123 1.14554,1.33615 1.31149,1.52204 0.16596,0.1859 0.30174,0.38755 0.30174,0.44808 0,0.0606 0.21956,0.58337 0.4879,1.16181 0.57615,1.242 1.08942,3.19578 1.18828,4.52317 0.0389,0.52194 0.0968,1.25106 0.12883,1.62027 0.032,0.36923 -0.006,0.71088 -0.0841,0.75922 -0.0782,0.0484 -0.14329,0.35012 -0.14457,0.6706 -10e-4,0.3205 -0.10731,1.02819 -0.23573,1.57265 -0.12837,0.54446 -0.2229,1.04177 -0.21009,1.10512 0.0127,0.0633 -0.10206,0.39933 -0.25537,0.74665 -1.3945,3.16005 -1.82329,3.82372 -3.71832,5.75517 -0.7706,0.78542 -1.43348,1.42804 -1.47307,1.42804 -0.0396,0 -0.55481,0.29334 -1.14494,0.65185 -3.06127,1.85978 -6.79721,2.92409 -10.80448,3.07801 -1.08796,0.0417 -2.01152,0.0451 -2.05235,0.007 z m -359.78716,-0.26338 c -2.54181,-0.25164 -5.11213,-0.99577 -7.26215,-2.10245 -1.7819,-0.91719 -2.21373,-1.2303 -3.8478,-2.78998 -1.33453,-1.27376 -3.48961,-4.33903 -3.76523,-5.35545 -0.0846,-0.31188 -0.28394,-0.8157 -0.44305,-1.11961 -0.1591,-0.3039 -0.33011,-0.8012 -0.38002,-1.1051 -0.05,-0.3039 -0.19653,-0.75532 -0.32586,-1.00314 -0.12931,-0.24782 -0.19956,-0.50809 -0.15611,-0.57839 0.0435,-0.0703 -0.034,-0.61348 -0.17216,-1.20708 -0.34118,-1.46613 -0.4134,-5.68657 -0.12924,-7.55206 0.34093,-2.23817 1.29488,-5.31494 2.15374,-6.9464 1.18783,-2.25636 4.1135,-5.69152 5.40807,-6.34984 0.26049,-0.13247 0.81124,-0.48074 1.22388,-0.77392 0.41264,-0.29318 0.79016,-0.53306 0.83895,-0.53306 0.0487,0 0.49263,-0.18594 0.98633,-0.41321 3.53253,-1.62606 9.47785,-1.9412 13.13279,-0.69611 2.1044,0.71689 3.33482,1.33517 4.67755,2.35047 1.13356,0.85714 3.05821,2.71584 3.05821,2.95343 0,0.054 0.1339,0.28675 0.29756,0.51723 0.26446,0.37244 0.96769,1.58786 1.29291,2.23459 0.0655,0.13024 0.27105,0.62755 0.4568,1.10511 0.18575,0.47756 0.40194,1.01038 0.48042,1.18404 0.25992,0.57521 0.93486,3.92724 1.03313,5.13086 0.0532,0.65123 0.13256,1.29062 0.17646,1.42085 0.0772,0.22895 0.0506,3.29451 -0.0382,4.42045 -0.024,0.30391 -0.0491,0.7124 -0.0557,0.90776 l -0.0125,0.35522 -12.2566,0 -12.25659,0 0.0952,0.69403 c 0.0896,0.6539 0.28237,1.19013 0.87843,2.44388 0.32474,0.68307 2.11711,2.50799 2.75982,2.80998 0.27124,0.12743 0.74181,0.36473 1.04572,0.52731 1.58266,0.84671 5.18826,1.10622 7.93703,0.57128 1.59918,-0.31123 3.67496,-1.01367 5.02938,-1.70193 0.51785,-0.26316 1.03183,-0.44381 1.14219,-0.40148 0.11031,0.0423 0.96718,1.62322 1.90405,3.51304 l 1.70341,3.43604 -0.34917,0.26338 c -0.75406,0.56878 -3.60627,1.90626 -4.9155,2.30499 -0.40203,0.12243 -0.81572,0.32475 -0.91931,0.44956 -0.10356,0.1248 -0.28829,0.18858 -0.41045,0.14169 -0.12218,-0.0469 -0.59651,0.0277 -1.0541,0.16566 -2.1822,0.6581 -6.29559,0.99237 -8.96242,0.72836 z m 8.1376,-24.54986 c -0.0473,-0.30391 -0.1275,-0.81896 -0.17811,-1.14458 -0.0948,-0.61013 -0.31605,-1.20001 -0.89081,-2.37525 -0.45754,-0.93556 -1.4633,-1.9028 -2.45197,-2.35809 -1.05617,-0.48636 -2.7189,-0.73348 -3.49144,-0.51889 -0.315,0.0874 -0.77897,0.15947 -1.03106,0.15996 -1.17473,0.002 -3.7016,1.79413 -4.42185,3.13567 -0.56714,1.05635 -0.88595,1.83744 -0.82006,2.00915 0.0396,0.10306 -0.036,0.34159 -0.16792,0.52993 -0.14491,0.2069 -0.2015,0.49528 -0.14295,0.72855 l 0.0969,0.38611 6.79268,0 6.79267,0 -0.0861,-0.55256 z m 181.84241,23.52303 c -0.21657,-0.16397 -0.18081,-0.2894 0.99003,-3.4732 0.22354,-0.6078 0.71034,-1.95761 1.08182,-2.99958 0.37145,-1.04195 1.22463,-3.38636 1.89594,-5.2098 0.6713,-1.82342 1.53621,-4.20335 1.922,-5.28873 0.63081,-1.77465 1.80741,-5.0702 2.56459,-7.1832 0.3149,-0.87874 1.40958,-3.86523 1.99765,-5.44996 0.21011,-0.56624 0.38203,-1.13813 0.38203,-1.27088 0,-0.13274 0.0652,-0.30884 0.14482,-0.39133 0.0797,-0.0824 0.39003,-0.86041 0.68971,-1.7287 0.92737,-2.68683 1.25853,-3.61336 1.46717,-4.1047 0.39843,-0.9383 1.3294,-3.63621 1.33468,-3.86788 0.003,-0.13024 0.14266,-0.52097 0.31044,-0.8683 0.16777,-0.34732 0.30744,-0.7228 0.31039,-0.83438 0.002,-0.11156 0.10494,-0.36025 0.22666,-0.55256 0.12168,-0.19231 0.27202,-0.5983 0.33398,-0.90221 0.062,-0.3039 0.17587,-0.63132 0.25314,-0.72759 0.0772,-0.0963 0.43564,-1.01983 0.79642,-2.05235 0.36077,-1.03252 0.7445,-2.12595 0.85277,-2.42986 l 0.19679,-0.55255 6.15241,-0.0412 6.1524,-0.0414 0.23119,0.35702 c 0.12715,0.19637 0.28318,0.57016 0.34673,0.83066 0.0636,0.26048 0.4282,1.32613 0.81029,2.36808 0.38208,1.04197 0.87436,2.39177 1.09393,2.99959 0.21957,0.60781 0.47005,1.22846 0.55661,1.37925 0.0866,0.15077 0.1574,0.35109 0.1574,0.44514 0,0.16984 1.07996,3.21148 1.80696,5.08921 0.20869,0.53902 1.17189,3.18236 2.14046,5.87409 0.96855,2.69173 1.88948,5.17822 2.04651,5.52555 0.15702,0.34732 0.32281,0.77358 0.36837,0.94724 0.10469,0.39893 0.7079,2.1074 0.89182,2.52596 0.0763,0.17366 0.33407,0.88409 0.57278,1.57872 0.23872,0.69465 0.56516,1.41035 0.72544,1.59044 0.1603,0.1801 0.25058,0.3683 0.20066,0.41822 -0.11318,0.11319 0.18599,1.24571 0.55238,2.0909 0.1518,0.35014 0.36517,0.92079 0.47418,1.26812 0.34001,1.08325 1.44871,4.08538 1.66162,4.49936 0.11168,0.21709 0.47088,1.21168 0.79827,2.21023 0.32742,0.99854 0.69139,2.00759 0.80883,2.24232 0.11743,0.23475 0.39322,0.99562 0.61284,1.69083 0.21961,0.69522 0.46815,1.3066 0.5523,1.35859 0.0842,0.052 0.15364,0.25021 0.15444,0.44046 0.001,0.19024 0.17116,0.69639 0.37859,1.12477 0.20746,0.42838 0.34099,0.8732 0.29675,0.98848 -0.0653,0.17036 -1.26585,0.20188 -6.41199,0.16836 l -6.33154,-0.0412 -0.27319,-0.71043 c -0.15025,-0.39073 -0.73912,-2.25206 -1.30862,-4.13629 -0.5695,-1.88422 -1.10431,-3.60702 -1.1885,-3.82841 l -0.15303,-0.40255 -8.66579,0 -8.66578,0 -0.51876,1.6182 c -0.2853,0.89 -0.52908,1.726 -0.54167,1.85778 -0.0126,0.13177 -0.0713,0.31777 -0.13032,0.41334 -0.0591,0.0956 -0.43111,1.19547 -0.82679,2.44424 -0.39566,1.24877 -0.77792,2.37706 -0.84945,2.50731 -0.11093,0.20192 -1.02079,0.24844 -6.17566,0.31575 -3.91034,0.0511 -6.11923,0.0232 -6.2541,-0.0789 z m 29.46307,-18.74598 c -1e-5,-0.15119 -0.17338,-0.79057 -0.38527,-1.42085 -0.21186,-0.63029 -0.71068,-2.21162 -1.10845,-3.51407 -0.39778,-1.30244 -0.82828,-2.56921 -0.95668,-2.81503 -0.12841,-0.24583 -0.23436,-0.56551 -0.23548,-0.71044 -0.003,-0.24802 -0.57815,-2.16365 -0.9107,-3.02736 -0.0833,-0.21646 -0.27578,-0.81982 -0.42764,-1.3408 -0.38436,-1.31851 -1.03036,-3.26746 -1.17913,-3.55733 -0.0683,-0.13309 -0.1744,-0.47054 -0.23575,-0.74989 -0.10744,-0.48929 -0.40222,-0.71634 -0.40222,-0.30982 0,0.10893 -0.21599,0.87265 -0.47997,1.69712 -0.26398,0.82448 -0.57868,1.85428 -0.69934,2.28842 -0.12068,0.43415 -0.65408,2.15812 -1.18538,3.83104 -0.53132,1.67292 -0.92588,3.10663 -0.87681,3.18602 0.0491,0.0793 0.0232,0.18513 -0.0575,0.23498 -0.0807,0.0499 -0.33544,0.71192 -0.56615,1.47124 -0.23071,0.75932 -0.6718,2.15252 -0.98016,3.09602 -0.35655,1.09089 -0.50168,1.75189 -0.39861,1.81554 0.0891,0.0551 2.61978,0.10007 5.62365,0.10007 5.08571,0 5.4616,-0.0189 5.46157,-0.27489 z m -192.28898,0.19784 0,-18.63088 4.97299,0 4.97299,0 0.0187,1.22352 c 0.01,0.67293 0.006,1.31485 -0.009,1.4265 -0.0149,0.11168 0.31424,-0.0407 0.73122,-0.3385 0.67014,-0.47865 1.23484,-0.82405 2.33682,-1.42932 0.17366,-0.0954 0.42231,-0.24175 0.55256,-0.32523 0.13025,-0.0835 0.69858,-0.31249 1.26298,-0.50889 0.56439,-0.19639 1.16826,-0.42398 1.34191,-0.50574 0.17366,-0.0817 0.56441,-0.18658 0.86831,-0.23294 0.30391,-0.0464 0.9788,-0.16059 1.49979,-0.25387 2.1198,-0.37951 5.52295,-0.11394 7.34108,0.57285 1.43124,0.54066 2.70544,1.16977 3.07852,1.51995 0.17366,0.163 0.68082,0.63048 1.12703,1.03884 1.53892,1.40834 2.87136,3.68612 3.38433,5.7854 0.0848,0.34732 0.19644,0.73806 0.24797,0.86831 0.11394,0.28793 0.1343,0.46693 0.35986,3.15745 0.11781,1.40501 0.16368,6.05851 0.13465,13.65599 l -0.044,11.5247 -5.99916,0 -5.99917,0 -0.084,-12.23512 c -0.0927,-13.51437 -0.0832,-13.38567 -1.07634,-14.54595 -0.52692,-0.61559 -1.57993,-1.21011 -2.1862,-1.23433 -0.15653,-0.006 -0.56804,-0.0394 -0.91447,-0.0737 -0.80244,-0.0794 -2.11475,0.13292 -2.88001,0.46593 -1.66768,0.72573 -2.36375,1.07154 -2.68572,1.33422 l -0.35427,0.28905 -0.0403,12.99995 -0.0404,12.99993 -5.95968,0.0414 -5.95969,0.0413 0,-18.63088 z m 63.53846,18.43163 c -0.0417,-0.10956 -0.0576,-11.35293 -0.0352,-24.98524 l 0.0406,-24.78601 9.70916,0 c 5.34005,0 10.45513,0.0503 11.36685,0.1118 2.49678,0.1684 5.50201,0.78008 6.9052,1.40546 0.36808,0.16406 0.75146,0.29828 0.85196,0.29828 0.10044,0 0.55732,0.24865 1.01518,0.55255 0.45785,0.30391 0.89153,0.55256 0.96371,0.55256 0.21904,0 3.11369,2.69969 3.36738,3.14059 0.13025,0.22635 0.46769,0.78559 0.74989,1.24274 0.28219,0.45717 0.51309,0.89924 0.51309,0.98239 0,0.0832 0.16961,0.52611 0.37694,0.98434 0.76169,1.68362 0.96788,3.0892 0.93274,6.3587 -0.0312,2.90397 -0.0774,3.68511 -0.24746,4.18362 -1.35281,3.96542 -2.47081,5.87507 -4.52071,7.72176 -2.12222,1.91184 -3.84424,2.93685 -6.25068,3.72059 -0.69465,0.22624 -1.40507,0.47302 -1.57873,0.5484 -0.17366,0.0753 -1.27483,0.21885 -2.44703,0.31881 -1.1722,0.0999 -2.30888,0.21175 -2.52596,0.2484 -0.21707,0.0366 -1.85106,0.0856 -3.63107,0.10869 l -3.23639,0.0421 -0.079,8.683 -0.0789,8.683 -6.04286,0.0413 c -4.74988,0.0325 -6.05908,-0.001 -6.11865,-0.15787 z m 20.21301,-27.62485 c 1.41536,-0.28889 1.89463,-0.54786 2.79462,-1.51001 1.7118,-1.83004 2.00861,-5.65943 0.64204,-8.28286 -0.30532,-0.5861 -0.60457,-1.06564 -0.66502,-1.06564 -0.0605,0 -0.35035,-0.2147 -0.64426,-0.4771 -0.95477,-0.85241 -1.70712,-0.98457 -5.9831,-1.05094 -3.01139,-0.0467 -3.8838,-0.0156 -3.98387,0.14207 -0.0705,0.11106 -0.12924,2.99529 -0.13056,6.4094 l -0.002,6.20748 3.43373,-0.0734 c 2.05686,-0.044 3.87686,-0.16387 4.53884,-0.29899 z m 28.65389,2.79933 0,-25.02467 6.15705,0 6.15703,0 0,9.55129 0,9.5513 8.1292,0 8.12922,0 0.0407,-9.51182 0.0407,-9.51183 6.19699,-0.0413 6.197,-0.0414 -0.04,24.98518 -0.04,24.98518 -6.04181,0.0414 -6.04184,0.0414 -0.15467,-0.40684 c -0.0951,-0.2501 -0.15468,-4.26494 -0.15468,-10.42147 l 0,-10.01465 -8.12931,0 -8.1293,0 -0.0406,10.38014 -0.0406,10.38012 -6.11757,0.0414 -6.11757,0.0414 0,-25.02468 z m 171.28628,24.61154 c -0.10194,-0.26817 -0.14238,-7.30416 -0.11518,-20.0517 l 0.0418,-19.63856 -6.58563,2e-5 c -6.31917,10e-6 -6.59216,-0.0125 -6.7469,-0.30134 -0.22097,-0.41288 -0.14659,-9.25338 0.0797,-9.4796 0.11518,-0.11505 6.14054,-0.15394 19.57622,-0.1262 l 19.40981,0.0401 0.0417,4.93352 0.0417,4.93353 -6.59345,-10e-6 -6.59342,-1e-5 0.0418,19.5053 c 0.023,10.72793 -0.017,19.7326 -0.0889,20.01039 l -0.13083,0.50506 -6.11078,0.0413 -6.11077,0.0414 -0.15707,-0.41314 z"
         id="path3168"
         style="fill:#4c4c4c;fill-opacity:1" />
      <g
         transform="matrix(0.45564315,0,0,0.45564315,49.503921,191.67063)"
         id="layer1-9">
        <g
           id="g3106">
          <path
             d="m 53.25433,642.90301 c -2.49202,-0.10491 -4.53094,-0.29108 -4.53094,-0.4137 0,-0.26282 4.58476,-6.82498 6.69699,-9.58539 0.80794,-1.05587 1.81356,-2.49617 2.23472,-3.20066 0.42116,-0.7045 1.06406,-1.61534 1.42866,-2.0241 0.65946,-0.73931 3.37729,-4.51858 6.35828,-8.84149 0.85923,-1.24601 2.02901,-2.89283 2.59953,-3.65961 0.57051,-0.76677 1.91738,-2.64886 2.99304,-4.18241 1.07567,-1.53355 2.42164,-3.41563 2.99105,-4.18241 0.56941,-0.76677 1.38296,-1.88231 1.80788,-2.47897 0.42492,-0.59666 1.71363,-2.37961 2.86379,-3.96212 3.19494,-4.39592 4.22855,-5.86574 6.25472,-8.89441 1.02594,-1.53355 2.54777,-3.68635 3.38186,-4.784 0.83408,-1.09765 1.90861,-2.55006 2.38785,-3.22758 0.47923,-0.67752 1.73396,-2.39862 2.78827,-3.82467 3.5284,-4.77246 5.04766,-6.92901 5.88678,-8.35612 0.45816,-0.77921 1.24767,-1.88728 1.75446,-2.46236 0.50679,-0.57508 1.40514,-1.75138 1.99633,-2.614 0.5912,-0.86263 1.52694,-2.21517 2.07942,-3.00565 1.06796,-1.52802 10.71869,-14.9977 12.49595,-17.4408 0.58069,-0.79824 1.89343,-2.60191 2.91722,-4.00815 3.7803,-5.19253 6.51657,-9.10698 6.99149,-10.00189 0.26845,-0.50586 0.89581,-1.41052 1.39413,-2.01036 1.02559,-1.23453 7.06961,-9.60786 10.1422,-14.05091 1.47384,-2.13121 3.97773,-5.60134 7.47812,-10.36386 1.43415,-1.95126 3.82797,-5.29871 5.3196,-7.43879 1.49163,-2.14008 3.49626,-5.01406 4.45473,-6.38663 0.95846,-1.37257 2.48766,-3.46341 3.3982,-4.6463 0.91055,-1.1829 1.65554,-2.29517 1.65554,-2.47171 0,-0.17655 0.28826,-0.58186 0.64058,-0.90071 0.35233,-0.31885 1.69893,-2.10761 2.99245,-3.97503 1.29353,-1.86742 3.04614,-4.33635 3.89469,-5.48651 0.84855,-1.15017 1.81534,-2.53569 2.14843,-3.07894 0.33308,-0.54325 2.30924,-3.28795 4.39145,-6.09935 2.08221,-2.81139 3.86966,-5.34688 3.9721,-5.63442 0.10245,-0.28754 0.53596,-0.9149 0.96336,-1.39413 0.4274,-0.47924 1.46308,-1.86505 2.30151,-3.07958 1.9726,-2.85744 2.93937,-4.21115 9.01791,-12.62721 2.77956,-3.84845 5.21058,-7.25989 5.40228,-7.581 0.19169,-0.3211 0.93668,-1.31204 1.65553,-2.20209 0.71886,-0.89004 1.30701,-1.73263 1.30701,-1.87242 0,-0.13978 0.43131,-0.76722 0.95847,-1.3943 0.52715,-0.62708 1.89951,-2.49748 3.04967,-4.15646 1.15016,-1.65898 2.52252,-3.58 3.04968,-4.26894 0.52715,-0.68894 0.95846,-1.40956 0.95846,-1.60138 0,-0.19182 0.58816,-1.01772 1.30701,-1.83532 0.71885,-0.8176 2.01278,-2.52281 2.8754,-3.78934 0.86263,-1.26653 2.66629,-3.77674 4.00815,-5.57824 1.34185,-1.80149 3.30236,-4.56126 4.35668,-6.13282 4.00562,-5.97075 4.18132,-6.0254 4.18578,-1.30191 0.0154,16.2908 3.00024,36.41069 7.71718,52.01873 1.25845,4.16409 3.69157,11.56982 4.12235,12.54723 0.16898,0.38339 0.49768,1.32443 0.73047,2.0912 0.23278,0.76678 0.81428,2.25478 1.29221,3.30667 1.38316,3.04424 1.50966,3.76842 0.90602,5.18645 -0.52,1.22157 -3.33699,8.48883 -4.67882,12.0704 -0.88447,2.36082 -1.58649,4.16302 -4.4803,11.50163 -1.36061,3.45049 -2.47426,6.48963 -2.47476,6.75365 -3.5e-4,0.26401 -0.4895,1.51874 -1.08666,2.78827 -0.59715,1.26953 -1.20753,2.62192 -1.35639,3.00531 -2.83577,7.30342 -3.57507,9.15924 -3.85109,9.6671 -0.18091,0.33286 -0.32893,0.76365 -0.32893,0.9573 0,0.28159 -3.30974,9.02579 -4.55355,12.03033 -0.15872,0.38338 -0.61066,1.52048 -1.00432,2.52687 -0.39366,1.00639 -1.03783,2.65321 -1.43148,3.65961 -0.39366,1.00639 -0.86017,2.14348 -1.03668,2.52687 -0.17651,0.38339 -0.65874,1.63811 -1.07162,2.78827 -0.41288,1.15017 -1.02657,2.71857 -1.36374,3.48535 -0.33718,0.76677 -1.19691,2.96254 -1.91052,4.87948 -1.82704,4.90789 -3.23406,8.46909 -4.02636,10.19082 -0.37395,0.81261 -0.6799,1.69652 -0.6799,1.96423 0,0.26772 -0.2343,0.936 -0.52066,1.48507 -0.28636,0.54907 -0.52162,1.24141 -0.5228,1.53854 -0.001,0.29713 -0.14872,0.68923 -0.32786,0.87134 -0.31867,0.32394 -0.93348,1.8707 -3.36962,8.47733 -0.66252,1.79671 -1.43524,3.59606 -1.71716,3.99856 -0.28192,0.4025 -0.51791,0.97138 -0.52441,1.2642 -0.007,0.29281 -0.31486,1.15974 -0.68524,1.92652 -0.37038,0.76677 -0.67874,1.51172 -0.68525,1.65545 -0.007,0.14371 -1.12112,3.12368 -2.47694,6.62215 -3.18884,8.22831 -3.46998,8.94641 -3.99134,10.19471 -0.24018,0.57508 -0.54889,1.43771 -0.68602,1.91694 -0.13713,0.47923 -0.44247,1.18502 -0.67855,1.5684 -0.23607,0.38339 -0.52019,1.01075 -0.63137,1.39414 -0.11119,0.38339 -0.50811,1.48127 -0.88205,2.43974 -0.62464,1.60106 -1.58992,4.09906 -7.20542,18.64658 -1.07295,2.77956 -2.18194,5.54797 -2.46443,6.15202 -0.28249,0.60405 -0.51362,1.31768 -0.51362,1.58583 0,0.26816 -0.13769,0.63656 -0.30598,0.81866 -0.16829,0.18211 -0.62133,1.19373 -1.00675,2.24805 l -0.70077,1.91694 -58.33119,0.0165 c -32.08217,0.009 -60.37013,-0.0693 -62.86215,-0.17427 z"
             id="path3104"
             style="fill:#ff9500;fill-opacity:1" />
          <path
             d="m 207.58672,642.0152 c 0.0891,-0.57509 0.58342,-2.53559 1.0986,-4.35668 0.51518,-1.82109 1.30728,-4.72264 1.76022,-6.44788 0.45295,-1.72525 1.46998,-5.48942 2.26007,-8.36483 0.7901,-2.8754 1.6533,-6.09063 1.91824,-7.14495 0.26494,-1.05431 0.79916,-3.09324 1.18715,-4.53094 0.38799,-1.43771 1.0863,-4.02557 1.55179,-5.75082 0.4655,-1.72524 1.19431,-4.39153 1.61959,-5.92508 0.42528,-1.53355 1.05588,-3.88615 1.40133,-5.22801 0.34546,-1.34186 1.1232,-4.2434 1.72832,-6.44788 0.60512,-2.20448 1.3118,-4.79235 1.57041,-5.75082 1.15925,-4.29654 1.96192,-7.2865 3.08765,-11.50163 1.16126,-4.34815 2.41667,-8.94076 3.04875,-11.15309 0.1643,-0.57508 0.55909,-2.06507 0.87731,-3.31108 0.31821,-1.24601 1.27963,-4.77492 2.13648,-7.84202 0.85684,-3.0671 1.86376,-6.75285 2.23758,-8.19055 0.37383,-1.4377 0.9933,-3.79031 1.3766,-5.22801 0.38331,-1.43771 0.83674,-3.26012 1.00763,-4.04981 0.17089,-0.78969 0.61342,-2.35809 0.98341,-3.48534 0.36998,-1.12725 0.76698,-2.59849 0.88222,-3.26941 0.11524,-0.67093 0.527,-2.31776 0.91503,-3.65961 1.29136,-4.4657 2.5791,-9.14061 4.89633,-17.77525 2.9745,-11.0838 2.63263,-10.53179 4.39788,-7.10126 0.72743,1.41368 1.53232,3.04084 1.78864,3.61592 0.25631,0.57508 0.90502,1.75138 1.44157,2.61401 1.85973,2.98994 6.13237,10.13624 6.62336,11.07805 0.27135,0.52051 1.36924,2.26123 2.43974,3.86827 1.0705,1.60704 2.34509,3.60117 2.83241,4.43139 0.48732,0.83022 1.21271,1.86797 1.61198,2.30611 0.39927,0.43815 0.92784,1.18873 1.17461,1.66797 0.24676,0.47923 0.86384,1.42028 1.37129,2.0912 0.50744,0.67093 2.15758,2.8667 3.66698,4.87948 3.80167,5.06956 10.56961,13.16016 14.11487,16.87334 3.57461,3.74392 11.03758,11.06433 12.26044,12.02623 0.78226,0.61532 0.92765,1.11006 1.30941,4.45575 0.2362,2.06997 0.64588,5.33198 0.91039,7.24892 0.26451,1.91694 0.72816,5.36743 1.03033,7.66775 0.30217,2.30033 0.71053,5.28029 0.90747,6.62215 0.19694,1.34186 0.57612,4.2434 0.84262,6.44788 0.2665,2.20448 0.87902,6.98811 1.36116,10.6303 0.48214,3.64218 1.42429,10.93526 2.09366,16.20684 1.57579,12.40985 1.88464,14.79125 2.46278,18.98912 0.26354,1.91365 0.4357,3.52283 0.38257,3.57596 -0.0531,0.0531 -23.18929,0.13424 -51.41369,0.18025 l -51.3171,0.0837 0.16192,-1.0456 z"
             id="path3102"
             style="fill:#fb6200;fill-opacity:1" />
          <path
             d="m 332.96405,642.45086 c -0.28497,-0.69277 -3.47146,-12.22993 -5.22227,-18.90798 -0.75066,-2.86321 -3.57869,-13.07629 -4.72899,-17.07817 -0.4408,-1.53355 -0.90901,-3.33722 -1.04045,-4.00815 -0.13145,-0.67093 -0.83413,-3.25879 -1.56151,-5.75081 -0.72738,-2.49202 -1.5162,-5.31515 -1.75295,-6.27362 -0.23674,-0.95847 -1.03819,-3.88701 -1.781,-6.50787 -2.04128,-7.20228 -2.18054,-7.12257 3.2444,-1.85695 6.68771,6.49132 16.61427,14.69149 23.62706,19.51792 1.11412,0.76677 3.53524,2.46239 5.38026,3.76804 3.28241,2.32283 12.96776,8.44598 16.64306,10.52186 1.01817,0.57508 2.87277,1.62409 4.12134,2.33113 1.24857,0.70704 3.28959,1.81575 4.5356,2.46381 1.24601,0.64805 3.36335,1.81408 4.70521,2.59118 2.92523,1.69406 9.69267,4.98684 10.24914,4.98684 0.21787,0 0.98088,0.38376 1.69562,0.8528 0.71473,0.46904 2.55426,1.3495 4.08781,1.95659 1.53355,0.60709 2.95861,1.24065 3.16679,1.40791 0.7943,0.6382 15.2368,6.24225 20.97579,8.13912 3.3031,1.09176 6.00563,2.13026 6.00563,2.30779 0,0.19637 -18.01904,0.32277 -46.01399,0.32277 l -46.01398,0 -0.32257,-0.78421 z"
             id="path3098"
             style="fill:#f14400;fill-opacity:1" />
        </g>
      </g>
    </g>
  </g>
</svg>
