<?xml version="1.0" encoding="UTF-8" standalone="no"?>
<svg
   xmlns:dc="http://purl.org/dc/elements/1.1/"
   xmlns:cc="http://creativecommons.org/ns#"
   xmlns:rdf="http://www.w3.org/1999/02/22-rdf-syntax-ns#"
   xmlns:svg="http://www.w3.org/2000/svg"
   xmlns="http://www.w3.org/2000/svg"
   xmlns:sodipodi="http://sodipodi.sourceforge.net/DTD/sodipodi-0.dtd"
   xmlns:inkscape="http://www.inkscape.org/namespaces/inkscape"
   id="Layer_1"
   data-name="Layer 1"
   width="670.51001"
   height="160"
   viewBox="0 0 672.31 160"
   version="1.1"
   sodipodi:docname="rdmkit.svg"
   inkscape:version="0.92.3 (2405546, 2018-03-11)">
  <metadata
     id="metadata2255">
    <rdf:RDF>
      <cc:Work
         rdf:about="">
        <dc:format>image/svg+xml</dc:format>
        <dc:type
           rdf:resource="http://purl.org/dc/dcmitype/StillImage" />
        <dc:title></dc:title>
      </cc:Work>
    </rdf:RDF>
  </metadata>
  <sodipodi:namedview
     pagecolor="#ffffff"
     bordercolor="#666666"
     borderopacity="1"
     objecttolerance="10"
     gridtolerance="10"
     guidetolerance="10"
     inkscape:pageopacity="0"
     inkscape:pageshadow="2"
     inkscape:window-width="2560"
     inkscape:window-height="1247"
     id="namedview2253"
     showgrid="false"
     viewbox-width="690"
     viewbox-y="-10"
     viewbox-height="100"
     inkscape:zoom="1.5523425"
     inkscape:cx="358.14505"
     inkscape:cy="95.513832"
     inkscape:window-x="0"
     inkscape:window-y="0"
     inkscape:window-maximized="1"
     inkscape:current-layer="Layer_1" />
  <defs
     id="defs2236">
    <style
       id="style2234">.cls-1{fill:#2a2e3d;}.cls-2{fill:#c23669;}</style>
  </defs>
  <path
     class="cls-1"
     d="m 411.71234,13.012057 q 14.0792,0 14.65831,14.468433 l 4.63294,118.67154 H 393.37996 L 389.32614,44.274887 h -2.89558 l -13.12033,67.918093 q -1.89874,12.73109 -15.81654,12.73109 h -21.61721 q -13.69944,0 -16.00641,-12.73109 l -13.3197,-67.918093 h -2.89558 l -3.24686,101.877143 h -37.6521 l 4.62344,-118.67154 q 0.58861,-14.468433 14.6678,-14.468433 h 36.07615 q 13.50007,0 15.81654,12.93045 l 9.64563,52.870545 c 0.51266,3.208878 0.94937,6.493707 1.25317,9.835497 0.3038,3.341795 0.61709,6.693074 0.87342,10.034862 h 1.73735 q 0.58861,-5.012687 1.0633,-10.034862 c 0.31329,-3.34179 0.73101,-6.645606 1.25317,-9.835497 l 9.06651,-52.870545 q 2.33545,-12.93045 16.0254,-12.93045 z"
     id="path2238"
     inkscape:connector-curvature="0"
     style="fill:#2a2e3d;stroke-width:0.94937235" />
  <path
     class="cls-2"
     d="m 507.29515,146.15203 h 41.17428 l -22.11088,-36.6078 a 35.905261,35.905261 0 0 0 -5.16459,-7.35764 22.784936,22.784936 0 0 0 -5.16458,-4.642428 v -0.67405 a 41.250228,41.250228 0 0 0 5.16458,-4.177238 25.433685,25.433685 0 0 0 5.16459,-6.541174 l 18.71212,-29.278642 h -40.9844 L 487.102,86.512462 h -5.10762 c 0.18987,-1.167728 0.37025,-2.363938 0.52215,-3.56964 A 113.42151,113.42151 0 0 0 483.40894,69.01553 V 13.012057 H 445.97519 V 146.15203 h 37.43375 v -25.53811 a 70.880138,70.880138 0 0 0 -1.15823,-11.86716 c -0.076,-0.39874 -0.14241,-0.77849 -0.21836,-1.16773 h 4.96522 z"
     id="path2240"
     inkscape:connector-curvature="0"
     style="fill:#c23669;stroke-width:0.94937235" />
  <path
     class="cls-2"
     d="m 560.05177,46.240087 h 16.89883 q 11.57285,0 11.58234,-11.772216 v -9.683598 q 0,-11.762722 -11.58234,-11.772216 h -16.89883 q -11.59184,0 -11.58234,11.772216 v 9.683598 q 0,11.78171 11.58234,11.772216 z"
     id="path2242"
     inkscape:connector-curvature="0"
     style="fill:#c23669;stroke-width:0.94937235" />
  <path
     class="cls-2"
     d="M 655.00799,78.737102 V 56.901539 h -21.0191 V 34.116603 h -36.65527 v 22.870379 l -48.72179,-0.104431 v 89.297959 h 36.31349 V 78.68014 l 12.44628,0.05696 0.0854,43.09201 q 0,11.45893 7.47156,17.89567 7.47156,6.43674 20.16467,6.42725 c 2.78166,0 5.99054,-0.18038 9.63613,-0.52215 3.64559,-0.34178 7.27219,-0.84495 10.86082,-1.48102 a 41.544533,41.544533 0 0 0 9.03802,-2.51584 l -3.95888,-23.30709 h -9.20891 q -4.00635,0 -5.69624,-1.48102 -1.68988,-1.48102 -1.73735,-4.74687 V 78.737102 Z"
     id="path2244"
     inkscape:connector-curvature="0"
     style="fill:#c23669;stroke-width:0.94937235" />
  <path
     class="cls-1"
     d="m 124.38481,105.83218 q -1.5095,-7.984218 -5.30699,-12.275376 a 22.680505,22.680505 0 0 0 -8.18359,-6.085476 29.525479,29.525479 0 0 0 -7.95574,-2.183557 v -1.139247 q 10.26271,-1.139246 16.07287,-5.515853 a 23.421015,23.421015 0 0 0 8.1741,-11.126643 43.490746,43.490746 0 0 0 2.33545,-14.553878 q 0,-15.408313 -5.80066,-24.057095 -5.80067,-8.648781 -17.93364,-12.26589 -12.21843,-3.617108 -31.614103,-3.617108 -13.129819,0 -22.348225,0.09494 -9.218405,0.09494 -16.927308,0.474686 c -2.231025,0.113925 -4.547494,0.265824 -6.911431,0.446205 l 28.851425,21.493789 a 23.924183,23.924183 0 1 1 -10.22474,19.614032 24.114057,24.114057 0 0 1 0.949373,-6.721556 L 18.444351,26.711499 V 146.15203 H 58.954069 V 98.085311 q 5.753196,0 12.740576,0.13291 5.325979,0 7.708904,1.71836 2.382924,1.718369 3.512677,7.224729 l 8.544354,38.99072 h 43.17745 z"
     id="path2246"
     inkscape:connector-curvature="0"
     style="fill:#2a2e3d;stroke-width:0.94937235" />
  <circle
     class="cls-2"
     cx="70.536415"
     cy="55.135715"
     r="9.9304342"
     id="circle2248"
     style="fill:#c23669;stroke-width:0.94937235" />
  <path
     class="cls-1"
     d="m 253.4235,46.904648 q -3.19939,-12.949438 -10.31968,-20.354543 -7.12029,-7.405103 -18.64567,-10.50955 -11.56336,-3.094954 -28.26282,-3.094954 -16.50958,0 -29.73434,0.560129 -13.22476,0.56013 -25.60457,1.338615 V 144.27227 q 12.18994,0.75001 25.69951,1.31014 13.50957,0.56013 29.6394,0.56962 16.70896,0 28.24383,-3.09495 11.53487,-3.09496 18.66466,-10.49057 7.12029,-7.4051 10.31968,-20.35454 3.19938,-12.949439 3.18989,-32.648914 0,-19.708969 -3.18989,-32.658408 z m -41.30719,55.718662 q -1.50001,8.07915 -5.25003,11.06968 -3.75002,2.99052 -10.69943,3.00002 -7.74688,0 -14.62983,-0.11393 V 42.376142 h 14.62983 q 6.94941,0 10.69943,3.000017 3.75002,3.000016 5.25003,11.098162 1.5,8.060171 1.5,23.069748 0,15.009574 -1.5,23.079241 z"
     id="path2250"
     inkscape:connector-curvature="0"
     style="fill:#2a2e3d;stroke-width:0.94937235" />
</svg>
